<?xml version="1.0" encoding="UTF-8"?>
<svg width="46px" height="46px" viewBox="0 0 46 46" version="1.1" xmlns="http://www.w3.org/2000/svg" xmlns:xlink="http://www.w3.org/1999/xlink">
    <!-- Generator: Sketch 49.3 (51167) - http://www.bohemiancoding.com/sketch -->
    <title>Atmosphere</title>
    <desc>Created with Sketch.</desc>
    <defs></defs>
    <g id="Pa" stroke="none" stroke-width="1" fill="none" fill-rule="evenodd">
        <g id="Styleguide" transform="translate(-893.000000, -2009.000000)" fill="#FFFFFF" fill-rule="nonzero">
            <g id="Atmosphere" transform="translate(893.000000, 2009.000000)">
                <g id="Soil-Icon">
                    <g id="Group-4">
                        <g id="drop">
                            <path d="M23,0 C10.2974529,0 0,10.2974529 0,23 C0,35.7025471 10.2974529,46 23,46 C35.7025471,46 46,35.7025471 46,23 C45.9855994,10.3033825 35.6965677,0.0143507395 23,0 Z M23,44.4666633 C11.144296,44.4666633 1.53333666,34.855704 1.53333666,23 C1.53333666,11.144296 11.144296,1.53333666 23,1.53333666 C34.855704,1.53333666 44.4666633,11.144296 44.4666633,23 C44.4531099,34.8500733 34.8500733,44.4531099 23,44.4666633 Z" id="Shape"></path>
                            <g id="sun-(1)" transform="translate(8.000000, 8.000000)">
                                <path d="M12.8603329,5.02250756 L11.0590296,3.21336575 C10.8466273,2.96113278 10.4686664,2.92776344 10.2147716,3.13877546 C9.9608767,3.34978748 9.9272875,3.72527437 10.1396898,3.97750734 C10.16093,4.00269792 10.1842284,4.02617097 10.2094203,4.04759932 L12.0107237,5.85674112 C12.2620664,6.0706975 12.6404389,6.0416629 12.855805,5.79196534 C13.0463085,5.57105702 13.0482843,5.24562415 12.8603329,5.02250756 Z" id="Shape"></path>
                                <path d="M27.8644185,3.20989135 C27.6582232,2.96176569 27.2913075,2.92893972 27.0448322,3.13651567 C27.0202166,3.15727327 26.9972794,3.18004226 26.9763402,3.20466173 L25.2084953,4.96503449 C24.96202,5.17261043 24.9294124,5.54198298 25.1356077,5.79010865 C25.3418029,6.03823431 25.7087187,6.07106028 25.955194,5.86348433 C25.9798095,5.84272673 26.0027468,5.81995774 26.023686,5.79533827 L27.7915308,4.03496551 C28.0379262,3.82738957 28.0706138,3.45801702 27.8644185,3.20989135 Z" id="Shape"></path>
                                <path d="M17.985878,3.22572469 C17.9819039,3.20695998 17.9771349,3.18846081 17.9714828,3.17013867 L17.2649725,0.507674884 C17.1914954,0.161501484 16.8519289,-0.0594263622 16.5065337,0.0141277404 C16.1611384,0.0876818431 15.9407072,0.428101914 16.014096,0.774275314 C16.0180701,0.793040019 16.022839,0.811539186 16.0284911,0.829861327 L16.7350015,3.49232512 C16.8084785,3.83849852 17.1480451,4.05942636 17.4934403,3.98587226 C17.8388355,3.91231816 18.0593551,3.57189809 17.985878,3.22572469 Z" id="Shape"></path>
                                <path d="M24.2833809,14.7731366 C24.1823032,14.6697122 24.0772866,14.568341 23.9682565,14.468947 L24.0574426,14.3046846 C24.1681078,14.0965429 24.2673274,13.8822413 24.3547298,13.6628446 C25.6210988,10.4266475 24.0837526,6.7527216 20.9209886,5.45694996 C20.9150429,5.45451644 20.9091715,5.45208292 20.9032257,5.44972546 C18.0439177,4.28353859 14.7819342,5.45155059 13.2569997,8.18743184 C9.52976173,7.12231196 5.66435959,9.35050076 4.62333423,13.1643539 C4.45009013,13.7989694 4.36320796,14.4549543 4.36514032,15.113829 C4.36514032,15.2050859 4.36514032,15.3003732 4.36514032,15.3997672 C1.77747845,15.5875282 -0.171536251,17.8861369 0.0119642563,20.5338792 C0.185357,23.036371 2.21070018,24.9813593 4.6624275,24.9999909 L4.67729186,24.9999909 L20.1362248,24.9999909 C23.3690742,25.0056945 25.9943429,22.328826 25.9999913,19.0209162 C26.0026669,17.4277232 25.3849042,15.8990944 24.2833809,14.7731366 Z M16.7441782,6.4778863 C17.9498263,5.98730452 19.2932671,5.98730452 20.4989152,6.4778863 C23.1125897,7.54490736 24.3882489,10.5760046 23.3498992,13.2521886 C23.2746855,13.4364515 23.1893641,13.6162275 23.0942322,13.7906042 L23.0942322,13.8392746 C21.6017763,12.9514972 19.8026686,12.7823678 18.1771024,13.3769064 C17.8770653,12.152087 17.2657685,11.0302357 16.4052708,10.1251196 C17.0064598,8.98303973 18.3458128,8.47922571 19.5267861,8.95094773 C19.8090603,9.04593093 20.1131851,8.88874095 20.206013,8.59991293 C20.2911858,8.33496379 20.1692237,8.0466681 19.9221781,7.92887068 C18.3186854,7.27144091 16.4853154,7.88392666 15.5698939,9.38289695 C15.1641712,9.07079843 14.7266388,8.80455648 14.2648032,8.5889621 C14.845405,7.6285595 15.7156389,6.88755364 16.7441782,6.4778863 Z M21.2655445,23.7589734 C20.8975773,23.8489375 20.5204685,23.8938815 20.1421706,23.8928168 L4.6832376,23.8928168 C2.68509619,23.8909917 1.06673914,22.2320177 1.06852287,20.1874833 C1.06941473,19.2076126 1.44986799,18.268123 2.12656792,17.5747989 L2.12062217,17.5778408 C2.79821396,16.8833759 3.71824344,16.493633 4.67729186,16.4949258 L4.80809821,16.4949258 L4.92404021,16.4949258 C5.22050984,16.5156107 5.47729164,16.2864038 5.49743284,15.9830508 C5.50062868,15.9355211 5.49773013,15.8876873 5.48888584,15.8409182 C5.47699435,15.7354404 5.46710955,15.620913 5.45915712,15.4971839 C5.45915712,15.3815919 5.45915712,15.2538322 5.45915712,15.1108631 C5.50322994,11.7612794 8.19271267,9.08243368 11.4663647,9.12752979 C14.3428411,9.16715048 16.7762852,11.3141967 17.2376749,14.2195876 C17.2802613,14.5205072 17.5531709,14.7291812 17.8473366,14.6856061 C17.9041184,14.6771648 17.9592652,14.6595218 18.0106215,14.6332855 C18.3397928,14.4648405 18.6869499,14.3362443 19.0451809,14.2500066 C21.6114381,13.6226155 24.1888436,15.2427293 24.8019984,17.86857 C25.4151532,20.4943346 23.8318017,23.1315823 21.2655445,23.7589734 Z" id="Shape"></path>
                                <path d="M29.9707371,8.456097 C29.8709532,8.13630378 29.5405996,7.94466003 29.2092518,8.01422689 L26.4905009,8.72864906 C26.1414378,8.81795184 25.931295,9.16935824 26.020504,9.51451346 C26.1106169,9.86029379 26.4673626,10.0684585 26.8174198,9.97942368 C26.8181429,9.97924508 26.818866,9.97906647 26.8194987,9.97888787 L29.5382496,9.26446569 C29.8836973,9.15926703 30.0772999,8.7973229 29.9707371,8.456097 Z" id="Shape"></path>
                                <path d="M29.5272319,13.7465438 L26.832145,13.0248977 C26.4858263,12.9276515 26.1246846,13.123904 26.0254156,13.4631657 C25.9261466,13.8024274 26.1264814,14.15621 26.4728,14.2534562 L29.167887,14.9751023 C29.5142056,15.0723485 29.8753473,14.876096 29.9746163,14.5368343 C30.0737955,14.1975726 29.8735506,13.84379 29.5272319,13.7465438 Z" id="Shape"></path>
                                <path d="M21.5372999,0.0253507349 C21.1983563,-0.0736648901 20.8449055,0.126158498 20.7477504,0.471593099 L20.0267811,3.15980011 C19.926197,3.50308415 20.1176935,3.86455839 20.4545269,3.96706868 C20.4619125,3.96930885 20.4693859,3.97145942 20.4769473,3.97343077 C20.8142203,4.07459696 21.1681108,3.87799942 21.2673759,3.53426735 C21.2689586,3.52898054 21.2703653,3.52360413 21.2717721,3.51822771 L21.9751569,0.830020701 C22.072224,0.4845861 21.8762434,0.12436636 21.5372999,0.0253507349 Z" id="Shape"></path>
                            </g>
                        </g>
                    </g>
                </g>
            </g>
        </g>
    </g>
</svg>