<?xml version="1.0" encoding="UTF-8"?>
<svg width="44px" height="44px" viewBox="0 0 44 44" version="1.1" xmlns="http://www.w3.org/2000/svg" xmlns:xlink="http://www.w3.org/1999/xlink">
    <!-- Generator: Sketch 49.3 (51167) - http://www.bohemiancoding.com/sketch -->
    <title>Habitats</title>
    <desc>Created with Sketch.</desc>
    <defs></defs>
    <g id="Pa" stroke="none" stroke-width="1" fill="none" fill-rule="evenodd">
        <g id="Styleguide" transform="translate(-894.000000, -2083.000000)">
            <g id="Habitats" transform="translate(895.000000, 2084.000000)">
                <g id="Group-2">
                    <g id="home" transform="translate(10.000000, 8.000000)" fill="#C3B272" fill-rule="nonzero">
                        <path d="M19.1994526,2.01917255 C19.1327851,1.94954591 19.0438953,1.92633703 18.9772279,1.92633703 L18.6438908,1.92633703 C18.5550009,1.92633703 18.4661111,1.94954591 18.4216661,2.01917255 C18.3327762,2.08879919 17.1994303,3.17961655 16.1994192,4.78102926 L11.2438084,0.0928355197 C11.177141,0.0232088799 11.0882511,0 11.0215837,0 C10.8882489,0 10.8882489,0 5.44374384,5.36125126 L0.110351126,10.629667 C-0.00076122208,10.7225025 -0.0229836917,10.8849647 0.0214612476,11.024218 C0.0659061869,11.1634712 0.199241005,11.2563068 0.332575823,11.2563068 L2.86593736,11.2563068 L2.86593736,22.6286579 C2.86593736,22.8375378 3.02149465,23 3.22149688,23 L18.7994481,23 C18.9994503,23 19.1550076,22.8375378 19.1550076,22.6286579 L19.1550076,16.0141271 L20.8883602,14.3662967 C22.3105983,12.9737639 23.0217173,11.3723512 22.9994949,9.58526741 C22.9550499,5.61654894 19.3550098,2.18163471 19.1994526,2.01917255 Z M18.4438886,22.2805247 L3.55483392,22.2805247 L3.55483392,22.2573158 L3.55483392,10.8849647 C3.55483392,10.6760848 3.39927663,10.5136226 3.19927441,10.5136226 L1.17702967,10.5136226 C3.24371935,8.49445005 9.68823555,2.11200807 10.9993613,0.835519677 L15.7994147,5.4308779 C15.1327406,6.63773966 14.5994013,8.07669021 14.5994013,9.60847629 C14.5771789,11.39556 15.2882979,12.9969728 16.710536,14.3895055 L18.4438886,16.037336 L18.4438886,22.2805247 Z M20.4216884,13.8324924 L19.1550076,15.0393542 L19.1550076,9.07467205 C19.1550076,8.86579213 18.9994503,8.70332997 18.7994481,8.70332997 C18.5994459,8.70332997 18.4438886,8.86579213 18.4438886,9.07467205 L18.4438886,15.0393542 L17.1772078,13.8324924 C15.910527,12.6024218 15.2660754,11.1634712 15.2882979,9.58526741 C15.3105204,6.28960646 18.1994414,3.22603431 18.7550032,2.66902119 L18.8216706,2.66902119 C19.3772323,3.22603431 22.2661534,6.28960646 22.2883758,9.60847629 C22.3105983,11.1866801 21.6883692,12.6024218 20.4216884,13.8324924 Z" id="Shape"></path>
                        <path d="M18.3765306,15.6956301 C18.3765306,15.6761518 18.3530612,15.6761518 18.3530612,15.6566734 C18.3530612,15.6371951 18.3295918,15.6177168 18.3295918,15.6177168 L17.2265306,14.6048442 C16.3346939,13.8257114 15.3255102,13.4166667 14.1755102,13.4166667 C11.5938776,13.436145 9.3877551,15.4424119 9.29387755,15.5203252 C9.22346939,15.5787602 9.2,15.6566734 9.2,15.7151084 L9.2,15.9098916 C9.2,15.9878049 9.22346939,16.0657182 9.29387755,16.1046748 C9.3877551,16.1825881 11.5938776,18.2083333 14.1520408,18.2083333 C15.3020408,18.2083333 16.3112245,17.8187669 17.2030612,17.0201558 L18.3061224,16.0267615 C18.3295918,16.0072832 18.3295918,15.9878049 18.3530612,15.9878049 C18.3530612,15.9683266 18.3765306,15.9683266 18.3765306,15.9488482 C18.4,15.8904133 18.4,15.8514566 18.4,15.8125 C18.4,15.7735434 18.4,15.7345867 18.3765306,15.6956301 Z M13.8,16.1436314 L17.2265306,16.1436314 L16.6867347,16.6111111 C15.9591837,17.273374 15.0908163,17.6045054 14.1755102,17.6045054 C12.2510204,17.6045054 10.4673469,16.2215447 9.9744898,15.8125 C10.4673469,15.4034553 12.2510204,14.0204946 14.1755102,14.0204946 C15.1142857,14.0204946 15.9591837,14.351626 16.6867347,15.0138889 L17.2265306,15.5203252 L13.8,15.5203252 C13.5887755,15.5203252 13.4244898,15.6566734 13.4244898,15.8319783 C13.4244898,16.0072832 13.5887755,16.1436314 13.8,16.1436314 Z" id="Shape"></path>
                    </g>
                    <g id="home" transform="translate(10.000000, 8.000000)" fill="#C3B272" fill-rule="nonzero">
                        <path d="M19.1994526,2.01917255 C19.1327851,1.94954591 19.0438953,1.92633703 18.9772279,1.92633703 L18.6438908,1.92633703 C18.5550009,1.92633703 18.4661111,1.94954591 18.4216661,2.01917255 C18.3327762,2.08879919 17.1994303,3.17961655 16.1994192,4.78102926 L11.2438084,0.0928355197 C11.177141,0.0232088799 11.0882511,0 11.0215837,0 C10.8882489,0 10.8882489,0 5.44374384,5.36125126 L0.110351126,10.629667 C-0.00076122208,10.7225025 -0.0229836917,10.8849647 0.0214612476,11.024218 C0.0659061869,11.1634712 0.199241005,11.2563068 0.332575823,11.2563068 L2.86593736,11.2563068 L2.86593736,22.6286579 C2.86593736,22.8375378 3.02149465,23 3.22149688,23 L18.7994481,23 C18.9994503,23 19.1550076,22.8375378 19.1550076,22.6286579 L19.1550076,16.0141271 L20.8883602,14.3662967 C22.3105983,12.9737639 23.0217173,11.3723512 22.9994949,9.58526741 C22.9550499,5.61654894 19.3550098,2.18163471 19.1994526,2.01917255 Z M18.4438886,22.2805247 L3.55483392,22.2805247 L3.55483392,22.2573158 L3.55483392,10.8849647 C3.55483392,10.6760848 3.39927663,10.5136226 3.19927441,10.5136226 L1.17702967,10.5136226 C3.24371935,8.49445005 9.68823555,2.11200807 10.9993613,0.835519677 L15.7994147,5.4308779 C15.1327406,6.63773966 14.5994013,8.07669021 14.5994013,9.60847629 C14.5771789,11.39556 15.2882979,12.9969728 16.710536,14.3895055 L18.4438886,16.037336 L18.4438886,22.2805247 Z M20.4216884,13.8324924 L19.1550076,15.0393542 L19.1550076,9.07467205 C19.1550076,8.86579213 18.9994503,8.70332997 18.7994481,8.70332997 C18.5994459,8.70332997 18.4438886,8.86579213 18.4438886,9.07467205 L18.4438886,15.0393542 L17.1772078,13.8324924 C15.910527,12.6024218 15.2660754,11.1634712 15.2882979,9.58526741 C15.3105204,6.28960646 18.1994414,3.22603431 18.7550032,2.66902119 L18.8216706,2.66902119 C19.3772323,3.22603431 22.2661534,6.28960646 22.2883758,9.60847629 C22.3105983,11.1866801 21.6883692,12.6024218 20.4216884,13.8324924 Z" id="Shape"></path>
                        <path d="M18.3765306,15.6956301 C18.3765306,15.6761518 18.3530612,15.6761518 18.3530612,15.6566734 C18.3530612,15.6371951 18.3295918,15.6177168 18.3295918,15.6177168 L17.2265306,14.6048442 C16.3346939,13.8257114 15.3255102,13.4166667 14.1755102,13.4166667 C11.5938776,13.436145 9.3877551,15.4424119 9.29387755,15.5203252 C9.22346939,15.5787602 9.2,15.6566734 9.2,15.7151084 L9.2,15.9098916 C9.2,15.9878049 9.22346939,16.0657182 9.29387755,16.1046748 C9.3877551,16.1825881 11.5938776,18.2083333 14.1520408,18.2083333 C15.3020408,18.2083333 16.3112245,17.8187669 17.2030612,17.0201558 L18.3061224,16.0267615 C18.3295918,16.0072832 18.3295918,15.9878049 18.3530612,15.9878049 C18.3530612,15.9683266 18.3765306,15.9683266 18.3765306,15.9488482 C18.4,15.8904133 18.4,15.8514566 18.4,15.8125 C18.4,15.7735434 18.4,15.7345867 18.3765306,15.6956301 Z M13.8,16.1436314 L17.2265306,16.1436314 L16.6867347,16.6111111 C15.9591837,17.273374 15.0908163,17.6045054 14.1755102,17.6045054 C12.2510204,17.6045054 10.4673469,16.2215447 9.9744898,15.8125 C10.4673469,15.4034553 12.2510204,14.0204946 14.1755102,14.0204946 C15.1142857,14.0204946 15.9591837,14.351626 16.6867347,15.0138889 L17.2265306,15.5203252 L13.8,15.5203252 C13.5887755,15.5203252 13.4244898,15.6566734 13.4244898,15.8319783 C13.4244898,16.0072832 13.5887755,16.1436314 13.8,16.1436314 Z" id="Shape"></path>
                    </g>
                    <g id="home" transform="translate(10.000000, 8.000000)" fill="#000000" fill-rule="nonzero">
                        <path d="M19.1994526,2.01917255 C19.1327851,1.94954591 19.0438953,1.92633703 18.9772279,1.92633703 L18.6438908,1.92633703 C18.5550009,1.92633703 18.4661111,1.94954591 18.4216661,2.01917255 C18.3327762,2.08879919 17.1994303,3.17961655 16.1994192,4.78102926 L11.2438084,0.0928355197 C11.177141,0.0232088799 11.0882511,0 11.0215837,0 C10.8882489,0 10.8882489,0 5.44374384,5.36125126 L0.110351126,10.629667 C-0.00076122208,10.7225025 -0.0229836917,10.8849647 0.0214612476,11.024218 C0.0659061869,11.1634712 0.199241005,11.2563068 0.332575823,11.2563068 L2.86593736,11.2563068 L2.86593736,22.6286579 C2.86593736,22.8375378 3.02149465,23 3.22149688,23 L18.7994481,23 C18.9994503,23 19.1550076,22.8375378 19.1550076,22.6286579 L19.1550076,16.0141271 L20.8883602,14.3662967 C22.3105983,12.9737639 23.0217173,11.3723512 22.9994949,9.58526741 C22.9550499,5.61654894 19.3550098,2.18163471 19.1994526,2.01917255 Z M18.4438886,22.2805247 L3.55483392,22.2805247 L3.55483392,22.2573158 L3.55483392,10.8849647 C3.55483392,10.6760848 3.39927663,10.5136226 3.19927441,10.5136226 L1.17702967,10.5136226 C3.24371935,8.49445005 9.68823555,2.11200807 10.9993613,0.835519677 L15.7994147,5.4308779 C15.1327406,6.63773966 14.5994013,8.07669021 14.5994013,9.60847629 C14.5771789,11.39556 15.2882979,12.9969728 16.710536,14.3895055 L18.4438886,16.037336 L18.4438886,22.2805247 Z M20.4216884,13.8324924 L19.1550076,15.0393542 L19.1550076,9.07467205 C19.1550076,8.86579213 18.9994503,8.70332997 18.7994481,8.70332997 C18.5994459,8.70332997 18.4438886,8.86579213 18.4438886,9.07467205 L18.4438886,15.0393542 L17.1772078,13.8324924 C15.910527,12.6024218 15.2660754,11.1634712 15.2882979,9.58526741 C15.3105204,6.28960646 18.1994414,3.22603431 18.7550032,2.66902119 L18.8216706,2.66902119 C19.3772323,3.22603431 22.2661534,6.28960646 22.2883758,9.60847629 C22.3105983,11.1866801 21.6883692,12.6024218 20.4216884,13.8324924 Z" id="Shape"></path>
                        <path d="M18.3765306,15.6956301 C18.3765306,15.6761518 18.3530612,15.6761518 18.3530612,15.6566734 C18.3530612,15.6371951 18.3295918,15.6177168 18.3295918,15.6177168 L17.2265306,14.6048442 C16.3346939,13.8257114 15.3255102,13.4166667 14.1755102,13.4166667 C11.5938776,13.436145 9.3877551,15.4424119 9.29387755,15.5203252 C9.22346939,15.5787602 9.2,15.6566734 9.2,15.7151084 L9.2,15.9098916 C9.2,15.9878049 9.22346939,16.0657182 9.29387755,16.1046748 C9.3877551,16.1825881 11.5938776,18.2083333 14.1520408,18.2083333 C15.3020408,18.2083333 16.3112245,17.8187669 17.2030612,17.0201558 L18.3061224,16.0267615 C18.3295918,16.0072832 18.3295918,15.9878049 18.3530612,15.9878049 C18.3530612,15.9683266 18.3765306,15.9683266 18.3765306,15.9488482 C18.4,15.8904133 18.4,15.8514566 18.4,15.8125 C18.4,15.7735434 18.4,15.7345867 18.3765306,15.6956301 Z M13.8,16.1436314 L17.2265306,16.1436314 L16.6867347,16.6111111 C15.9591837,17.273374 15.0908163,17.6045054 14.1755102,17.6045054 C12.2510204,17.6045054 10.4673469,16.2215447 9.9744898,15.8125 C10.4673469,15.4034553 12.2510204,14.0204946 14.1755102,14.0204946 C15.1142857,14.0204946 15.9591837,14.351626 16.6867347,15.0138889 L17.2265306,15.5203252 L13.8,15.5203252 C13.5887755,15.5203252 13.4244898,15.6566734 13.4244898,15.8319783 C13.4244898,16.0072832 13.5887755,16.1436314 13.8,16.1436314 Z" id="Shape"></path>
                    </g>
                    <circle id="Oval-9" stroke="#000000" cx="21" cy="21" r="21"></circle>
                </g>
            </g>
        </g>
    </g>
</svg>