<?xml version="1.0" encoding="UTF-8"?>
<svg width="44px" height="44px" viewBox="0 0 44 44" version="1.1" xmlns="http://www.w3.org/2000/svg" xmlns:xlink="http://www.w3.org/1999/xlink">
    <!-- Generator: Sketch 49.3 (51167) - http://www.bohemiancoding.com/sketch -->
    <title>Land-icon</title>
    <desc>Created with Sketch.</desc>
    <defs></defs>
    <g id="Pa" stroke="none" stroke-width="1" fill="none" fill-rule="evenodd">
        <g id="Styleguide" transform="translate(-896.000000, -2422.000000)" fill="#000000" fill-rule="nonzero">
            <g id="Land-icon" transform="translate(896.000000, 2422.000000)">
                <g id="drop">
                    <path d="M22,0 C9.84973753,0 0,9.84973753 0,22 C0,34.1502625 9.84973753,44 22,44 C34.1502625,44 44,34.1502625 44,22 C43.9862255,9.85540937 34.144543,0.0137267943 22,0 Z M22,42.5333302 C10.6597614,42.5333302 1.46666984,33.3402386 1.46666984,22 C1.46666984,10.6597614 10.6597614,1.46666984 22,1.46666984 C33.3402386,1.46666984 42.5333302,10.6597614 42.5333302,22 C42.520366,33.3348528 33.3348528,42.520366 22,42.5333302 Z" id="Shape"></path>
                </g>
                <g id="mountain" transform="translate(8.000000, 13.000000)">
                    <path d="M27.2904138,9.14017911 L23.5860756,9.14017911 L20.9406379,6.13637892 C20.6888416,5.85045796 20.265581,5.81573666 19.9733428,6.05691115 L18.3321733,7.41153098 L14.0027592,0.341181625 C13.8726828,0.12877854 13.6464288,0 13.4033043,0 C13.1601797,0 12.9339257,0.12877854 12.8038494,0.341181625 L9.10707931,6.37836847 L7.72101719,4.2813159 C7.58881231,4.08130164 7.36957452,3.96165171 7.13520058,3.96165171 C6.90082663,3.96165171 6.68166768,4.08130164 6.54938397,4.2813159 L3.33783814,9.14017911 L0.709507399,9.14017911 C0.317622812,9.14017911 0,9.46856438 0,9.87372775 C0,10.2788911 0.317622812,10.6072764 0.709507399,10.6072764 L2.3680992,10.6072764 L1.80348897,11.4613715 C1.58235917,11.7958697 1.66545037,12.2523 1.98898574,12.4809226 C2.11141519,12.5674814 2.25079397,12.6088861 2.38867491,12.6088861 C2.61516544,12.6088861 2.83771426,12.4969792 2.97512219,12.2891404 L3.24867671,11.875256 L7.13527941,5.99537457 L8.28066086,7.72826098 L5.74125504,11.8753375 L3.90504989,14.8740843 C3.69542987,15.216407 3.79389373,15.6694956 4.12499718,15.8862185 C4.24277541,15.9632411 4.37403428,16 4.50387414,16 C4.73887875,16 4.96891682,15.8792905 5.10395973,15.6587369 L5.44113341,15.1080864 L13.4033831,2.10504009 L19.8721197,12.6691186 L20.0336509,12.9328701 C20.2431921,13.2751113 20.68151,13.3769116 21.0126135,13.1602702 C21.3139176,12.9630271 21.4217627,12.5701711 21.2808073,12.2430899 C21.2668536,12.2108137 21.2514021,12.1788636 21.2325608,12.1481361 L19.0958398,8.65864518 L20.3391333,7.63241062 L24.5999617,12.4704899 L25.0965381,13.0343443 C25.2365475,13.1933614 25.4285875,13.2740517 25.621337,13.2740517 C25.7918553,13.2740517 25.9628466,13.210885 26.0988355,13.0829216 C26.388551,12.810123 26.4095997,12.3461942 26.1458207,12.0466618 L24.8781674,10.6072764 L27.2904926,10.6072764 C27.6823772,10.6072764 28,10.2788911 28,9.87372775 C28,9.46856438 27.6822984,9.14017911 27.2904138,9.14017911 Z" id="Shape"></path>
                </g>
            </g>
        </g>
    </g>
</svg>