<?xml version="1.0" encoding="UTF-8"?>
<svg width="44px" height="44px" viewBox="0 0 44 44" version="1.1" xmlns="http://www.w3.org/2000/svg" xmlns:xlink="http://www.w3.org/1999/xlink">
    <!-- Generator: sketchtool 49.3 (51167) - http://www.bohemiancoding.com/sketch -->
    <title>1A2293CE-C56A-4677-BCFF-51452D957D6C</title>
    <desc>Created with sketchtool.</desc>
    <defs></defs>
    <g id="Pa" stroke="none" stroke-width="1" fill="none" fill-rule="evenodd">
        <g id="Styleguide" transform="translate(-953.000000, -1848.000000)" fill="#875A96" fill-rule="nonzero">
            <g id="Minerals-icon" transform="translate(953.000000, 1848.000000)">
                <g id="mineral" transform="translate(10.000000, 9.000000)">
                    <path d="M23.9883358,15.4970262 L22.3881407,9.49718576 C22.3541365,9.36878917 22.2581248,9.26599191 22.1325095,9.22199308 C22.0072942,9.1795942 21.8680772,9.20039365 21.7616643,9.28039152 L16.9610789,12.8802958 C16.9122729,12.9166948 16.8782688,12.9646935 16.8510655,13.0158922 C16.8478651,13.022292 16.8406642,13.0258919 16.8374638,13.0322917 L15.7761344,15.3314306 L17.1979078,3.246952 C17.2011082,3.21975273 17.1979078,3.19335343 17.1955075,3.16655414 C17.1951074,3.1605543 17.1979078,3.15495445 17.1971077,3.14895461 C17.1967076,3.14655468 17.1951074,3.14455473 17.1947074,3.14215479 C17.1867064,3.08895621 17.167104,3.03975752 17.1395006,2.99415873 C17.1330999,2.98375901 17.1266991,2.97495924 17.1194982,2.96495951 C17.0878944,2.92176065 17.0502898,2.88216171 17.0018839,2.85416245 L12.2012985,0.054236927 C12.0688823,-0.0225610303 11.9052624,-0.0173611686 11.7776468,0.0670365866 L6.97706145,3.26695147 C6.93425623,3.29575071 6.90065213,3.33334971 6.87224867,3.37454861 C6.86624794,3.38334838 6.86024721,3.39134816 6.85504657,3.40094791 C6.8306436,3.44334678 6.81304145,3.48894557 6.80544052,3.53774427 C6.80504048,3.5405442 6.80304023,3.54254414 6.80264018,3.54494408 C6.80184009,3.55094392 6.80464043,3.55694376 6.80384033,3.5629436 C6.80184009,3.58574299 6.79823965,3.60854239 6.80023989,3.63174177 L7.5015254,12.3975086 L4.25472949,9.69198058 C4.16471852,9.61718256 4.04670413,9.58598339 3.93189013,9.60478289 C3.81667608,9.62438237 3.71586379,9.69358053 3.65585647,9.79357787 L0.0554174353,15.7934183 C0.0238135816,15.8458169 0.0058113864,15.9042153 0.000210703456,15.9634138 C-0.00138949167,15.9830132 0.00661148396,16.0022127 0.0078116303,16.0222122 C0.010211923,16.0610112 0.00901177665,16.1002101 0.0226134352,16.1378091 L2.62573086,23.2000213 L1.59920568,23.2000213 L1.59920568,24 L3.19940081,24 L3.99949837,24 L8.80008375,24 L12.4005228,24 L17.2011082,24 L17.6011569,24 L19.2013521,24 L19.2013521,23.2000213 L18.4012545,23.2000213 L23.9219277,15.840217 C23.9279284,15.8322173 23.9283285,15.8218175 23.9339292,15.8134178 C23.9555318,15.7798186 23.9711337,15.7442196 23.981935,15.7058206 C23.9863355,15.690221 23.9919362,15.6766214 23.9943365,15.6606218 C24.0023375,15.6070232 24.0031376,15.5522247 23.9883358,15.4970262 Z M21.1895945,10.7095535 L19.1529462,16.5277988 L17.6983688,13.3274839 L21.1895945,10.7095535 Z M12.0148758,0.87221517 L16.1509801,3.284551 L13.4350489,6.00047876 L9.78420375,6.00047876 L7.7975615,3.68294041 L12.0148758,0.87221517 Z M7.72075214,13.621876 C7.72075214,13.621876 7.72075214,13.621876 7.72115219,13.622276 L8.14920438,13.9790665 L4.75799086,16.445001 L4.4499533,10.8967485 L7.72075214,13.621876 Z M3.67225847,11.3231372 L3.96829457,16.6533954 L1.00673344,15.765419 L3.67225847,11.3231372 Z M3.99949837,23.2000213 L3.47823481,23.2000213 L1.0515389,16.6133965 L4.09470998,17.5261722 L6.22256945,23.2000213 L3.99949837,23.2000213 Z M8.40003497,23.2000213 L7.07707365,23.2000213 L4.88080584,17.344577 L8.40003497,14.7858451 L8.40003497,23.2000213 Z M9.20013253,23.2000213 L9.20013253,14.000266 C9.20013253,13.962267 9.18613082,13.9278679 9.1761296,13.8922689 C9.17052892,13.8730694 9.17132902,13.8522699 9.16332804,13.8338704 C9.13852502,13.7802718 9.10292068,13.7318731 9.05651502,13.6930742 L8.36283043,13.1150895 L7.69714926,4.79451084 L9.21093385,6.56006388 L10.3714754,23.2000213 L9.20013253,23.2000213 Z M12.0280774,23.2000213 L11.1735732,23.2000213 L10.0294337,6.80045749 L13.1722169,6.80045749 L12.0280774,23.2000213 Z M13.9891165,6.57766341 L16.2689945,4.29812404 L14.6952026,17.6741683 L12.95139,21.4520678 L13.9891165,6.57766341 Z M13.025799,23.2000213 L15.4484944,17.9521609 L15.4484944,17.9517609 L17.1983078,14.1610617 L18.7556977,17.5861706 L15.7609325,23.2000213 L13.025799,23.2000213 Z M17.4011325,23.2000213 L17.2011082,23.2000213 L16.6678431,23.2000213 L19.4905873,17.908162 L22.3433352,16.6117965 L17.4011325,23.2000213 Z M19.8882358,16.8485902 L21.9500872,10.9587469 L23.1282309,15.3762294 L19.8882358,16.8485902 Z" id="Shape"></path>
                    <path d="M23.5833333,5.08333333 C22.6641667,5.08333333 21.9166667,4.33583333 21.9166667,3.41666667 C21.9166667,3.18625 21.73,3 21.5,3 C21.27,3 21.0833333,3.18625 21.0833333,3.41666667 C21.0833333,4.33583333 20.3358333,5.08333333 19.4166667,5.08333333 C19.1866667,5.08333333 19,5.26958333 19,5.5 C19,5.73041667 19.1866667,5.91666667 19.4166667,5.91666667 C20.3358333,5.91666667 21.0833333,6.66416667 21.0833333,7.58333333 C21.0833333,7.81375 21.27,8 21.5,8 C21.73,8 21.9166667,7.81375 21.9166667,7.58333333 C21.9166667,6.66416667 22.6641667,5.91666667 23.5833333,5.91666667 C23.8133333,5.91666667 24,5.73041667 24,5.5 C24,5.26958333 23.8133333,5.08333333 23.5833333,5.08333333 Z M21.5,6.20291667 C21.315,5.92458333 21.0754167,5.68541667 20.7970833,5.5 C21.0754167,5.315 21.315,5.07541667 21.5,4.79708333 C21.685,5.07541667 21.9245833,5.31458333 22.2029167,5.5 C21.9245833,5.685 21.6854167,5.92458333 21.5,6.20291667 Z" id="Shape"></path>
                    <rect id="Rectangle-path" x="20" y="23" width="1" height="1"></rect>
                    <rect id="Rectangle-path" x="22" y="23" width="1" height="1"></rect>
                </g>
                <g id="drop">
                    <path d="M22,0 C9.84973753,0 0,9.84973753 0,22 C0,34.1502625 9.84973753,44 22,44 C34.1502625,44 44,34.1502625 44,22 C43.9862255,9.85540937 34.144543,0.0137267943 22,0 Z M22,42.5333302 C10.6597614,42.5333302 1.46666984,33.3402386 1.46666984,22 C1.46666984,10.6597614 10.6597614,1.46666984 22,1.46666984 C33.3402386,1.46666984 42.5333302,10.6597614 42.5333302,22 C42.520366,33.3348528 33.3348528,42.520366 22,42.5333302 Z" id="Shape"></path>
                </g>
            </g>
        </g>
    </g>
</svg>