<?xml version="1.0" encoding="UTF-8"?>
<svg width="44px" height="44px" viewBox="0 0 44 44" version="1.1" xmlns="http://www.w3.org/2000/svg" xmlns:xlink="http://www.w3.org/1999/xlink">
    <!-- Generator: sketchtool 49.3 (51167) - http://www.bohemiancoding.com/sketch -->
    <title>42520E50-D674-49FE-B6A1-3C5B6AF46DB7</title>
    <desc>Created with sketchtool.</desc>
    <defs></defs>
    <g id="Pa" stroke="none" stroke-width="1" fill="none" fill-rule="evenodd">
        <g id="Styleguide" transform="translate(-952.000000, -1978.000000)">
            <g id="Ocean-logo" transform="translate(952.000000, 1978.000000)">
                <g id="drop" fill="#0C5A7D" fill-rule="nonzero">
                    <path d="M22,0 C9.84973753,0 0,9.84973753 0,22 C0,34.1502625 9.84973753,44 22,44 C34.1502625,44 44,34.1502625 44,22 C43.9862255,9.85540937 34.144543,0.0137267943 22,0 Z M22,42.5333302 C10.6597614,42.5333302 1.46666984,33.3402386 1.46666984,22 C1.46666984,10.6597614 10.6597614,1.46666984 22,1.46666984 C33.3402386,1.46666984 42.5333302,10.6597614 42.5333302,22 C42.520366,33.3348528 33.3348528,42.520366 22,42.5333302 Z" id="Shape"></path>
                </g>
                <g id="002-diving" transform="translate(14.000000, 15.000000)" fill="#0C5A7D" fill-rule="nonzero">
                    <path d="M10.8535156,1.8533203 C10.9464844,1.76035155 11,1.6314453 11,1.5 C11,1.36835935 10.9464844,1.23945315 10.8535156,1.14648435 C10.7605469,1.0533203 10.6314453,1 10.5,1 C10.3685547,1 10.2394531,1.0533203 10.1464844,1.14648435 C10.0535156,1.23945315 10,1.36835935 10,1.5 C10,1.6314453 10.0535156,1.76035155 10.1464844,1.8533203 C10.2396484,1.94648435 10.3685547,2 10.5,2 C10.6314453,2 10.7605469,1.94648435 10.8535156,1.8533203 Z" id="Shape"></path>
                    <path d="M15.6808511,3.89495458 C15.5045711,3.89495458 15.3617021,4.05915856 15.3617021,4.26176274 C15.3617021,4.67829061 15.1366772,5.03535543 14.8191489,5.18136228 L14.8191489,3.36680816 C14.8191489,3.16420395 14.6762799,3 14.5,3 C14.3237201,3 14.1808511,3.16420395 14.1808511,3.36680816 L14.1808511,5.18136228 C13.8633228,5.03535543 13.6382979,4.67829061 13.6382979,4.26176274 C13.6382979,4.05915856 13.4954289,3.89495458 13.3191489,3.89495458 C13.142869,3.89495458 13,4.05915856 13,4.26176274 C13,5.08650796 13.5066489,5.77742554 14.1808511,5.94607131 L14.1808511,7.2930883 C13.8633228,7.14708149 13.6382979,6.79001663 13.6382979,6.3734888 C13.6382979,6.17088459 13.4954289,6.00668064 13.3191489,6.00668064 C13.142869,6.00668064 13,6.17088459 13,6.3734888 C13,7.19823402 13.5066489,7.88915156 14.1808511,8.05779734 L14.1808511,9.40481436 C13.8633228,9.25866424 13.6382979,8.90159942 13.6382979,8.48507155 C13.6382979,8.28261065 13.4954289,8.11826339 13.3191489,8.11826339 C13.142869,8.11826339 13,8.28261065 13,8.48507155 C13,9.30981677 13.5066489,10.0008776 14.1808511,10.1695234 L14.1808511,10.6331918 C14.1808511,10.8357961 14.3237201,11 14.5,11 C14.6762799,11 14.8191489,10.8357961 14.8191489,10.6331918 L14.8191489,10.1693801 C15.4933511,10.0007343 16,9.30981677 16,8.48507155 C16,8.28246734 15.857131,8.11826339 15.6808511,8.11826339 C15.5045711,8.11826339 15.3617021,8.28246734 15.3617021,8.48507155 C15.3617021,8.90159942 15.1366772,9.25866424 14.8191489,9.40467105 L14.8191489,8.05765406 C15.4933511,7.88915156 16,7.19809071 16,6.37334553 C16,6.17088459 15.857131,6.00653737 15.6808511,6.00653737 C15.5045711,6.00653737 15.3617021,6.17088459 15.3617021,6.37334553 C15.3617021,6.78987336 15.1366772,7.14693818 14.8191489,7.2930883 L14.8191489,5.94607131 C15.4933511,5.77742554 16,5.08650796 16,4.26176274 C16,4.05915856 15.857131,3.89495458 15.6808511,3.89495458 Z" id="Shape"></path>
                    <path d="M0.638297872,12.4849733 C0.638297872,12.282516 0.495428872,12.1181717 0.319148936,12.1181717 C0.142869,12.1181717 0,12.282516 0,12.4849733 C0,13.3097038 0.506648936,14.0007522 1.18085106,14.169395 L1.18085106,14.6331984 C1.18085106,14.8356557 1.32372006,15 1.5,15 C1.67627994,15 1.81914894,14.8356557 1.81914894,14.6331984 L1.81914894,14.169395 C2.49335106,14.0007522 3,13.3098471 3,12.4849733 C3,12.282516 2.857131,12.1181717 2.68085106,12.1181717 C2.50457113,12.1181717 2.36170213,12.282516 2.36170213,12.4849733 C2.36170213,12.9014937 2.1366772,13.2585522 1.81914894,13.4046997 L1.81914894,12.0577068 C2.49335106,11.889064 3,11.1981588 3,10.3734284 C3,10.1708278 2.857131,10.0066268 2.68085106,10.0066268 C2.50457113,10.0066268 2.36170213,10.1708278 2.36170213,10.3734284 C2.36170213,10.7899488 2.1366772,11.1470072 1.81914894,11.2930114 L1.81914894,9.94601855 C2.49335106,9.77751907 3,9.0864706 3,8.26174018 C3,8.05913959 2.857131,7.89493859 2.68085106,7.89493859 C2.50457113,7.89493859 2.36170213,8.05913959 2.36170213,8.26174018 C2.36170213,8.67826055 2.1366772,9.03531898 1.81914894,9.18146649 L1.81914894,7.36680159 C1.81914894,7.16420101 1.67627994,7 1.5,7 C1.32372006,7 1.18085106,7.16420101 1.18085106,7.36680159 L1.18085106,9.18146649 C0.863322798,9.03531898 0.638297872,8.67826055 0.638297872,8.26174018 C0.638297872,8.05928287 0.495428872,7.89493859 0.319148936,7.89493859 C0.142869,7.89493859 0,8.05928287 0,8.26174018 C0,9.0864706 0.506648936,9.77751907 1.18085106,9.94616183 L1.18085106,11.2930114 C0.863322798,11.1470072 0.638297872,10.7899488 0.638297872,10.3734284 C0.638297872,10.1708278 0.495428872,10.0066268 0.319148936,10.0066268 C0.142869,10.0066268 0,10.1708278 0,10.3734284 C0,11.1981588 0.506648936,11.889064 1.18085106,12.0577068 L1.18085106,13.4046997 C0.863322798,13.2585522 0.638297872,12.9014937 0.638297872,12.4849733 Z" id="Shape"></path>
                    <path d="M16,0 C15.4486443,0 15,0.448644294 15,1 C15,1.55147059 15.4486443,2 16,2 C16.5514706,2 17,1.55147059 17,1 C17,0.448644294 16.5514706,0 16,0 Z M16,1.41176471 C15.7729779,1.41176471 15.5882353,1.22702206 15.5882353,1 C15.5882353,0.772977941 15.7729779,0.588235294 16,0.588235294 C16.2270221,0.588235294 16.4117647,0.772977941 16.4117647,1 C16.4117647,1.22702206 16.2270221,1.41176471 16,1.41176471 Z" id="Shape"></path>
                    <path d="M11,6 C10.4485677,6 10,6.4486979 10,7 C10,7.55143227 10.4485677,8 11,8 C11.5514323,8 12,7.55143227 12,7 C12,6.4486979 11.5514323,6 11,6 Z M11,7.33333333 C10.8161458,7.33333333 10.6666667,7.18385413 10.6666667,7 C10.6666667,6.81627603 10.8161458,6.66666667 11,6.66666667 C11.183724,6.66666667 11.3333333,6.81627603 11.3333333,7 C11.3333333,7.18385413 11.183724,7.33333333 11,7.33333333 Z" id="Shape"></path>
                    <path d="M4,6 C4.5514323,6 5,5.5514323 5,5 C5,4.4485677 4.5514323,4 4,4 C3.4486979,4 3,4.4485677 3,5 C3,5.5514323 3.4486979,6 4,6 Z M4,4.66666667 C4.18385417,4.66666667 4.33333333,4.81614583 4.33333333,5 C4.33333333,5.18385417 4.18385417,5.33333333 4,5.33333333 C3.81627603,5.33333333 3.66666667,5.18385417 3.66666667,5 C3.66666667,4.81614583 3.81627603,4.66666667 4,4.66666667 Z" id="Shape"></path>
                    <path d="M9.5,9 C9.3685547,9 9.23964845,9.053125 9.1464844,9.1466797 C9.053125,9.23964845 9,9.3685547 9,9.5 C9,9.6316406 9.053125,9.7605469 9.1464844,9.8535156 C9.23964845,9.9464844 9.3685547,10 9.5,10 C9.63164065,10 9.7605469,9.9466797 9.85351565,9.8535156 C9.9464844,9.76015625 10,9.6316406 10,9.5 C10,9.3685547 9.9464844,9.23964845 9.85351565,9.1466797 C9.7605469,9.053125 9.63164065,9 9.5,9 Z" id="Shape"></path>
                    <path d="M11.5,3 C11.3685547,3 11.2394531,3.05351565 11.1464844,3.14648435 C11.0535156,3.23945315 11,3.3685547 11,3.5 C11,3.6314453 11.0535156,3.76054685 11.1464844,3.85351565 C11.2400391,3.94648435 11.3685547,4 11.5,4 C11.6314454,4 11.7605469,3.94648435 11.8535157,3.85351565 C11.946875,3.76054685 12,3.63203125 12,3.5 C12,3.3685547 11.946875,3.23945315 11.8535157,3.14648435 C11.7605469,3.05351565 11.6320313,3 11.5,3 Z" id="Shape"></path>
                    <path d="M3.5,2 C3.6314453,2 3.76054685,1.9466797 3.8535156,1.85351565 C3.94648435,1.76054685 4,1.63164065 4,1.5 C4,1.3685547 3.94648435,1.23964845 3.8535156,1.1466797 C3.7599609,1.05351565 3.6314453,1 3.5,1 C3.36796875,1 3.2394531,1.05351565 3.14609375,1.1466797 C3.053125,1.23964845 3,1.3685547 3,1.5 C3,1.63164065 3.053125,1.76054685 3.14609375,1.85351565 C3.2394531,1.9466797 3.36796875,2 3.5,2 Z" id="Shape"></path>
                </g>
                <g id="001-dive" transform="translate(22.000000, 13.000000) scale(1, -1) translate(-22.000000, -13.000000) translate(11.000000, 12.000000)" fill="#0C5A7D" fill-rule="nonzero">
                    <path d="M21.6777344,0 C21.1287656,0 20.8352461,0.329022556 20.5993477,0.593350042 C20.3900039,0.828003342 20.2387539,0.997493734 19.8978398,0.997493734 C19.5568398,0.997493734 19.4056328,0.828003342 19.1962891,0.593350042 C18.9604766,0.328955723 18.666957,4.74882363e-16 18.1179453,4.74882363e-16 C17.5690195,4.74882363e-16 17.2755,0.329022556 17.0396875,0.593350042 C16.8303867,0.828003342 16.6791367,0.997493734 16.3383086,0.997493734 C15.9973945,0.997493734 15.8461875,0.828003342 15.6368867,0.593350042 C15.4010742,0.329022556 15.1075977,4.74882363e-16 14.5585859,4.74882363e-16 C14.0096602,4.74882363e-16 13.7161836,0.329022556 13.4803711,0.593350042 C13.2710703,0.828003342 13.1198203,0.997493734 12.7789922,0.997493734 C12.4381641,0.997493734 12.2869141,0.828003342 12.0776133,0.593350042 C11.8418437,0.329022556 11.5483672,4.74882363e-16 10.9993984,4.74882363e-16 C10.4505156,4.74882363e-16 10.1570391,0.329022556 9.92122656,0.593350042 C9.71196875,0.828003342 9.56076172,0.997493734 9.22001953,0.997493734 C8.87914844,0.997493734 8.72794141,0.828003342 8.51864062,0.593350042 C8.28287109,0.329022556 7.98939453,4.74882363e-16 7.44046875,4.74882363e-16 C6.89154297,4.74882363e-16 6.59806641,0.329022556 6.36221094,0.593350042 C6.15291016,0.828003342 6.00166016,0.997493734 5.66083203,0.997493734 C5.32000391,0.997493734 5.16875391,0.828003342 4.95945313,0.593350042 C4.72368359,0.329022556 4.43020703,4.74882363e-16 3.88123828,4.74882363e-16 C3.33235547,4.74882363e-16 3.03887891,0.329022556 2.80302344,0.593350042 C2.59376563,0.828003342 2.44255859,0.997493734 2.10173047,0.997493734 C1.76090234,0.997493734 1.60969531,0.828003342 1.4004375,0.593350042 C1.164625,0.329022556 0.871148438,4.74882363e-16 0.322265625,4.74882363e-16 C0.144246094,4.74882363e-16 0,0.224360902 0,0.501253133 C0,0.778145363 0.144246094,1.00250627 0.322265625,1.00250627 C0.66309375,1.00250627 0.814257812,1.17199666 1.02351562,1.40664996 C1.25932812,1.67097744 1.55280469,2 2.10173047,2 C2.65065625,2 2.94408984,1.67097744 3.17994531,1.40664996 C3.38920313,1.17199666 3.54041016,1.00250627 3.88123828,1.00250627 C4.22206641,1.00250627 4.37331641,1.17199666 4.58261719,1.40664996 C4.81838672,1.67097744 5.11186328,2 5.66083203,2 C6.20980078,2 6.50323437,1.67097744 6.73904687,1.40664996 C6.94834766,1.17199666 7.09959766,1.00250627 7.44046875,1.00250627 C7.78133984,1.00250627 7.93250391,1.17199666 8.14176172,1.40664996 C8.37757422,1.67097744 8.67105078,2 9.22001953,2 C9.76885937,2 10.0623789,1.67097744 10.2981484,1.40664996 C10.5074063,1.17199666 10.6586133,1.00250627 10.9993984,1.00250627 C11.3402695,1.00250627 11.4914766,1.17199666 11.7007773,1.40664996 C11.9365469,1.67097744 12.2300234,2 12.7789922,2 C13.3279609,2 13.6213945,1.67097744 13.857207,1.40664996 C14.0665078,1.17199666 14.2177578,1.00250627 14.5585859,1.00250627 C14.899543,1.00250627 15.05075,1.17199666 15.2600508,1.40664996 C15.4958633,1.67097744 15.7893398,2 16.3383086,2 C16.8872773,2 17.1807109,1.67097744 17.4165234,1.40664996 C17.6258242,1.17199666 17.7770742,1.00250627 18.1179453,1.00250627 C18.4589023,1.00250627 18.6101094,1.17199666 18.8194531,1.40664996 C19.0553086,1.67097744 19.3488281,2 19.8978398,2 C20.4468516,2 20.7403281,1.67104428 20.9761836,1.40664996 C21.1855273,1.17199666 21.3367773,1.00250627 21.6777344,1.00250627 C21.8557539,1.00250627 22,0.778145363 22,0.501253133 C22,0.224360902 21.8557539,0 21.6777344,0 Z" id="Shape"></path>
                </g>
                <polygon id="Path-2" stroke="#0C5A7D" points="11.5 33 15 30.5 19.5 29.5 22.5 28 25.5 28 30.5 26 32.5 24 32.5 26 32.5 29.5 32.5 33"></polygon>
            </g>
        </g>
    </g>
</svg>