<?xml version="1.0" encoding="UTF-8"?>
<svg width="46px" height="46px" viewBox="0 0 46 46" version="1.1" xmlns="http://www.w3.org/2000/svg" xmlns:xlink="http://www.w3.org/1999/xlink">
    <!-- Generator: Sketch 49.3 (51167) - http://www.bohemiancoding.com/sketch -->
    <title>Soil-Icon</title>
    <desc>Created with Sketch.</desc>
    <defs></defs>
    <g id="Pa" stroke="none" stroke-width="1" fill="none" fill-rule="evenodd">
        <g id="Styleguide" transform="translate(-893.000000, -2226.000000)" fill="#FFFFFF" fill-rule="nonzero">
            <g id="Soil-Icon" transform="translate(893.000000, 2226.000000)">
                <g id="Group-4">
                    <g id="drop">
                        <path d="M23,0 C10.2974529,0 0,10.2974529 0,23 C0,35.7025471 10.2974529,46 23,46 C35.7025471,46 46,35.7025471 46,23 C45.9855994,10.3033825 35.6965677,0.0143507395 23,0 Z M23,44.4666633 C11.144296,44.4666633 1.53333666,34.855704 1.53333666,23 C1.53333666,11.144296 11.144296,1.53333666 23,1.53333666 C34.855704,1.53333666 44.4666633,11.144296 44.4666633,23 C44.4531099,34.8500733 34.8500733,44.4531099 23,44.4666633 Z" id="Shape"></path>
                    </g>
                </g>
                <g id="soil" transform="translate(9.000000, 9.000000)">
                    <path d="M21.7102676,2.7457136 C22.2517441,2.17769285 22.8536016,1.7824932 23.5073496,1.56783176 L23.2345547,0.744411663 C22.1762813,1.09189127 21.243832,1.81399158 20.4630996,2.89076363 C20.0453379,3.46676396 19.7132168,4.0854971 19.4516543,4.67556671 L19.4516543,0 L18.5806934,0 L18.5806934,4.67582919 C18.3244043,4.09814895 18.0002988,3.49306511 17.5940859,2.92761673 C16.8105059,1.83268062 15.8699355,1.09824344 14.798373,0.744516657 L14.5242598,1.56751677 C15.1785352,1.78349065 15.7798125,2.17884779 16.3200762,2.7456086 L10.6780781,2.7456086 C11.2195547,2.17758785 11.8214121,1.78238821 12.4751602,1.56772676 L12.2023652,0.744306668 C11.1440918,1.09178627 10.2116426,1.81388658 9.43091016,2.89065863 C9.01314844,3.46665897 8.68102734,4.0853921 8.41946484,4.67546171 L8.41946484,0 L7.54850391,0 L7.54850391,4.67582919 C7.29221484,4.09814895 6.96810938,3.49306511 6.56189648,2.92761673 C5.77826367,1.83278561 4.83758789,1.09824344 3.76607812,0.744569155 L3.49201758,1.56756927 C4.14629297,1.78354315 4.74757031,2.17890029 5.28783398,2.7456611 L0,2.7456611 L0,25 L4.20962695,25 L4.20962695,24.1329547 L0.870960937,24.1329547 L0.870960937,20.0990624 C1.80140625,20.1539746 2.32321289,20.3848052 2.87149219,20.6273952 C3.55524609,20.9299371 4.26236133,21.2427685 5.66124609,21.2427685 C7.06013086,21.2427685 7.76724609,20.9299371 8.451,20.6273952 C9.07943555,20.3493695 9.67301367,20.0867255 10.8870645,20.0867255 C12.1016953,20.0867255 12.6950625,20.3495795 13.3233398,20.6278152 C14.0059336,20.9301471 14.7117832,21.2427685 16.107082,21.2427685 C17.5094473,21.2427685 18.2178281,20.9297271 18.9028477,20.6269752 C19.5314941,20.349107 20.1252832,20.086673 21.3387012,20.086673 C22.5526992,20.086673 23.1463301,20.3492645 23.7747656,20.6273427 C24.3836367,20.8967588 25.0113867,21.174102 26.1290391,21.2316916 L26.1290391,24.1329022 L5.37120703,24.1329022 L5.37120703,24.9999475 L27,25 L27,2.7457136 L21.7102676,2.7457136 Z M26.1290391,20.3633863 C25.1985938,20.3084741 24.6767871,20.0776435 24.1285078,19.8350535 C23.4447012,19.5325116 22.7375859,19.2196802 21.3387012,19.2196802 C19.9406074,19.2196802 19.2333867,19.5322491 18.5494746,19.8345285 C17.9197207,20.1128692 17.324877,20.3757232 16.107082,20.3757232 C14.8967754,20.3757232 14.3044629,20.1133417 13.6773984,19.835631 C12.99375,19.5328266 12.286793,19.2196802 10.8871172,19.2196802 C9.48823242,19.2196802 8.78111719,19.5325116 8.09736328,19.8350535 C7.46892773,20.1130792 6.87534961,20.3757232 5.66129883,20.3757232 C4.44730078,20.3757232 3.85366992,20.1131317 3.22523438,19.8350535 C2.61636328,19.5656899 1.98861328,19.2883467 0.870960938,19.2307046 L0.870960938,14.3187426 C1.80140625,14.3736548 2.32321289,14.6044854 2.87149219,14.8470754 C3.55524609,15.1496173 4.26236133,15.4624487 5.66124609,15.4624487 C7.06013086,15.4624487 7.76724609,15.1496173 8.451,14.8470754 C9.07943555,14.5690497 9.67301367,14.3064057 10.8870645,14.3064057 C12.1016953,14.3064057 12.6950625,14.5692597 13.3233398,14.8474954 C14.0059336,15.1498273 14.7117832,15.4624487 16.107082,15.4624487 C17.5094473,15.4624487 18.2178281,15.1494073 18.9028477,14.8466554 C19.5314941,14.5687872 20.1252832,14.3063532 21.3387012,14.3063532 C22.5526992,14.3063532 23.1463301,14.5689447 23.7747656,14.8470229 C24.3836367,15.116439 25.0113867,15.3937822 26.1290391,15.4513718 L26.1290391,20.3633863 Z M26.1290391,5.34684964 L21.9193594,5.34684964 L21.9193594,6.21389498 L26.1290391,6.21389498 L26.1290391,9.10408114 L3.91937695,9.10408114 L3.91937695,9.97112649 L26.1290391,9.97112649 L26.1290391,14.583014 C25.1985937,14.5281018 24.6767871,14.2972712 24.1285078,14.0546812 C23.4447539,13.7521393 22.7376387,13.4393079 21.3387539,13.4393079 C19.9406602,13.4393079 19.2334395,13.7518768 18.5495273,14.0541562 C17.9197734,14.3324969 17.3249297,14.5953508 16.1071348,14.5953508 C14.8968281,14.5953508 14.3045156,14.3329694 13.6774512,14.0552587 C12.9938027,13.7524018 12.2868457,13.4393079 10.8871699,13.4393079 C9.48828516,13.4393079 8.78116992,13.7521393 8.09741602,14.0546812 C7.46898047,14.3327069 6.87540234,14.5953508 5.66135156,14.5953508 C4.44735352,14.5953508 3.85372266,14.3327594 3.22528711,14.0546812 C2.61641602,13.7853176 1.98866602,13.5079743 0.871013672,13.4503323 L0.871013672,9.97107399 L2.75811328,9.97107399 L2.75811328,9.10402864 L0.870960938,9.10402864 L0.870960938,6.21384249 L5.08064063,6.21384249 L5.08064063,5.34679714 L0.870960938,5.34679714 L0.870960938,3.61275894 L5.97891797,3.61275894 C6.82456641,4.8679168 7.26104883,6.32865407 7.44488086,7.08099283 L5.95160156,7.08099283 L5.95160156,7.94803818 L10.0161035,7.94803818 L10.0161035,7.08099283 L8.52298242,7.08099283 C8.7090293,6.32025451 9.15321094,4.83510599 10.0161035,3.57013114 L10.0161035,3.61281144 L17.0111602,3.61281144 C17.8568086,4.8679693 18.293291,6.32870657 18.477123,7.08104533 L16.9838965,7.08104533 L16.9838965,7.94809067 L21.0483984,7.94809067 L21.0483984,7.08104533 L19.5552773,7.08104533 C19.7413242,6.320307 20.1855059,4.83515849 21.0483984,3.57018364 L21.0483984,3.61286394 L26.1290391,3.61286394 L26.1290391,5.34684964 Z" id="Shape"></path>
                    <rect id="Rectangle-path" x="5" y="13" width="1" height="1"></rect>
                    <rect id="Rectangle-path" x="5" y="11" width="2" height="1"></rect>
                    <rect id="Rectangle-path" x="10" y="11" width="2" height="1"></rect>
                    <rect id="Rectangle-path" x="15" y="13" width="2" height="1"></rect>
                    <rect id="Rectangle-path" x="23" y="11" width="2" height="1"></rect>
                    <rect id="Rectangle-path" x="23" y="18" width="2" height="1"></rect>
                    <rect id="Rectangle-path" x="16" y="18" width="2" height="1"></rect>
                    <rect id="Rectangle-path" x="15" y="16" width="2" height="1"></rect>
                    <rect id="Rectangle-path" x="10" y="16" width="2" height="1"></rect>
                    <rect id="Rectangle-path" x="3" y="18" width="2" height="1"></rect>
                    <rect id="Rectangle-path" x="5" y="18" width="2" height="1"></rect>
                    <rect id="Rectangle-path" x="2" y="22" width="1" height="1"></rect>
                    <rect id="Rectangle-path" x="10" y="21" width="2" height="1"></rect>
                    <rect id="Rectangle-path" x="12" y="22" width="2" height="1"></rect>
                    <rect id="Rectangle-path" x="23" y="22" width="2" height="1"></rect>
                    <rect id="Rectangle-path" x="19" y="22" width="2" height="1"></rect>
                    <rect id="Rectangle-path" x="11" y="5" width="2" height="1"></rect>
                    <rect id="Rectangle-path" x="12" y="7" width="2" height="1"></rect>
                    <rect id="Rectangle-path" x="15" y="5" width="2" height="1"></rect>
                    <rect id="Rectangle-path" x="4" y="7" width="2" height="1"></rect>
                    <rect id="Rectangle-path" x="23" y="7" width="2" height="1"></rect>
                </g>
            </g>
        </g>
    </g>
</svg>