<?xml version="1.0" encoding="UTF-8"?>
<svg width="47px" height="47px" viewBox="0 0 47 47" version="1.1" xmlns="http://www.w3.org/2000/svg" xmlns:xlink="http://www.w3.org/1999/xlink">
    <!-- Generator: sketchtool 49.3 (51167) - http://www.bohemiancoding.com/sketch -->
    <title>92D4D5C0-C6ED-4145-8269-CC5391D87CD4</title>
    <desc>Created with sketchtool.</desc>
    <defs></defs>
    <g id="Pa" stroke="none" stroke-width="1" fill="none" fill-rule="evenodd">
        <g id="Styleguide" transform="translate(-953.000000, -1646.000000)">
            <g id="Species-icons" transform="translate(954.000000, 1647.000000)">
                <g id="Group-3" stroke="#BED73B">
                    <g id="Group">
                        <circle id="Oval-9" cx="22.5" cy="22.5" r="22.5"></circle>
                    </g>
                </g>
                <g id="dna-(1)" transform="translate(22.639155, 22.500000) rotate(-30.000000) translate(-22.639155, -22.500000) translate(9.139155, 9.000000)" fill="#BED73B" fill-rule="nonzero">
                    <path d="M26.4338947,7.02538345 C26.0453341,6.93531982 25.6585396,7.18078737 25.5684642,7.56929716 C25.5649318,7.57989288 25.5013492,7.82712639 25.3406263,8.19091283 C25.2381876,8.16618948 25.1339827,8.1538278 25.0244793,8.1538278 C24.8637565,8.1538278 24.7083322,8.18738092 24.563505,8.23682762 L18.579671,2.25730871 C18.5955667,2.17607485 18.60793,2.09307503 18.60793,2.00830925 C18.60793,1.92177753 18.5955667,1.83877771 18.579671,1.75577789 C19.0388791,1.53503369 19.3709218,1.4432041 19.4292059,1.42731052 C19.8177666,1.33901284 20.0562015,0.952268997 19.9714246,0.56199325 C19.8831154,0.173483456 19.4945547,-0.0702181413 19.1059941,0.018079539 C19.0847999,0.0233773998 18.4507395,0.180547271 17.6029709,0.662652605 C17.4722732,0.623801626 17.336277,0.595546368 17.193216,0.595546368 C16.4160947,0.595546368 15.7802682,1.22775776 15.7802682,2.0065433 C15.7802682,2.02596879 15.7855667,2.04186237 15.7855667,2.05952191 C14.9890174,2.87009461 14.2189608,3.98441134 13.7032349,5.49783358 C13.2599225,5.73623732 12.9543725,6.19891716 12.9543725,6.73753301 C12.9543725,7.04127703 13.0532789,7.3202977 13.2140017,7.54987167 C13.0214876,8.85137948 12.9932286,10.3665677 13.2157679,12.1378191 L13.3870878,13.6053266 C13.5372135,15.2370677 13.4665661,16.6657242 13.2687534,17.928381 C13.1769118,17.9442746 13.0921349,17.965466 13.0091243,17.9954873 L8.98575534,13.9744109 C9.01754667,13.8914111 9.0369747,13.8084113 9.05287036,13.7218795 C9.94832604,13.589433 11.1899539,13.5205608 12.1807836,13.5293906 L12.1807836,12.0848405 C10.856145,12.0707129 9.66220411,12.2049254 8.56893574,12.4203717 C8.32343605,12.2155211 8.01082135,12.0866065 7.66288295,12.0866065 C7.04825065,12.0866065 6.53075851,12.483946 6.33647818,13.0313917 C5.07718844,13.4781779 4.01217902,14.0344533 3.14851467,14.6066223 C3.09376294,14.5995585 3.03724503,14.5907287 2.98072711,14.5907287 C2.26188991,14.5907287 1.67551657,15.1275786 1.58544114,15.8180665 C0.636999919,16.674554 0.153065292,17.3650418 0.101845933,17.4515735 C-0.0712401747,17.7429559 -0.0164884467,18.1014445 0.211349389,18.3310184 C0.251971639,18.3698694 0.299658628,18.4087204 0.350877986,18.4422735 C0.693517832,18.6453582 1.1385964,18.5358691 1.34524001,18.19504 C1.38232989,18.1332316 1.65255616,17.7147006 2.17358067,17.1584252 C2.32017401,17.2626165 2.48619538,17.3350206 2.66634622,17.3756375 L9.80173271,24.5083242 C9.80173271,24.6195792 9.81762837,24.7255364 9.84058877,24.8261958 C9.28777294,25.3471521 8.86918715,25.6155771 8.80913687,25.654428 C8.46649702,25.8592787 8.35346119,26.302533 8.55657244,26.646894 C8.58836377,26.6998726 8.62545365,26.7475533 8.66784208,26.7881703 C8.8974461,27.0177442 9.25951398,27.0707228 9.54916829,26.8976594 C9.62511423,26.8570425 10.1567358,26.5197453 10.8508465,25.8610446 C10.9656485,25.8928318 11.085749,25.9140232 11.2111482,25.9140232 C11.9918018,25.9140232 12.624096,25.2818118 12.624096,24.5012603 C12.624096,24.2928778 12.576409,24.096857 12.4969307,23.9167297 C13.0991997,23.0319869 13.6749759,21.9282659 14.1200545,20.5861412 C14.5880934,20.3565672 14.9130714,19.8815257 14.9130714,19.3217184 C14.9130714,19.0197403 14.8159313,18.7407197 14.6534423,18.5111457 C14.9024743,17.1319359 14.9978483,15.5620032 14.8583197,13.780156 C14.8583197,13.780156 14.7611796,12.3108826 14.6993631,12.3038188 C14.47859,10.7639072 14.4573958,9.44473989 14.5704316,8.30393386 L18.6927069,12.4239036 C17.8696648,12.5069034 16.3507458,12.5210311 15.3263587,12.4380313 L16.0134046,13.9231982 C17.2850576,13.970879 18.4012864,13.8702196 19.4080117,13.6794966 C19.6464466,13.8613899 19.9413995,13.9726449 20.2610789,13.9726449 C20.8615818,13.9726449 21.3720092,13.5982628 21.5768866,13.0720086 C23.0039639,12.5069034 24.0813366,11.7404796 24.8849507,10.96346 C24.9326377,10.9669919 24.9803247,10.9775876 25.0280116,10.9775876 C25.8051329,10.9775876 26.4391933,10.3453762 26.4391933,9.56659069 C26.4391933,9.41295273 26.4109343,9.26814453 26.3650135,9.1286342 C26.799495,8.4204868 26.9778796,7.91012621 26.9831782,7.89070072 C27.0679551,7.50219092 26.8242216,7.11368113 26.4338947,7.02538345 Z M11.4142594,23.106157 L4.38307782,16.0776616 C4.38484401,16.0511723 4.39014256,16.0282149 4.39014256,16.0017256 C4.39014256,15.8869386 4.37248072,15.7756836 4.34775413,15.6697264 C4.98181446,15.2441315 5.74657247,14.8273665 6.6473267,14.4777077 C6.90518968,14.7443667 7.26372519,14.9121323 7.66288295,14.9121323 C7.67701243,14.9121323 7.6911419,14.9068344 7.7035052,14.9068344 L12.0854096,19.2916972 C12.0854096,19.300527 12.0836434,19.3111227 12.0836434,19.3199525 C12.0836434,19.9133129 12.4492437,20.4183756 12.9667358,20.6285241 C12.5834737,21.6368836 12.1242657,22.4810094 11.6544605,23.1644335 C11.5785146,23.1397101 11.4972701,23.1185187 11.4142594,23.106157 Z M15.7555416,6.47440592 C15.7149193,6.25542768 15.6195454,6.05764087 15.4888477,5.88810933 C15.8562141,4.82677121 16.3578106,4.01090064 16.8947308,3.38751902 C16.9918709,3.40694451 17.0925435,3.42107214 17.1949822,3.42107214 C17.3009533,3.42107214 17.4016258,3.40871046 17.498766,3.38575307 L23.6185962,9.50478231 C23.6185962,9.5242078 23.6115315,9.54363329 23.6115315,9.56482474 C23.6115315,9.92684523 23.7528262,10.2553126 23.9788979,10.5043121 C23.3536685,11.0358641 22.5429897,11.5320971 21.4991745,11.8994154 C21.2907647,11.5091397 20.9057364,11.2336509 20.4518269,11.1683106 L15.7555416,6.47440592 Z" id="Shape"></path>
                </g>
            </g>
        </g>
    </g>
</svg>