<?xml version="1.0" encoding="UTF-8"?>
<svg width="44px" height="44px" viewBox="0 0 44 44" version="1.1" xmlns="http://www.w3.org/2000/svg" xmlns:xlink="http://www.w3.org/1999/xlink">
    <!-- Generator: Sketch 49.3 (51167) - http://www.bohemiancoding.com/sketch -->
    <title>Water-icon</title>
    <desc>Created with Sketch.</desc>
    <defs></defs>
    <g id="Pa" stroke="none" stroke-width="1" fill="none" fill-rule="evenodd">
        <g id="Styleguide" transform="translate(-895.000000, -2293.000000)" fill="#000000" fill-rule="nonzero">
            <g id="Water-icon" transform="translate(895.000000, 2293.000000)">
                <g id="drop">
                    <path d="M21.4674771,6.25968963 C21.0404073,6.87181378 11,21.3223637 11,27.1142368 C11,33.1262715 15.9248647,38 21.999979,38 C28.0750932,38 33,33.1263131 33,27.1142368 C33,21.3223637 22.9595927,6.87181378 22.5325229,6.25964801 C22.3064767,5.9686102 21.88479,5.91400679 21.5906986,6.13770596 C21.54448,6.17291517 21.5030136,6.21390934 21.4674771,6.25968963 Z M21.5,37 C16.2557336,36.9939973 12.0059275,32.6902533 12,27.3795205 C12,22.6975669 19.4416783,11.114466 21.5,8 C23.5583217,11.114466 31,22.6975669 31,27.3795205 C30.9940725,32.6902533 26.7442252,36.9939973 21.5,37 Z" id="Shape"></path>
                    <path d="M20,35 C24.9682279,34.9942855 28.9942855,30.9681627 29,26 L27.6153846,26 C27.6104351,30.2038127 24.2037917,33.6104281 20,33.6154227 L20,35 Z" id="Shape"></path>
                    <path d="M22,0 C9.84973753,0 0,9.84973753 0,22 C0,34.1502625 9.84973753,44 22,44 C34.1502625,44 44,34.1502625 44,22 C43.9862255,9.85540937 34.144543,0.0137267943 22,0 Z M22,42.5333302 C10.6597614,42.5333302 1.46666984,33.3402386 1.46666984,22 C1.46666984,10.6597614 10.6597614,1.46666984 22,1.46666984 C33.3402386,1.46666984 42.5333302,10.6597614 42.5333302,22 C42.520366,33.3348528 33.3348528,42.520366 22,42.5333302 Z" id="Shape"></path>
                </g>
            </g>
        </g>
    </g>
</svg>