<?xml version="1.0" standalone="no"?>
<!DOCTYPE svg PUBLIC "-//W3C//DTD SVG 20010904//EN"
 "http://www.w3.org/TR/2001/REC-SVG-20010904/DTD/svg10.dtd">
<svg version="1.0" xmlns="http://www.w3.org/2000/svg"
 width="816.000000pt" height="816.000000pt" viewBox="0 0 816.000000 816.000000"
 preserveAspectRatio="xMidYMid meet">
<metadata>
Created by potrace 1.11, written by Peter Selinger 2001-2013
</metadata>
<g transform="translate(0.000000,816.000000) scale(0.100000,-0.100000)"
fill="#000000" stroke="none">
<path d="M0 7437 l0 -602 4045 -1 4045 0 1 26 c0 32 0 1151 -1 1168 0 9 -816
12 -4045 12 l-4045 0 0 -603z"/>
<path d="M5 5797 c-3 -6 -4 -280 -3 -607 l3 -594 3428 -1 c2274 0 3431 3 3437
10 10 13 18 95 8 95 -3 0 -3 14 2 30 5 17 5 30 2 30 -9 0 -7 64 2 79 4 5 2 12
-4 16 -6 4 -7 12 -1 24 5 9 6 23 2 30 -5 7 -5 30 -1 51 4 21 3 45 -2 53 -5 9
-4 18 2 22 7 4 7 12 0 24 -5 10 -7 21 -3 25 7 7 10 76 3 76 -7 0 -4 66 3 77 3
5 2 15 -3 23 -4 7 -5 23 0 35 4 11 4 28 -1 37 -6 11 -5 19 1 23 7 4 7 12 0 24
-5 10 -7 21 -3 25 7 7 10 76 3 76 -7 0 -4 66 3 77 3 5 2 15 -3 23 -4 7 -5 23
0 35 5 12 4 28 0 35 -5 8 -4 22 1 31 6 11 5 20 -1 24 -5 3 -6 15 0 29 4 12 4
29 0 36 -5 8 -6 18 -4 22 6 9 7 9 -161 12 -71 1 -140 -2 -153 -6 -13 -4 -21
-5 -19 0 4 6 -378 8 -393 2 -3 -1 -9 -1 -15 0 -30 6 -162 4 -159 -2 3 -4 -3
-5 -12 -1 -24 9 -335 10 -362 1 -13 -4 -21 -5 -19 0 4 6 -378 8 -393 2 -3 -1
-9 -1 -15 0 -30 6 -162 4 -159 -2 3 -4 -3 -5 -12 -1 -24 9 -335 10 -362 1 -13
-4 -21 -5 -19 0 4 6 -378 8 -393 2 -3 -1 -9 -1 -15 0 -30 6 -162 4 -159 -2 3
-4 -3 -5 -12 -1 -24 9 -335 10 -362 1 -13 -4 -21 -5 -19 0 4 6 -378 8 -393 2
-3 -1 -9 -1 -15 0 -30 6 -162 4 -159 -2 3 -4 -3 -5 -12 -1 -24 9 -335 10 -362
1 -13 -4 -21 -5 -19 0 4 6 -218 8 -233 2 -3 -1 -9 -1 -15 0 -30 6 -162 4 -159
-2 3 -4 -2 -5 -10 -2 -23 9 -127 10 -132 2 -3 -4 -11 -5 -19 -2 -22 9 -164 10
-159 2 3 -4 -2 -5 -10 -2 -23 9 -127 10 -132 2 -3 -4 -11 -5 -19 -2 -22 9
-164 10 -159 2 3 -4 -2 -5 -10 -2 -23 9 -127 10 -132 2 -3 -4 -11 -5 -19 -2
-22 9 -164 10 -159 2 3 -4 -2 -5 -10 -2 -23 9 -127 10 -132 2 -3 -4 -11 -5
-19 -2 -22 9 -164 10 -159 2 3 -4 -2 -5 -10 -2 -23 9 -127 10 -132 2 -3 -4
-11 -5 -19 -2 -22 9 -164 10 -159 2 3 -4 -2 -5 -10 -2 -23 9 -127 10 -132 2
-3 -4 -11 -5 -19 -2 -22 9 -164 10 -159 2 3 -4 -2 -5 -10 -2 -23 9 -127 10
-132 2 -3 -4 -11 -5 -19 -2 -23 9 -164 10 -158 2 2 -5 -8 -4 -22 2 -19 7 -27
6 -30 -3z"/>
<path d="M17 3562 c-16 -3 -17 -50 -17 -605 l0 -602 3437 0 3437 0 7 32 c3 17
3 37 -2 44 -4 7 -3 21 2 30 6 11 5 20 -1 24 -6 4 -7 13 -1 23 6 11 6 24 0 34
-6 10 -5 26 1 42 5 15 6 26 0 26 -5 0 -5 12 0 30 5 17 5 30 1 30 -4 0 -4 25
-1 55 3 30 3 55 -1 55 -4 0 -4 14 1 30 5 17 5 30 2 30 -9 0 -7 64 2 79 4 5 2
12 -4 16 -6 4 -7 12 -1 24 5 9 6 23 2 30 -5 7 -5 30 -1 51 4 21 3 45 -2 53 -5
9 -4 18 2 22 7 4 7 12 0 24 -5 10 -7 21 -3 25 7 7 10 76 3 76 -7 0 -4 66 3 77
3 5 2 15 -3 23 -4 7 -5 23 0 35 5 12 4 28 0 35 -5 8 -4 22 1 31 6 11 5 20 -1
24 -5 3 -6 15 -1 28 10 26 -3 67 -21 68 -55 2 -6828 3 -6841 1z"/>
<path d="M0 723 l0 -603 4045 0 4045 0 1 23 c0 26 0 1084 -1 1142 l0 41 -4045
-1 -4045 0 0 -602z"/>
</g>
</svg>
