<svg xmlns="http://www.w3.org/2000/svg" viewBox="0 0 299.27 99"><defs><style>.cls-1{fill:#fff;}</style></defs><title>Asset 6</title><g id="Layer_2" data-name="Layer 2"><g id="Layer_1-2" data-name="Layer 1"><rect class="cls-1" width="101.15" height="15.07"/><rect class="cls-1" y="27.98" width="86" height="15.07"/><rect class="cls-1" y="83.93" width="101.15" height="15.07"/><rect class="cls-1" y="55.98" width="86" height="15.07"/><path class="cls-1" d="M140.69,61.89v4.72H121.18V32.9h19.26v4.72H126.19v8h13.15v4.72H126.19V61.89Z"/><path class="cls-1" d="M173.63,66.61h-5.25L151.81,41.42h-.1V66.61h-5V32.9H152l16.57,25.19h.09V32.9h5Z"/><path class="cls-1" d="M187.83,65.11a16,16,0,0,1-6.38-6.19,18.06,18.06,0,0,1-2.29-9.17,18.06,18.06,0,0,1,2.29-9.17,16,16,0,0,1,6.38-6.19,19.41,19.41,0,0,1,9.39-2.22,19.83,19.83,0,0,1,11.89,3.71L206,40.26a15,15,0,0,0-9-3,13,13,0,0,0-6.33,1.54,11.18,11.18,0,0,0-4.43,4.38,13,13,0,0,0-1.61,6.55,13,13,0,0,0,1.61,6.55,11.17,11.17,0,0,0,4.43,4.38A13,13,0,0,0,197,62.22a15,15,0,0,0,9-3l3.08,4.38a19.83,19.83,0,0,1-11.89,3.71A19.41,19.41,0,0,1,187.83,65.11Z"/><path class="cls-1" d="M237.12,34.41a16.27,16.27,0,0,1,6.31,6.24,18,18,0,0,1,2.28,9.1,18,18,0,0,1-2.28,9.1,16.27,16.27,0,0,1-6.31,6.24,19.13,19.13,0,0,1-18,0,16.24,16.24,0,0,1-6.31-6.24,18,18,0,0,1-2.29-9.1,18,18,0,0,1,2.29-9.1,16.24,16.24,0,0,1,6.31-6.24,19.13,19.13,0,0,1,18,0Zm-15.24,4.48a11.32,11.32,0,0,0-4.29,4.45,14.09,14.09,0,0,0,0,12.81,11.31,11.31,0,0,0,4.29,4.45,12.95,12.95,0,0,0,12.52,0,11.3,11.3,0,0,0,4.28-4.45,14.09,14.09,0,0,0,0-12.81,11.31,11.31,0,0,0-4.28-4.45,12.95,12.95,0,0,0-12.52,0Z"/><path class="cls-1" d="M259.3,52.59h-3v14h-5V32.9h11.51a11.47,11.47,0,0,1,5.32,1.2,9,9,0,0,1,3.66,3.44,10.18,10.18,0,0,1,1.32,5.27,9.28,9.28,0,0,1-7.85,9.58l10.21,14.21h-6.31Zm-3-4.72h5.68a6,6,0,0,0,4.31-1.37,4.9,4.9,0,0,0,1.42-3.69A5.12,5.12,0,0,0,266.26,39a5.87,5.87,0,0,0-4.31-1.42h-5.68Z"/><path class="cls-1" d="M299.27,61.89v4.72H279.76V32.9H299v4.72H284.77v8h13.15v4.72H284.77V61.89Z"/></g></g></svg>