<svg id="Calque_1" data-name="Calque 1" xmlns="http://www.w3.org/2000/svg" viewBox="0 0 269.29 170.08"><defs><style>.cls-1{fill:#fff;}</style></defs><title>MAVA-LOGO</title><path class="cls-1" d="M35.51,146h5.66v1.17H36.79v3.07h4.38v1.19H36.79v5.29H35.51Z"/><path class="cls-1" d="M52.79,155.39a5.81,5.81,0,0,1-8.11,0,5.57,5.57,0,0,1,0-8,5.86,5.86,0,0,1,8.11,0,5.59,5.59,0,0,1,0,8Zm-1-.86a4.33,4.33,0,0,0,1.29-3.12,4.4,4.4,0,0,0-1.29-3.15,4.38,4.38,0,0,0-6.21,0,4.43,4.43,0,0,0-1.29,3.15,4.35,4.35,0,0,0,1.29,3.12,4.33,4.33,0,0,0,6.21,0Z"/><path class="cls-1" d="M56.92,145.61l7.84,8.56V146H66v11.14l-7.85-8.47v8.05H56.92Z"/><path class="cls-1" d="M68.92,146h2c2,0,3.56,0,4.86,1a6,6,0,0,1,0,8.72c-1.24,1-2.65,1-4.39,1H68.92Zm2.1,9.52c1.83,0,3.1,0,4-.76a4.24,4.24,0,0,0,1.35-3.41A4.18,4.18,0,0,0,75,148c-.88-.75-2.16-.78-4-.78h-.81v8.34Z"/><path class="cls-1" d="M88.15,156.75H86.78l-1.4-3.28H81.19l-1.39,3.28H78.42l4.86-11.14Zm-6.58-4.38H85l-1.71-3.94Z"/><path class="cls-1" d="M90.68,147.24h-3V146H95v1.21H92v9.51H90.68Z"/><path class="cls-1" d="M96.8,146h1.28v10.72H96.8Z"/><path class="cls-1" d="M110.34,155.39a5.81,5.81,0,0,1-8.11,0,5.57,5.57,0,0,1,0-8,5.86,5.86,0,0,1,8.11,0,5.59,5.59,0,0,1,0,8Zm-1-.86a4.33,4.33,0,0,0,1.29-3.12,4.4,4.4,0,0,0-1.29-3.15,4.38,4.38,0,0,0-6.21,0,4.47,4.47,0,0,0-1.29,3.15,4.39,4.39,0,0,0,1.29,3.12,4.33,4.33,0,0,0,6.21,0Z"/><path class="cls-1" d="M114.47,145.61l7.84,8.56V146h1.22v11.14l-7.85-8.47v8.05h-1.21Z"/><path class="cls-1" d="M132.51,156.75h-1.24V146h2.25a4.5,4.5,0,0,1,2.7.54,3.22,3.22,0,0,1,0,4.83,4.47,4.47,0,0,1-2.7.54h-1Zm.65-6c1.85,0,2.77-.24,2.77-1.72s-.91-1.86-2.77-1.86h-.65v3.58Z"/><path class="cls-1" d="M148.56,155.39a5.81,5.81,0,0,1-8.11,0,5.57,5.57,0,0,1,0-8,5.86,5.86,0,0,1,8.11,0,5.59,5.59,0,0,1,0,8Zm-1-.86a4.33,4.33,0,0,0,1.29-3.12,4.4,4.4,0,0,0-1.29-3.15,4.38,4.38,0,0,0-6.21,0,4.43,4.43,0,0,0-1.29,3.15,4.35,4.35,0,0,0,1.29,3.12,4.33,4.33,0,0,0,6.21,0Z"/><path class="cls-1" d="M153.93,146v6.67c0,2.15.87,3.15,2.87,3.15s2.86-1,2.86-3.15V146H161v6.67c0,2.9-1.36,4.34-4.15,4.34s-4.15-1.44-4.15-4.34V146Z"/><path class="cls-1" d="M163.86,146h2.52a3.76,3.76,0,0,1,2.46.54,2.94,2.94,0,0,1,1,2.38c0,1.76-1,2.69-2.9,2.69h-.22l4.09,5.11H169.2l-3.91-5.11h-.18v5.11h-1.25Zm1.25,4.66h1c1.68,0,2.51-.24,2.51-1.72s-.81-1.86-2.51-1.86h-1Z"/><path class="cls-1" d="M177.06,146h1.28v9.51h4v1.21h-5.33Z"/><path class="cls-1" d="M192.54,156.75h-1.38l-1.39-3.28h-4.19l-1.39,3.28h-1.38l4.86-11.14ZM186,152.37h3.42l-1.71-3.94Z"/><path class="cls-1" d="M198.83,145.61l7.84,8.56V146h1.22v11.14L200,148.7v8.05h-1.21Z"/><path class="cls-1" d="M219.09,156.75h-1.38l-1.39-3.28h-4.19l-1.39,3.28h-1.38l4.86-11.14Zm-6.58-4.38h3.42l-1.71-3.94Z"/><path class="cls-1" d="M221.62,147.24h-3V146h7.33v1.21h-3v9.51h-1.29Z"/><path class="cls-1" d="M229,146v6.67c0,2.15.87,3.15,2.86,3.15s2.87-1,2.87-3.15V146H236v6.67c0,2.9-1.37,4.34-4.16,4.34s-4.15-1.44-4.15-4.34V146Z"/><path class="cls-1" d="M238.9,146h2.52a3.76,3.76,0,0,1,2.46.54,3,3,0,0,1,1,2.38c0,1.76-1,2.69-2.89,2.69h-.23l4.1,5.11h-1.62l-3.92-5.11h-.18v5.11H238.9Zm1.24,4.66h1c1.68,0,2.5-.24,2.5-1.72s-.81-1.86-2.5-1.86h-1Z"/><path class="cls-1" d="M247.3,146H253v1.17h-4.38v3.07H253v1.19h-4.38v4.11H253v1.18H247.3Z"/><path class="cls-1" d="M35.51,146h5.66v1.17H36.79v3.07h4.38v1.19H36.79v5.29H35.51Z"/><path class="cls-1" d="M52.79,155.39a5.81,5.81,0,0,1-8.11,0,5.57,5.57,0,0,1,0-8,5.86,5.86,0,0,1,8.11,0,5.59,5.59,0,0,1,0,8Zm-1-.86a4.33,4.33,0,0,0,1.29-3.12,4.4,4.4,0,0,0-1.29-3.15,4.38,4.38,0,0,0-6.21,0,4.43,4.43,0,0,0-1.29,3.15,4.35,4.35,0,0,0,1.29,3.12,4.33,4.33,0,0,0,6.21,0Z"/><path class="cls-1" d="M56.92,145.61l7.84,8.56V146H66v11.14l-7.85-8.47v8.05H56.92Z"/><path class="cls-1" d="M68.92,146h2c2,0,3.56,0,4.86,1a6,6,0,0,1,0,8.72c-1.24,1-2.65,1-4.39,1H68.92Zm2.1,9.52c1.83,0,3.1,0,4-.76a4.24,4.24,0,0,0,1.35-3.41A4.18,4.18,0,0,0,75,148c-.88-.75-2.16-.78-4-.78h-.81v8.34Z"/><path class="cls-1" d="M88.15,156.75H86.78l-1.4-3.28H81.19l-1.39,3.28H78.42l4.86-11.14Zm-6.58-4.38H85l-1.71-3.94Z"/><path class="cls-1" d="M90.68,147.24h-3V146H95v1.21H92v9.51H90.68Z"/><path class="cls-1" d="M96.8,146h1.28v10.72H96.8Z"/><path class="cls-1" d="M110.34,155.39a5.81,5.81,0,0,1-8.11,0,5.57,5.57,0,0,1,0-8,5.86,5.86,0,0,1,8.11,0,5.59,5.59,0,0,1,0,8Zm-1-.86a4.33,4.33,0,0,0,1.29-3.12,4.4,4.4,0,0,0-1.29-3.15,4.38,4.38,0,0,0-6.21,0,4.47,4.47,0,0,0-1.29,3.15,4.39,4.39,0,0,0,1.29,3.12,4.33,4.33,0,0,0,6.21,0Z"/><path class="cls-1" d="M114.47,145.61l7.84,8.56V146h1.22v11.14l-7.85-8.47v8.05h-1.21Z"/><path class="cls-1" d="M132.51,156.75h-1.24V146h2.25a4.5,4.5,0,0,1,2.7.54,3.22,3.22,0,0,1,0,4.83,4.47,4.47,0,0,1-2.7.54h-1Zm.65-6c1.85,0,2.77-.24,2.77-1.72s-.91-1.86-2.77-1.86h-.65v3.58Z"/><path class="cls-1" d="M148.56,155.39a5.81,5.81,0,0,1-8.11,0,5.57,5.57,0,0,1,0-8,5.86,5.86,0,0,1,8.11,0,5.59,5.59,0,0,1,0,8Zm-1-.86a4.33,4.33,0,0,0,1.29-3.12,4.4,4.4,0,0,0-1.29-3.15,4.38,4.38,0,0,0-6.21,0,4.43,4.43,0,0,0-1.29,3.15,4.35,4.35,0,0,0,1.29,3.12,4.33,4.33,0,0,0,6.21,0Z"/><path class="cls-1" d="M153.93,146v6.67c0,2.15.87,3.15,2.87,3.15s2.86-1,2.86-3.15V146H161v6.67c0,2.9-1.36,4.34-4.15,4.34s-4.15-1.44-4.15-4.34V146Z"/><path class="cls-1" d="M163.86,146h2.52a3.76,3.76,0,0,1,2.46.54,2.94,2.94,0,0,1,1,2.38c0,1.76-1,2.69-2.9,2.69h-.22l4.09,5.11H169.2l-3.91-5.11h-.18v5.11h-1.25Zm1.25,4.66h1c1.68,0,2.51-.24,2.51-1.72s-.81-1.86-2.51-1.86h-1Z"/><path class="cls-1" d="M177.06,146h1.28v9.51h4v1.21h-5.33Z"/><path class="cls-1" d="M192.54,156.75h-1.38l-1.39-3.28h-4.19l-1.39,3.28h-1.38l4.86-11.14ZM186,152.37h3.42l-1.71-3.94Z"/><path class="cls-1" d="M198.83,145.61l7.84,8.56V146h1.22v11.14L200,148.7v8.05h-1.21Z"/><path class="cls-1" d="M219.09,156.75h-1.38l-1.39-3.28h-4.19l-1.39,3.28h-1.38l4.86-11.14Zm-6.58-4.38h3.42l-1.71-3.94Z"/><path class="cls-1" d="M221.62,147.24h-3V146h7.33v1.21h-3v9.51h-1.29Z"/><path class="cls-1" d="M229,146v6.67c0,2.15.87,3.15,2.86,3.15s2.87-1,2.87-3.15V146H236v6.67c0,2.9-1.37,4.34-4.16,4.34s-4.15-1.44-4.15-4.34V146Z"/><path class="cls-1" d="M238.9,146h2.52a3.76,3.76,0,0,1,2.46.54,3,3,0,0,1,1,2.38c0,1.76-1,2.69-2.89,2.69h-.23l4.1,5.11h-1.62l-3.92-5.11h-.18v5.11H238.9Zm1.24,4.66h1c1.68,0,2.5-.24,2.5-1.72s-.81-1.86-2.5-1.86h-1Z"/><path class="cls-1" d="M247.3,146H253v1.17h-4.38v3.07H253v1.19h-4.38v4.11H253v1.18H247.3Z"/><path class="cls-1" d="M77.24,53c-14.49,0-27.32,2.36-39.09,7.16a35.28,35.28,0,0,0,65.16-5A176.06,176.06,0,0,0,77.24,53Z"/><path class="cls-1" d="M69.71,9.1a35.24,35.24,0,0,0-34,44.72c21.69-9.31,45.7-11,69.06-12.91A35.27,35.27,0,0,0,69.71,9.1Z"/><path class="cls-1" d="M266.35,40.43c-49.59,34.47-98.52,7.33-148.87-1.94C89.17,33.28,60.4,33.71,30.81,53.93A152.9,152.9,0,0,0,3.54,78.29c-.61.69-.29,1,.38.41,10.16-9.17,18.92-16,28.89-20.62,26.24-12.1,54-10.32,81.63-5.17C169.49,63.15,224.3,86.7,266.63,40.69,267,40.27,266.83,40.1,266.35,40.43Z"/><path class="cls-1" d="M205.42,140.67l7-15.54h23.9l6.84,15.54h10.39L225.44,80.29h-2.2l-28.12,60.38Zm16.81-37.5a47.69,47.69,0,0,0,2.19-6.84,59.61,59.61,0,0,0,2.28,6.84l6.17,13.77H216.06Z"/><path class="cls-1" d="M49.72,110.94a45,45,0,0,0,1.1-8.36,46.17,46.17,0,0,0,3,7.69l14.61,30.4h2.38l14.59-29.73a31.14,31.14,0,0,0,2.78-8.36c.59,4.48.85,7.18,1.1,8.28l6.67,29.81H105L91,80.29H89.34L73,115.84c-.93,2.11-2.28,4.81-3.46,8.19-1.69-4.39-2.79-7.09-3.3-8.19L49.57,80.29H47.92L34.19,140.67h9Z"/><path class="cls-1" d="M181.43,140.67l25.92-60.38H197.21L183.7,112.46a63.6,63.6,0,0,0-3.29,9.71,51.52,51.52,0,0,0-3.21-9.71L163.69,80.29H153.47l25.93,60.38Z"/><path class="cls-1" d="M124.58,125.13h23.89l6.85,15.54H165.7L137.59,80.29h-2.21l-28.11,60.38h10.3Zm9.79-22a46.25,46.25,0,0,0,2.2-6.84,55.9,55.9,0,0,0,2.28,6.84L145,116.94h-16.8Z"/></svg>