<?xml version="1.0" encoding="UTF-8"?>
<svg width="236px" height="79px" viewBox="0 0 236 79" version="1.1" xmlns="http://www.w3.org/2000/svg" xmlns:xlink="http://www.w3.org/1999/xlink">
    <!-- Generator: Sketch 49.3 (51167) - http://www.bohemiancoding.com/sketch -->
    <title>Page 1</title>
    <desc>Created with Sketch.</desc>
    <defs>
        <polygon id="path-1" points="0 79 235.485857 79 235.485857 0 0 0"></polygon>
    </defs>
    <g id="Pa" stroke="none" stroke-width="1" fill="none" fill-rule="evenodd">
        <g id="Homepage-(D)" transform="translate(-559.000000, -345.000000)">
            <g id="Page-1" transform="translate(559.000000, 345.000000)">
                <polygon id="Fill-1" fill="#C6D31A" points="0 79 14 79 14 0 0 0"></polygon>
                <polygon id="Fill-2" fill="#929C46" points="14 79 21 79 21 0 14 0"></polygon>
                <polygon id="Fill-3" fill="#806222" points="21 79 32 79 32 0 21 0"></polygon>
                <polygon id="Fill-4" fill="#C8B569" points="32 79 42 79 42 0 32 0"></polygon>
                <polygon id="Fill-5" fill="#6A4F21" points="42 79 51 79 51 0 42 0"></polygon>
                <polygon id="Fill-6" fill="#41ADE3" points="51 79 62 79 62 0 51 0"></polygon>
                <polygon id="Fill-7" fill="#FFFFFF" points="83.0945459 27 75.9054541 15.7473461 75.9054541 27 73 27 73 11 75.9054541 11 83.1170823 22.2747346 83.1170823 11 86 11 86 27"></polygon>
                <g id="Group-81">
                    <path d="M95.5058286,23.7766468 L95.5058286,21.5797745 L94.0873,21.5797745 C92.1681143,21.5797745 91.2081,22.3193489 91.2081,23.5262 C91.2081,24.4506681 91.8520429,25.1465404 93.0295143,25.1465404 C94.2297429,25.1465404 95.1459286,24.4725191 95.5058286,23.7766468 M98.6682286,26.9089128 L98.6682286,27.092966 L95.8986,27.092966 C95.7679571,26.810583 95.6693429,26.4189447 95.6036,25.9953702 C94.9166714,26.7122532 93.8917571,27.3106362 92.5061,27.3106362 C90.1612714,27.3106362 88.4932571,25.7987106 88.4932571,23.7875723 C88.4932571,21.2747 90.4453143,19.9056468 93.8698429,19.9056468 L95.5058286,19.9056468 L95.5058286,19.1433809 C95.5058286,17.9365298 94.8399714,17.1540936 93.4770714,17.1540936 C92.2448143,17.1540936 91.4592714,17.8390404 91.4592714,18.7307319 L88.7444286,18.7307319 C88.7444286,16.8607851 90.6417,15.1093383 93.6296286,15.1093383 C96.2913714,15.1093383 98.2215143,16.4582213 98.2215143,19.1660723 L98.2215143,24.3531787 C98.2215143,25.4398489 98.3740714,26.2886787 98.6682286,26.9089128" id="Fill-8" fill="#FFFFFF"></path>
                    <path d="M106.477384,24.9617309 L106.477384,27.0493479 C106.052584,27.1905394 105.485341,27.3107202 104.710756,27.3107202 C102.911256,27.3107202 101.613256,26.4190287 101.613256,23.9826351 L101.613256,17.3281457 L99.69407,17.3281457 L99.69407,15.3270926 L101.613256,15.3270926 L101.613256,12.4561989 L104.328941,12.4561989 L104.328941,15.3270926 L106.401527,15.3270926 L106.401527,17.3281457 L104.328941,17.3281457 L104.328941,23.7977415 C104.328941,24.853316 104.819484,25.0701457 105.550241,25.0701457 C105.910141,25.0701457 106.280999,25.005433 106.477384,24.9617309" id="Fill-10" fill="#FFFFFF"></path>
                    <path d="M118.168319,15.3268404 L118.168319,27.0927979 L115.60519,27.0927979 L115.54029,25.9296489 C114.809533,26.7994894 113.718876,27.3104681 112.235447,27.3104681 C109.912533,27.3104681 108.331333,26.0489894 108.331333,22.9276489 L108.331333,15.3268404 L111.047019,15.3268404 L111.047019,22.9503404 C111.047019,24.6034574 111.897461,25.0925851 112.889504,25.0925851 C114.220376,25.0925851 115.016876,24.580766 115.442519,23.7655532 L115.442519,15.3268404 L118.168319,15.3268404 Z" id="Fill-12" fill="#FFFFFF"></path>
                    <path d="M127.078414,15.250866 L127.057343,17.8066 C126.718514,17.7519723 126.3367,17.7191957 125.9768,17.7191957 C124.722629,17.7191957 123.926971,18.2192489 123.5342,19.0680787 L123.5342,27.0933021 L120.818514,27.0933021 L120.818514,15.3265043 L123.403557,15.3265043 L123.479414,16.6535362 C124.057614,15.6962915 124.940929,15.1096745 126.1302,15.1096745 C126.434471,15.1096745 126.892986,15.1743872 127.078414,15.250866" id="Fill-14" fill="#FFFFFF"></path>
                    <path d="M135.149783,23.7766468 L135.149783,21.5797745 L133.731254,21.5797745 C131.812069,21.5797745 130.852054,22.3193489 130.852054,23.5262 C130.852054,24.4506681 131.495997,25.1465404 132.673469,25.1465404 C133.873697,25.1465404 134.78904,24.4725191 135.149783,23.7766468 M138.312183,26.9089128 L138.312183,27.092966 L135.542554,27.092966 C135.411911,26.810583 135.312454,26.4189447 135.247554,25.9953702 C134.560626,26.7122532 133.535711,27.3106362 132.150054,27.3106362 C129.805226,27.3106362 128.137211,25.7987106 128.137211,23.7875723 C128.137211,21.2747 130.089269,19.9056468 133.513797,19.9056468 L135.149783,19.9056468 L135.149783,19.1433809 C135.149783,17.9365298 134.484769,17.1540936 133.121026,17.1540936 C131.888769,17.1540936 131.103226,17.8390404 131.103226,18.7307319 L128.388383,18.7307319 C128.388383,16.8607851 130.285654,15.1093383 133.273583,15.1093383 C135.935326,15.1093383 137.865469,16.4582213 137.865469,19.1660723 L137.865469,24.3531787 C137.865469,25.4398489 138.017183,26.2886787 138.312183,26.9089128" id="Fill-16" fill="#FFFFFF"></path>
                    <mask id="mask-2" fill="white">
                        <use xlink:href="#path-1"></use>
                    </mask>
                    <g id="Clip-19"></g>
                    <polygon id="Fill-18" fill="#FFFFFF" mask="url(#mask-2)" points="140.766414 27.0927979 143.4821 27.0927979 143.4821 10.3893404 140.766414 10.3893404"></polygon>
                    <path d="M158.062433,27.3106362 C154.125447,27.3106362 151.639019,24.3859553 151.639019,19.807317 L151.639019,18.5567638 C151.639019,13.9781255 154.180233,11.0425191 158.172004,11.0425191 C161.999419,11.0425191 163.995304,13.3368809 164.312219,16.5120085 L161.497919,16.5120085 C161.269504,14.5117957 160.440133,13.3259553 158.172004,13.3259553 C155.717604,13.3259553 154.485347,15.1959021 154.485347,18.5349128 L154.485347,19.807317 C154.485347,22.9824447 155.521219,25.0272 158.062433,25.0272 C160.38619,25.0272 161.236633,23.9287638 161.486961,21.9167851 L164.300419,21.9167851 C164.028176,25.0272 161.956433,27.3106362 158.062433,27.3106362" id="Fill-20" fill="#FFFFFF" mask="url(#mask-2)"></path>
                    <path d="M173.11367,23.7766468 L173.11367,21.5797745 L171.695141,21.5797745 C169.775956,21.5797745 168.815941,22.3193489 168.815941,23.5262 C168.815941,24.4506681 169.459884,25.1465404 170.637356,25.1465404 C171.836741,25.1465404 172.75377,24.4725191 173.11367,23.7766468 M176.27607,26.9089128 L176.27607,27.092966 L173.506441,27.092966 C173.375799,26.810583 173.277184,26.4189447 173.211441,25.9953702 C172.524513,26.7122532 171.499599,27.3106362 170.113941,27.3106362 C167.769113,27.3106362 166.101099,25.7987106 166.101099,23.7875723 C166.101099,21.2747 168.053156,19.9056468 171.477684,19.9056468 L173.11367,19.9056468 L173.11367,19.1433809 C173.11367,17.9365298 172.447813,17.1540936 171.084913,17.1540936 C169.852656,17.1540936 169.067113,17.8390404 169.067113,18.7307319 L166.35227,18.7307319 C166.35227,16.8607851 168.249541,15.1093383 171.23747,15.1093383 C173.899213,15.1093383 175.829356,16.4582213 175.829356,19.1660723 L175.829356,24.3531787 C175.829356,25.4398489 175.981913,26.2886787 176.27607,26.9089128" id="Fill-21" fill="#FFFFFF" mask="url(#mask-2)"></path>
                    <path d="M186.223301,21.0903947 C186.223301,19.0027777 185.437759,17.316884 183.561559,17.316884 C182.427073,17.316884 181.697159,17.8278628 181.271516,18.6329904 L181.271516,23.7873202 C181.697159,24.6033734 182.406001,25.1353628 183.583473,25.1353628 C185.459673,25.1353628 186.223301,23.3956819 186.223301,21.31815 L186.223301,21.0903947 Z M188.938987,21.0903947 L188.938987,21.31815 C188.938987,24.7445649 187.302159,27.310384 184.346259,27.310384 C183.027187,27.310384 182.01323,26.8431074 181.271516,26.0388202 L181.271516,31.6167245 L178.55583,31.6167245 L178.55583,15.3267564 L181.053216,15.3267564 L181.162787,16.5125968 C181.915459,15.6099798 182.950487,15.1090862 184.31423,15.1090862 C187.313116,15.1090862 188.938987,17.5127032 188.938987,21.0903947 Z" id="Fill-22" fill="#FFFFFF" mask="url(#mask-2)"></path>
                    <path d="M191.304971,27.0927979 L194.020657,27.0927979 L194.020657,15.3268404 L191.304971,15.3268404 L191.304971,27.0927979 Z M194.206086,12.2710532 C194.206086,13.086266 193.627886,13.6955745 192.667871,13.6955745 C191.697743,13.6955745 191.1305,13.086266 191.1305,12.2710532 C191.1305,11.4440745 191.697743,10.8246809 192.667871,10.8246809 C193.627886,10.8246809 194.206086,11.4440745 194.206086,12.2710532 Z" id="Fill-23" fill="#FFFFFF" mask="url(#mask-2)"></path>
                    <path d="M202.397224,24.9617309 L202.397224,27.0493479 C201.971581,27.1905394 201.404339,27.3107202 200.629753,27.3107202 C198.831096,27.3107202 197.533096,26.4190287 197.533096,23.9826351 L197.533096,17.3281457 L195.613067,17.3281457 L195.613067,15.3270926 L197.533096,15.3270926 L197.533096,12.4561989 L200.247939,12.4561989 L200.247939,15.3270926 L202.320524,15.3270926 L202.320524,17.3281457 L200.247939,17.3281457 L200.247939,23.7977415 C200.247939,24.853316 200.739324,25.0701457 201.469239,25.0701457 C201.829139,25.0701457 202.200839,25.005433 202.397224,24.9617309" id="Fill-24" fill="#FFFFFF" mask="url(#mask-2)"></path>
                    <path d="M210.94683,23.7766468 L210.94683,21.5797745 L209.528301,21.5797745 C207.609116,21.5797745 206.649101,22.3193489 206.649101,23.5262 C206.649101,24.4506681 207.293044,25.1465404 208.470516,25.1465404 C209.669901,25.1465404 210.58693,24.4725191 210.94683,23.7766468 M214.10923,26.9089128 L214.10923,27.092966 L211.339601,27.092966 C211.208959,26.810583 211.110344,26.4189447 211.044601,25.9953702 C210.357673,26.7122532 209.332759,27.3106362 207.947101,27.3106362 C205.602273,27.3106362 203.934259,25.7987106 203.934259,23.7875723 C203.934259,21.2747 205.886316,19.9056468 209.310844,19.9056468 L210.94683,19.9056468 L210.94683,19.1433809 C210.94683,17.9365298 210.280973,17.1540936 208.918073,17.1540936 C207.685816,17.1540936 206.900273,17.8390404 206.900273,18.7307319 L204.18543,18.7307319 C204.18543,16.8607851 206.082701,15.1093383 209.07063,15.1093383 C211.732373,15.1093383 213.662516,16.4582213 213.662516,19.1660723 L213.662516,24.3531787 C213.662516,25.4398489 213.815073,26.2886787 214.10923,26.9089128" id="Fill-25" fill="#FFFFFF" mask="url(#mask-2)"></path>
                    <polygon id="Fill-26" fill="#FFFFFF" mask="url(#mask-2)" points="216.563714 27.0927979 219.2794 27.0927979 219.2794 10.3893404 216.563714 10.3893404"></polygon>
                    <polygon id="Fill-27" fill="#FFFFFF" mask="url(#mask-2)" points="76.0929743 40.2576436 76.0929743 44.8791436 82.47256 44.8791436 82.47256 47.1407287 76.0929743 47.1407287 76.0929743 53.8179096 73.2677171 53.8179096 73.2677171 37.985133 83.3887457 37.985133 83.3887457 40.2576436"></polygon>
                    <path d="M85.4615,53.8183298 L88.1771857,53.8183298 L88.1771857,42.0523723 L85.4615,42.0523723 L85.4615,53.8183298 Z M88.3617714,38.9965851 C88.3617714,39.8117979 87.7844143,40.4211064 86.8244,40.4211064 C85.8542714,40.4211064 85.2870286,39.8117979 85.2870286,38.9965851 C85.2870286,38.1696064 85.8542714,37.5502128 86.8244,37.5502128 C87.7844143,37.5502128 88.3617714,38.1696064 88.3617714,38.9965851 Z" id="Fill-28" fill="#FFFFFF" mask="url(#mask-2)"></path>
                    <path d="M100.805799,46.2280266 L100.805799,53.8179096 L98.0901129,53.8179096 L98.0901129,46.2061755 C98.0901129,44.5967606 97.3703129,44.0412394 96.0293271,44.0412394 C94.9816557,44.0412394 94.1859986,44.5858351 93.70557,45.4338245 L93.70557,53.8179096 L90.9898843,53.8179096 L90.9898843,42.0519521 L93.5420557,42.0519521 L93.6297129,43.4109202 C94.4582414,42.4108138 95.6365557,41.8342819 97.0542414,41.8342819 C99.32237,41.8342819 100.805799,43.0091968 100.805799,46.2280266" id="Fill-29" fill="#FFFFFF" mask="url(#mask-2)"></path>
                    <path d="M110.087089,50.5015904 L110.087089,48.3047181 L108.66856,48.3047181 C106.749374,48.3047181 105.78936,49.0442926 105.78936,50.2511436 C105.78936,51.1756117 106.433303,51.871484 107.610774,51.871484 C108.811003,51.871484 109.727189,51.1974628 110.087089,50.5015904 M113.249489,53.6338564 L113.249489,53.8179096 L110.47986,53.8179096 C110.349217,53.5355266 110.250603,53.1438883 110.18486,52.7203138 C109.497931,53.4371968 108.473017,54.0355798 107.08736,54.0355798 C104.742531,54.0355798 103.074517,52.5236543 103.074517,50.512516 C103.074517,47.9996436 105.026574,46.6305904 108.451103,46.6305904 L110.087089,46.6305904 L110.087089,45.8683245 C110.087089,44.6623138 109.421231,43.8790372 108.058331,43.8790372 C106.826074,43.8790372 106.040531,44.563984 106.040531,45.4556755 L103.325689,45.4556755 C103.325689,43.5857287 105.22296,41.8342819 108.210889,41.8342819 C110.872631,41.8342819 112.802774,43.1831649 112.802774,45.891016 L112.802774,51.0781223 C112.802774,52.1647926 112.955331,53.0136223 113.249489,53.6338564" id="Fill-30" fill="#FFFFFF" mask="url(#mask-2)"></path>
                    <path d="M125.312039,46.2280266 L125.312039,53.8179096 L122.596353,53.8179096 L122.596353,46.2061755 C122.596353,44.5967606 121.876553,44.0412394 120.535567,44.0412394 C119.488739,44.0412394 118.692239,44.5858351 118.21181,45.4338245 L118.21181,53.8179096 L115.496124,53.8179096 L115.496124,42.0519521 L118.048296,42.0519521 L118.135953,43.4109202 C118.964481,42.4108138 120.142796,41.8342819 121.560481,41.8342819 C123.82861,41.8342819 125.312039,43.0091968 125.312039,46.2280266" id="Fill-31" fill="#FFFFFF" mask="url(#mask-2)"></path>
                    <path d="M137.679956,49.9032915 C137.614213,52.1976532 135.486841,54.0356638 132.858813,54.0356638 C129.216827,54.0356638 127.472113,51.3605894 127.472113,48.1199085 L127.472113,47.7492809 C127.472113,44.5094404 129.227784,41.834366 132.848699,41.834366 C135.705141,41.834366 137.614213,43.6505255 137.679956,46.2818979 L135.116827,46.2818979 C135.051084,45.0422702 134.23267,44.0085468 132.815827,44.0085468 C130.700256,44.0085468 130.186956,45.8911 130.186956,47.7492809 L130.186956,48.1199085 C130.186956,50.0117064 130.688456,51.8606426 132.825941,51.8606426 C134.09107,51.8606426 135.051084,51.0445894 135.116827,49.9032915 L137.679956,49.9032915 Z" id="Fill-32" fill="#FFFFFF" mask="url(#mask-2)"></path>
                    <path d="M146.949783,46.6187404 C146.88404,45.2597723 146.284769,44.0092191 144.561126,44.0092191 C143.121526,44.0092191 142.238211,45.0748787 141.997997,46.8254851 L146.949783,46.8254851 L146.949783,46.6187404 Z M149.63344,48.7828362 L141.944054,48.7828362 C142.096611,50.5662191 143.209183,51.8604745 145.040711,51.8604745 C146.31764,51.8604745 147.287769,51.3284851 147.985654,50.4250277 L149.436211,51.8276979 C148.684383,52.9379 147.222026,54.0354957 144.877197,54.0354957 C141.354897,54.0354957 139.205611,51.567166 139.205611,48.3483362 L139.205611,47.9020702 C139.205611,44.2050383 141.519254,41.8350383 144.572926,41.8350383 C147.996611,41.8350383 149.63344,44.2378149 149.63344,47.6415383 L149.63344,48.7828362 Z" id="Fill-33" fill="#FFFFFF" mask="url(#mask-2)"></path>
                    <path d="M165.576589,47.9129957 L163.319417,41.4207085 L161.062246,47.9129957 L165.576589,47.9129957 Z M166.373089,50.1855064 L160.276703,50.1855064 L159.011574,53.8178255 L156.055674,53.8178255 L162.044174,37.9850489 L164.584546,37.9850489 L170.594117,53.8178255 L167.638217,53.8178255 L166.373089,50.1855064 Z" id="Fill-34" fill="#FFFFFF" mask="url(#mask-2)"></path>
                    <polygon id="Fill-35" fill="#FFFFFF" mask="url(#mask-2)" points="172.2741 53.8183298 174.989786 53.8183298 174.989786 37.1148723 172.2741 37.1148723"></polygon>
                    <polygon id="Fill-36" fill="#FFFFFF" mask="url(#mask-2)" points="178.010586 53.8183298 180.726271 53.8183298 180.726271 37.1148723 178.010586 37.1148723"></polygon>
                    <path d="M183.747071,53.8183298 L186.462757,53.8183298 L186.462757,42.0523723 L183.747071,42.0523723 L183.747071,53.8183298 Z M186.648186,38.9965851 C186.648186,39.8117979 186.069986,40.4211064 185.110814,40.4211064 C184.139843,40.4211064 183.5726,39.8117979 183.5726,38.9965851 C183.5726,38.1696064 184.139843,37.5502128 185.110814,37.5502128 C186.069986,37.5502128 186.648186,38.1696064 186.648186,38.9965851 Z" id="Fill-37" fill="#FFFFFF" mask="url(#mask-2)"></path>
                    <path d="M195.940011,50.5015904 L195.940011,48.3047181 L194.521483,48.3047181 C192.602297,48.3047181 191.642283,49.0442926 191.642283,50.2511436 C191.642283,51.1756117 192.286226,51.871484 193.463697,51.871484 C194.663083,51.871484 195.580111,51.1974628 195.940011,50.5015904 M199.102411,53.6338564 L199.102411,53.8179096 L196.332783,53.8179096 C196.20214,53.5355266 196.103526,53.1438883 196.037783,52.7203138 C195.350854,53.4371968 194.32594,54.0355798 192.940283,54.0355798 C190.595454,54.0355798 188.92744,52.5236543 188.92744,50.512516 C188.92744,47.9996436 190.879497,46.6305904 194.304026,46.6305904 L195.940011,46.6305904 L195.940011,45.8683245 C195.940011,44.6623138 195.274154,43.8790372 193.911254,43.8790372 C192.678997,43.8790372 191.893454,44.563984 191.893454,45.4556755 L189.178611,45.4556755 C189.178611,43.5857287 191.075883,41.8342819 194.063811,41.8342819 C196.725554,41.8342819 198.655697,43.1831649 198.655697,45.891016 L198.655697,51.0781223 C198.655697,52.1647926 198.808254,53.0136223 199.102411,53.6338564" id="Fill-38" fill="#FFFFFF" mask="url(#mask-2)"></path>
                    <path d="M211.164961,46.2280266 L211.164961,53.8179096 L208.449276,53.8179096 L208.449276,46.2061755 C208.449276,44.5967606 207.729476,44.0412394 206.387647,44.0412394 C205.340819,44.0412394 204.545161,44.5858351 204.064733,45.4338245 L204.064733,53.8179096 L201.349047,53.8179096 L201.349047,42.0519521 L203.902061,42.0519521 L203.988876,43.4109202 C204.817404,42.4108138 205.995719,41.8342819 207.413404,41.8342819 C209.681533,41.8342819 211.164961,43.0091968 211.164961,46.2280266" id="Fill-39" fill="#FFFFFF" mask="url(#mask-2)"></path>
                    <path d="M223.532879,49.9032915 C223.467136,52.1976532 221.339764,54.0356638 218.711736,54.0356638 C215.06975,54.0356638 213.325036,51.3605894 213.325036,48.1199085 L213.325036,47.7492809 C213.325036,44.5094404 215.080707,41.834366 218.701621,41.834366 C221.558064,41.834366 223.467136,43.6505255 223.532879,46.2818979 L220.96975,46.2818979 C220.904007,45.0422702 220.085593,44.0085468 218.66875,44.0085468 C216.553179,44.0085468 216.039879,45.8911 216.039879,47.7492809 L216.039879,48.1199085 C216.039879,50.0117064 216.541379,51.8606426 218.678864,51.8606426 C219.943993,51.8606426 220.904007,51.0445894 220.96975,49.9032915 L223.532879,49.9032915 Z" id="Fill-40" fill="#FFFFFF" mask="url(#mask-2)"></path>
                    <path d="M232.802621,46.6187404 C232.736879,45.2597723 232.137607,44.0092191 230.413964,44.0092191 C228.974364,44.0092191 228.09105,45.0748787 227.850836,46.8254851 L232.802621,46.8254851 L232.802621,46.6187404 Z M235.486279,48.7828362 L227.796893,48.7828362 C227.94945,50.5662191 229.062021,51.8604745 230.89355,51.8604745 C232.170479,51.8604745 233.140607,51.3284851 233.838493,50.4250277 L235.28905,51.8276979 C234.537221,52.9379 233.074864,54.0354957 230.730036,54.0354957 C227.207736,54.0354957 225.05845,51.567166 225.05845,48.3483362 L225.05845,47.9020702 C225.05845,44.2050383 227.372093,41.8350383 230.425764,41.8350383 C233.84945,41.8350383 235.486279,44.2378149 235.486279,47.6415383 L235.486279,48.7828362 Z" id="Fill-41" fill="#FFFFFF" mask="url(#mask-2)"></path>
                    <polygon id="Fill-42" fill="#FFFFFF" mask="url(#mask-2)" points="74.01255 63.3041287 74.01255 65.3522457 76.5192071 65.3522457 76.5192071 65.9918096 74.01255 65.9918096 74.01255 68.6349479 73.2143643 68.6349479 73.2143643 62.6595223 76.9263071 62.6595223 76.9263071 63.3041287"></polygon>
                    <path d="M77.7350286,68.6341915 L78.5045571,68.6341915 L78.5045571,64.1942234 L77.7350286,64.1942234 L77.7350286,68.6341915 Z M78.5829429,63.0125851 C78.5829429,63.2504255 78.4219571,63.4395213 78.1261143,63.4395213 C77.8294286,63.4395213 77.6777143,63.2504255 77.6777143,63.0125851 C77.6777143,62.7705426 77.8294286,62.5780851 78.1261143,62.5780851 C78.4219571,62.5780851 78.5829429,62.7705426 78.5829429,63.0125851 Z" id="Fill-43" fill="#FFFFFF" mask="url(#mask-2)"></path>
                    <path d="M83.1407771,65.7252266 L83.1407771,68.6347798 L82.3712486,68.6347798 L82.3712486,65.7168223 C82.3712486,65.0192691 82.0627629,64.7486521 81.4862486,64.7486521 C81.0007629,64.7486521 80.6181057,65.0402798 80.40402,65.4588117 L80.40402,68.6347798 L79.6344914,68.6347798 L79.6344914,64.1948117 L80.36272,64.1948117 L80.3871629,64.7402479 C80.7040771,64.3460883 81.1609057,64.11245 81.7129771,64.11245 C82.5895486,64.11245 83.1407771,64.5637585 83.1407771,65.7252266" id="Fill-44" fill="#FFFFFF" mask="url(#mask-2)"></path>
                    <path d="M86.8307214,67.3912862 L86.8307214,66.4760628 L86.2053214,66.4760628 C85.3371786,66.4760628 84.8466357,66.7508819 84.8466357,67.2971585 C84.8466357,67.7240947 85.1391071,68.0602649 85.69455,68.0602649 C86.2466214,68.0602649 86.6663643,67.7316585 86.8307214,67.3912862 M87.7570214,68.5687223 L87.7570214,68.6342755 L86.9537786,68.6342755 C86.9048929,68.5241798 86.8678071,68.3476904 86.8475786,68.1712011 C86.5635357,68.4703926 86.13115,68.7166372 85.5841357,68.7166372 C84.67385,68.7166372 84.0771071,68.1384245 84.0771071,67.4038926 C84.0771071,66.4474883 84.8592786,65.9423926 86.0814214,65.9423926 L86.8307214,65.9423926 L86.8307214,65.5894138 C86.8307214,65.0607862 86.5095929,64.7195734 85.8968357,64.7195734 C85.3245357,64.7195734 84.9418786,65.0523819 84.9418786,65.4255309 L84.17235,65.4255309 C84.17235,64.7893287 84.8634929,64.1127862 85.9415071,64.1127862 C86.9133214,64.1127862 87.60025,64.6052755 87.60025,65.5978181 L87.60025,67.6661053 C87.60025,67.9619351 87.6541929,68.3308819 87.7570214,68.5687223" id="Fill-45" fill="#FFFFFF" mask="url(#mask-2)"></path>
                    <path d="M92.2159043,65.7252266 L92.2159043,68.6347798 L91.4463757,68.6347798 L91.4463757,65.7168223 C91.4463757,65.0192691 91.13789,64.7486521 90.5613757,64.7486521 C90.07589,64.7486521 89.6932329,65.0402798 89.4791471,65.4588117 L89.4791471,68.6347798 L88.7096186,68.6347798 L88.7096186,64.1948117 L89.4378471,64.1948117 L89.46229,64.7402479 C89.7792043,64.3460883 90.2360329,64.11245 90.7881043,64.11245 C91.6646757,64.11245 92.2159043,64.5637585 92.2159043,65.7252266" id="Fill-46" fill="#FFFFFF" mask="url(#mask-2)"></path>
                    <path d="M96.84378,67.2312691 C96.7982657,68.02295 96.0127229,68.7171415 95.0661943,68.7171415 C93.7243657,68.7171415 93.0821086,67.695184 93.0821086,66.5009394 L93.0821086,66.3286521 C93.0821086,65.1344074 93.72858,64.11245 95.0661943,64.11245 C96.1113371,64.11245 96.80248,64.8058011 96.84378,65.7210245 L96.1155514,65.7210245 C96.0742514,65.1713862 95.6747371,64.7276415 95.0661943,64.7276415 C94.1314657,64.7276415 93.8516371,65.5529394 93.8516371,66.3286521 L93.8516371,66.5009394 C93.8516371,67.284216 94.1230371,68.1011096 95.0661943,68.1011096 C95.6089943,68.1011096 96.0700371,67.7363649 96.1155514,67.2312691 L96.84378,67.2312691 Z" id="Fill-47" fill="#FFFFFF" mask="url(#mask-2)"></path>
                    <path d="M100.430474,65.9509649 C100.393389,65.3601457 100.142217,64.7281457 99.36426,64.7281457 C98.7633029,64.7281457 98.3149029,65.1878585 98.2120743,66.0081138 L100.430474,66.0081138 L100.430474,65.9509649 Z M101.200003,66.6241457 L98.1876314,66.6241457 C98.20786,67.4444011 98.6933457,68.1016138 99.5041743,68.1016138 C100.043603,68.1016138 100.397603,67.862933 100.677431,67.4981883 L101.142689,67.8595713 C100.854431,68.2982734 100.347874,68.7168053 99.4637171,68.7168053 C98.2205029,68.7168053 97.4181029,67.8183904 97.4181029,66.5703585 L97.4181029,66.3938691 C97.4181029,64.9500181 98.3646314,64.1121138 99.36426,64.1121138 C100.64456,64.1121138 101.200003,65.0441457 101.200003,66.2837734 L101.200003,66.6241457 Z" id="Fill-48" fill="#FFFFFF" mask="url(#mask-2)"></path>
                    <path d="M103.974351,65.4093106 C103.974351,64.7075553 104.624194,64.112534 105.624666,64.112534 C106.695094,64.112534 107.324709,64.7319277 107.324709,65.4958745 L106.55518,65.4958745 C106.55518,65.1302894 106.221409,64.7277255 105.624666,64.7277255 C104.995051,64.7277255 104.74388,65.060534 104.74388,65.3849383 C104.74388,65.7169064 104.929309,65.8891936 105.768794,66.0740872 C106.859451,66.324534 107.36938,66.685917 107.36938,67.4036404 C107.36938,68.1793532 106.686666,68.7172255 105.644894,68.7172255 C104.464051,68.7172255 103.821794,68.0028638 103.821794,67.2683319 L104.591323,67.2683319 C104.628409,67.8961298 105.172051,68.1011936 105.644894,68.1011936 C106.266923,68.1011936 106.599851,67.8221723 106.599851,67.4574277 C106.599851,67.1288213 106.455723,66.8657681 105.579151,66.685917 C104.591323,66.4800128 103.974351,66.1396404 103.974351,65.4093106" id="Fill-49" fill="#FFFFFF" mask="url(#mask-2)"></path>
                    <path d="M111.092111,65.9509649 C111.055026,65.3601457 110.803854,64.7281457 110.025897,64.7281457 C109.42494,64.7281457 108.97654,65.1878585 108.873711,66.0081138 L111.092111,66.0081138 L111.092111,65.9509649 Z M111.86164,66.6241457 L108.849269,66.6241457 C108.869497,67.4444011 109.354983,68.1016138 110.165811,68.1016138 C110.70524,68.1016138 111.05924,67.862933 111.339069,67.4981883 L111.804326,67.8595713 C111.516069,68.2982734 111.009511,68.7168053 110.125354,68.7168053 C108.88214,68.7168053 108.07974,67.8183904 108.07974,66.5703585 L108.07974,66.3938691 C108.07974,64.9500181 109.026269,64.1121138 110.025897,64.1121138 C111.306197,64.1121138 111.86164,65.0441457 111.86164,66.2837734 L111.86164,66.6241457 Z" id="Fill-50" fill="#FFFFFF" mask="url(#mask-2)"></path>
                    <path d="M116.226207,67.2312691 C116.180693,68.02295 115.39515,68.7171415 114.448621,68.7171415 C113.106793,68.7171415 112.464536,67.695184 112.464536,66.5009394 L112.464536,66.3286521 C112.464536,65.1344074 113.111007,64.11245 114.448621,64.11245 C115.493764,64.11245 116.184907,64.8058011 116.226207,65.7210245 L115.497979,65.7210245 C115.456679,65.1713862 115.057164,64.7276415 114.448621,64.7276415 C113.513893,64.7276415 113.234064,65.5529394 113.234064,66.3286521 L113.234064,66.5009394 C113.234064,67.284216 113.505464,68.1011096 114.448621,68.1011096 C114.991421,68.1011096 115.452464,67.7363649 115.497979,67.2312691 L116.226207,67.2312691 Z" id="Fill-51" fill="#FFFFFF" mask="url(#mask-2)"></path>
                    <path d="M118.882724,68.6346957 C118.763039,68.6716745 118.56581,68.7170574 118.29441,68.7170574 C117.730539,68.7170574 117.265281,68.4212277 117.265281,67.531217 L117.265281,64.7729404 L116.454453,64.7729404 L116.454453,64.1947277 L117.265281,64.1947277 L117.265281,63.1156213 L118.03481,63.1156213 L118.03481,64.1947277 L118.865867,64.1947277 L118.865867,64.7729404 L118.03481,64.7729404 L118.03481,67.5345787 C118.03481,67.9942915 118.269124,68.0682489 118.52451,68.0682489 C118.652624,68.0682489 118.812767,68.0396745 118.87851,68.022866 L118.882724,68.6346957 Z" id="Fill-52" fill="#FFFFFF" mask="url(#mask-2)"></path>
                    <path d="M121.379267,68.1012777 C122.214539,68.1012777 122.633439,67.3465755 122.633439,66.4641287 L122.633439,66.3691606 C122.633439,65.4951181 122.214539,64.7278096 121.370839,64.7278096 C120.535567,64.7278096 120.120039,65.4951181 120.120039,66.3691606 L120.120039,66.4641287 C120.120039,67.3465755 120.535567,68.1012777 121.379267,68.1012777 M121.370839,64.1126181 C122.630067,64.1126181 123.40381,65.0849904 123.40381,66.3691606 L123.40381,66.4641287 C123.40381,67.7482989 122.630067,68.7164691 121.379267,68.7164691 C120.128467,68.7164691 119.35051,67.7482989 119.35051,66.4641287 L119.35051,66.3691606 C119.35051,65.0849904 120.128467,64.1126181 121.370839,64.1126181" id="Fill-53" fill="#FFFFFF" mask="url(#mask-2)"></path>
                    <path d="M126.430594,64.1699351 L126.430594,64.8716904 C126.299109,64.8473181 126.200494,64.8389138 126.056366,64.8389138 C125.537166,64.8389138 125.208451,65.0935628 125.043251,65.4826798 L125.043251,68.6342755 L124.273723,68.6342755 L124.273723,64.1943074 L125.023023,64.1943074 L125.03988,64.6994032 C125.261551,64.3380202 125.611337,64.1127862 126.093451,64.1127862 C126.19628,64.1127862 126.377494,64.1455628 126.430594,64.1699351" id="Fill-54" fill="#FFFFFF" mask="url(#mask-2)"></path>
                    <polygon id="Fill-55" fill="#FFFFFF" mask="url(#mask-2)" points="129.118129 68.6350319 129.887657 68.6350319 129.887657 62.3318404 129.118129 62.3318404"></polygon>
                    <path d="M133.836864,65.9509649 C133.799779,65.3601457 133.548607,64.7281457 132.77065,64.7281457 C132.169693,64.7281457 131.721293,65.1878585 131.618464,66.0081138 L133.836864,66.0081138 L133.836864,65.9509649 Z M134.606393,66.6241457 L131.594021,66.6241457 C131.61425,67.4444011 132.099736,68.1016138 132.910564,68.1016138 C133.449993,68.1016138 133.803993,67.862933 134.083821,67.4981883 L134.549079,67.8595713 C134.260821,68.2982734 133.754264,68.7168053 132.870107,68.7168053 C131.626893,68.7168053 130.824493,67.8183904 130.824493,66.5703585 L130.824493,66.3938691 C130.824493,64.9500181 131.771021,64.1121138 132.77065,64.1121138 C134.05095,64.1121138 134.606393,65.0441457 134.606393,66.2837734 L134.606393,66.6241457 Z" id="Fill-56" fill="#FFFFFF" mask="url(#mask-2)"></path>
                    <path d="M138.033113,67.3912862 L138.033113,66.4760628 L137.407713,66.4760628 C136.53957,66.4760628 136.049027,66.7508819 136.049027,67.2971585 C136.049027,67.7240947 136.341499,68.0602649 136.896941,68.0602649 C137.449013,68.0602649 137.868756,67.7316585 138.033113,67.3912862 M138.959413,68.5687223 L138.959413,68.6342755 L138.15617,68.6342755 C138.107284,68.5241798 138.070199,68.3476904 138.04997,68.1712011 C137.765927,68.4703926 137.333541,68.7166372 136.786527,68.7166372 C135.876241,68.7166372 135.279499,68.1384245 135.279499,67.4038926 C135.279499,66.4474883 136.06167,65.9423926 137.283813,65.9423926 L138.033113,65.9423926 L138.033113,65.5894138 C138.033113,65.0607862 137.711984,64.7195734 137.099227,64.7195734 C136.526927,64.7195734 136.14427,65.0523819 136.14427,65.4255309 L135.374741,65.4255309 C135.374741,64.7893287 136.065884,64.1127862 137.143899,64.1127862 C138.115713,64.1127862 138.802641,64.6052755 138.802641,65.5978181 L138.802641,67.6661053 C138.802641,67.9619351 138.856584,68.3308819 138.959413,68.5687223" id="Fill-57" fill="#FFFFFF" mask="url(#mask-2)"></path>
                    <path d="M142.718134,67.4365011 L142.718134,65.372416 C142.520906,65.011033 142.195563,64.7488202 141.677206,64.7488202 C140.845306,64.7488202 140.49552,65.4917564 140.49552,66.3775649 L140.49552,66.4641287 C140.49552,67.3499372 140.845306,68.0769053 141.668777,68.0769053 C142.199777,68.0769053 142.516691,67.80965 142.718134,67.4365011 Z M143.487663,62.3317564 L143.487663,68.6349479 L142.783877,68.6349479 L142.746791,68.1626287 C142.455163,68.5198096 142.038791,68.7164691 141.479134,68.7164691 C140.433991,68.7164691 139.725991,67.7609053 139.725991,66.4641287 L139.725991,66.3775649 C139.725991,65.0236394 140.425563,64.1126181 141.487563,64.1126181 C142.022777,64.1126181 142.425663,64.2975117 142.718134,64.6336819 L142.718134,62.3317564 L143.487663,62.3317564 Z" id="Fill-58" fill="#FFFFFF" mask="url(#mask-2)"></path>
                    <path d="M147.404083,65.9509649 C147.366997,65.3601457 147.115826,64.7281457 146.337869,64.7281457 C145.736911,64.7281457 145.288511,65.1878585 145.185683,66.0081138 L147.404083,66.0081138 L147.404083,65.9509649 Z M148.173611,66.6241457 L145.16124,66.6241457 C145.181469,67.4444011 145.666954,68.1016138 146.477783,68.1016138 C147.017211,68.1016138 147.371211,67.862933 147.65104,67.4981883 L148.116297,67.8595713 C147.82804,68.2982734 147.321483,68.7168053 146.437326,68.7168053 C145.194111,68.7168053 144.391711,67.8183904 144.391711,66.5703585 L144.391711,66.3938691 C144.391711,64.9500181 145.33824,64.1121138 146.337869,64.1121138 C147.618169,64.1121138 148.173611,65.0441457 148.173611,66.2837734 L148.173611,66.6241457 Z" id="Fill-59" fill="#FFFFFF" mask="url(#mask-2)"></path>
                    <path d="M151.131113,64.1699351 L151.131113,64.8716904 C150.999627,64.8473181 150.901013,64.8389138 150.756884,64.8389138 C150.237684,64.8389138 149.90897,65.0935628 149.74377,65.4826798 L149.74377,68.6342755 L148.974241,68.6342755 L148.974241,64.1943074 L149.723541,64.1943074 L149.740399,64.6994032 C149.96207,64.3380202 150.311856,64.1127862 150.79397,64.1127862 C150.896799,64.1127862 151.078013,64.1455628 151.131113,64.1699351" id="Fill-60" fill="#FFFFFF" mask="url(#mask-2)"></path>
                    <path d="M151.713021,65.4093106 C151.713021,64.7075553 152.362864,64.112534 153.363336,64.112534 C154.433764,64.112534 155.063379,64.7319277 155.063379,65.4958745 L154.29385,65.4958745 C154.29385,65.1302894 153.960079,64.7277255 153.363336,64.7277255 C152.733721,64.7277255 152.48255,65.060534 152.48255,65.3849383 C152.48255,65.7169064 152.667979,65.8891936 153.507464,66.0740872 C154.598121,66.324534 155.10805,66.685917 155.10805,67.4036404 C155.10805,68.1793532 154.425336,68.7172255 153.383564,68.7172255 C152.202721,68.7172255 151.560464,68.0028638 151.560464,67.2683319 L152.329993,67.2683319 C152.367079,67.8961298 152.910721,68.1011936 153.383564,68.1011936 C154.005593,68.1011936 154.338521,67.8221723 154.338521,67.4574277 C154.338521,67.1288213 154.194393,66.8657681 153.317821,66.685917 C152.329993,66.4800128 151.713021,66.1396404 151.713021,65.4093106" id="Fill-61" fill="#FFFFFF" mask="url(#mask-2)"></path>
                    <path d="M159.518553,65.7252266 L159.518553,68.6347798 L158.749024,68.6347798 L158.749024,65.7168223 C158.749024,65.0192691 158.440539,64.7486521 157.864024,64.7486521 C157.378539,64.7486521 156.995881,65.0402798 156.781796,65.4588117 L156.781796,68.6347798 L156.012267,68.6347798 L156.012267,62.3315883 L156.781796,62.3315883 L156.781796,64.7200777 C157.09871,64.3385245 157.551324,64.11245 158.090753,64.11245 C158.967324,64.11245 159.518553,64.5637585 159.518553,65.7252266" id="Fill-62" fill="#FFFFFF" mask="url(#mask-2)"></path>
                    <path d="M160.635086,68.6341915 L161.404614,68.6341915 L161.404614,64.1942234 L160.635086,64.1942234 L160.635086,68.6341915 Z M161.483,63.0125851 C161.483,63.2504255 161.322857,63.4395213 161.026171,63.4395213 C160.730329,63.4395213 160.577771,63.2504255 160.577771,63.0125851 C160.577771,62.7705426 160.730329,62.5780851 161.026171,62.5780851 C161.322857,62.5780851 161.483,62.7705426 161.483,63.0125851 Z" id="Fill-63" fill="#FFFFFF" mask="url(#mask-2)"></path>
                    <path d="M165.531327,66.377733 C165.531327,65.491084 165.164684,64.7489883 164.333627,64.7489883 C163.827913,64.7489883 163.50257,65.0069989 163.304499,65.3599777 L163.304499,67.4980202 C163.50257,67.8467968 163.819484,68.1014457 164.342056,68.1014457 C165.164684,68.1014457 165.531327,67.3501053 165.531327,66.4642968 L165.531327,66.377733 Z M166.300856,66.377733 L166.300856,66.4642968 C166.300856,67.7610734 165.67967,68.7166372 164.57637,68.7166372 C164.025141,68.7166372 163.605399,68.5359457 163.304499,68.2081798 L163.304499,70.3420202 L162.53497,70.3420202 L162.53497,64.1943074 L163.234541,64.1943074 L163.275841,64.679233 C163.576741,64.3136479 164.00407,64.1127862 164.56457,64.1127862 C165.683884,64.1127862 166.300856,65.0238074 166.300856,66.377733 Z" id="Fill-64" fill="#FFFFFF" mask="url(#mask-2)"></path>
                    <path d="M171.021361,68.1012777 C171.856633,68.1012777 172.276376,67.3465755 172.276376,66.4641287 L172.276376,66.3691606 C172.276376,65.4951181 171.856633,64.7278096 171.012933,64.7278096 C170.177661,64.7278096 169.762133,65.4951181 169.762133,66.3691606 L169.762133,66.4641287 C169.762133,67.3465755 170.177661,68.1012777 171.021361,68.1012777 M171.012933,64.1126181 C172.272161,64.1126181 173.045904,65.0849904 173.045904,66.3691606 L173.045904,66.4641287 C173.045904,67.7482989 172.272161,68.7164691 171.021361,68.7164691 C169.770561,68.7164691 168.992604,67.7482989 168.992604,66.4641287 L168.992604,66.3691606 C168.992604,65.0849904 169.770561,64.1126181 171.012933,64.1126181" id="Fill-65" fill="#FFFFFF" mask="url(#mask-2)"></path>
                    <path d="M177.423451,65.7252266 L177.423451,68.6347798 L176.653923,68.6347798 L176.653923,65.7168223 C176.653923,65.0192691 176.345437,64.7486521 175.768923,64.7486521 C175.283437,64.7486521 174.90078,65.0402798 174.686694,65.4588117 L174.686694,68.6347798 L173.917166,68.6347798 L173.917166,64.1948117 L174.645394,64.1948117 L174.669837,64.7402479 C174.986751,64.3460883 175.44358,64.11245 175.995651,64.11245 C176.872223,64.11245 177.423451,64.5637585 177.423451,65.7252266" id="Fill-66" fill="#FFFFFF" mask="url(#mask-2)"></path>
                    <path d="M184.000097,65.7252266 L184.000097,68.6347798 L183.230569,68.6347798 L183.230569,65.7168223 C183.230569,65.0192691 182.922083,64.7486521 182.345569,64.7486521 C181.860083,64.7486521 181.477426,65.0402798 181.26334,65.4588117 L181.26334,68.6347798 L180.493811,68.6347798 L180.493811,64.1948117 L181.22204,64.1948117 L181.246483,64.7402479 C181.563397,64.3460883 182.020226,64.11245 182.572297,64.11245 C183.448869,64.11245 184.000097,64.5637585 184.000097,65.7252266" id="Fill-67" fill="#FFFFFF" mask="url(#mask-2)"></path>
                    <path d="M187.690041,67.3912862 L187.690041,66.4760628 L187.064641,66.4760628 C186.196499,66.4760628 185.705956,66.7508819 185.705956,67.2971585 C185.705956,67.7240947 185.998427,68.0602649 186.55387,68.0602649 C187.105941,68.0602649 187.525684,67.7316585 187.690041,67.3912862 M188.616341,68.5687223 L188.616341,68.6342755 L187.813099,68.6342755 C187.764213,68.5241798 187.727127,68.3476904 187.706899,68.1712011 C187.422856,68.4703926 186.99047,68.7166372 186.443456,68.7166372 C185.53317,68.7166372 184.936427,68.1384245 184.936427,67.4038926 C184.936427,66.4474883 185.718599,65.9423926 186.940741,65.9423926 L187.690041,65.9423926 L187.690041,65.5894138 C187.690041,65.0607862 187.368913,64.7195734 186.756156,64.7195734 C186.183856,64.7195734 185.801199,65.0523819 185.801199,65.4255309 L185.03167,65.4255309 C185.03167,64.7893287 185.722813,64.1127862 186.800827,64.1127862 C187.772641,64.1127862 188.45957,64.6052755 188.45957,65.5978181 L188.45957,67.6661053 C188.45957,67.9619351 188.513513,68.3308819 188.616341,68.5687223" id="Fill-68" fill="#FFFFFF" mask="url(#mask-2)"></path>
                    <path d="M191.45736,68.6346957 C191.337674,68.6716745 191.140446,68.7170574 190.869046,68.7170574 C190.305174,68.7170574 189.839917,68.4212277 189.839917,67.531217 L189.839917,64.7729404 L189.029089,64.7729404 L189.029089,64.1947277 L189.839917,64.1947277 L189.839917,63.1156213 L190.609446,63.1156213 L190.609446,64.1947277 L191.440503,64.1947277 L191.440503,64.7729404 L190.609446,64.7729404 L190.609446,67.5345787 C190.609446,67.9942915 190.84376,68.0682489 191.099146,68.0682489 C191.22726,68.0682489 191.387403,68.0396745 191.453146,68.022866 L191.45736,68.6346957 Z" id="Fill-69" fill="#FFFFFF" mask="url(#mask-2)"></path>
                    <path d="M195.735871,64.1945596 L195.735871,68.6345277 L195.003429,68.6345277 L194.986571,68.2000277 C194.710957,68.5235915 194.287,68.7168894 193.686043,68.7168894 C192.813686,68.7168894 192.225371,68.2403681 192.225371,67.0587298 L192.225371,64.1945596 L192.9949,64.1945596 L192.9949,67.067134 C192.9949,67.8714213 193.398629,68.0764851 193.809943,68.0764851 C194.426914,68.0764851 194.789343,67.8218362 194.966343,67.4360809 L194.966343,64.1945596 L195.735871,64.1945596 Z" id="Fill-70" fill="#FFFFFF" mask="url(#mask-2)"></path>
                    <path d="M198.959969,64.1699351 L198.959969,64.8716904 C198.828483,64.8473181 198.729869,64.8389138 198.58574,64.8389138 C198.06654,64.8389138 197.737826,65.0935628 197.572626,65.4826798 L197.572626,68.6342755 L196.803097,68.6342755 L196.803097,64.1943074 L197.552397,64.1943074 L197.569254,64.6994032 C197.790926,64.3380202 198.140711,64.1127862 198.622826,64.1127862 C198.725654,64.1127862 198.906869,64.1455628 198.959969,64.1699351" id="Fill-71" fill="#FFFFFF" mask="url(#mask-2)"></path>
                    <path d="M202.073736,67.3912862 L202.073736,66.4760628 L201.448336,66.4760628 C200.580193,66.4760628 200.08965,66.7508819 200.08965,67.2971585 C200.08965,67.7240947 200.382121,68.0602649 200.937564,68.0602649 C201.489636,68.0602649 201.909379,67.7316585 202.073736,67.3912862 M203.000036,68.5687223 L203.000036,68.6342755 L202.196793,68.6342755 C202.147907,68.5241798 202.110821,68.3476904 202.090593,68.1712011 C201.80655,68.4703926 201.374164,68.7166372 200.82715,68.7166372 C199.916864,68.7166372 199.320121,68.1384245 199.320121,67.4038926 C199.320121,66.4474883 200.102293,65.9423926 201.324436,65.9423926 L202.073736,65.9423926 L202.073736,65.5894138 C202.073736,65.0607862 201.752607,64.7195734 201.13985,64.7195734 C200.56755,64.7195734 200.184893,65.0523819 200.184893,65.4255309 L199.415364,65.4255309 C199.415364,64.7893287 200.106507,64.1127862 201.184521,64.1127862 C202.156336,64.1127862 202.843264,64.6052755 202.843264,65.5978181 L202.843264,67.6661053 C202.843264,67.9619351 202.897207,68.3308819 203.000036,68.5687223" id="Fill-72" fill="#FFFFFF" mask="url(#mask-2)"></path>
                    <polygon id="Fill-73" fill="#FFFFFF" mask="url(#mask-2)" points="204.018629 68.6350319 204.788157 68.6350319 204.788157 62.3318404 204.018629 62.3318404"></polygon>
                    <path d="M211.488366,67.2312691 C211.442851,68.02295 210.657309,68.7171415 209.71078,68.7171415 C208.368951,68.7171415 207.726694,67.695184 207.726694,66.5009394 L207.726694,66.3286521 C207.726694,65.1344074 208.373166,64.11245 209.71078,64.11245 C210.755923,64.11245 211.447066,64.8058011 211.488366,65.7210245 L210.760137,65.7210245 C210.718837,65.1713862 210.319323,64.7276415 209.71078,64.7276415 C208.776051,64.7276415 208.496223,65.5529394 208.496223,66.3286521 L208.496223,66.5009394 C208.496223,67.284216 208.767623,68.1011096 209.71078,68.1011096 C210.25358,68.1011096 210.714623,67.7363649 210.760137,67.2312691 L211.488366,67.2312691 Z" id="Fill-74" fill="#FFFFFF" mask="url(#mask-2)"></path>
                    <path d="M214.881203,67.3912862 L214.881203,66.4760628 L214.255803,66.4760628 C213.38766,66.4760628 212.897117,66.7508819 212.897117,67.2971585 C212.897117,67.7240947 213.189589,68.0602649 213.745031,68.0602649 C214.297103,68.0602649 214.716846,67.7316585 214.881203,67.3912862 M215.807503,68.5687223 L215.807503,68.6342755 L215.00426,68.6342755 C214.955374,68.5241798 214.918289,68.3476904 214.89806,68.1712011 C214.614017,68.4703926 214.181631,68.7166372 213.634617,68.7166372 C212.724331,68.7166372 212.127589,68.1384245 212.127589,67.4038926 C212.127589,66.4474883 212.90976,65.9423926 214.131903,65.9423926 L214.881203,65.9423926 L214.881203,65.5894138 C214.881203,65.0607862 214.560074,64.7195734 213.947317,64.7195734 C213.375017,64.7195734 212.99236,65.0523819 212.99236,65.4255309 L212.222831,65.4255309 C212.222831,64.7893287 212.913974,64.1127862 213.991989,64.1127862 C214.963803,64.1127862 215.650731,64.6052755 215.650731,65.5978181 L215.650731,67.6661053 C215.650731,67.9619351 215.704674,68.3308819 215.807503,68.5687223" id="Fill-75" fill="#FFFFFF" mask="url(#mask-2)"></path>
                    <path d="M219.756457,66.377733 C219.756457,65.491084 219.389814,64.7489883 218.558757,64.7489883 C218.053043,64.7489883 217.7277,65.0069989 217.529629,65.3599777 L217.529629,67.4980202 C217.7277,67.8467968 218.044614,68.1014457 218.567186,68.1014457 C219.389814,68.1014457 219.756457,67.3501053 219.756457,66.4642968 L219.756457,66.377733 Z M220.525986,66.377733 L220.525986,66.4642968 C220.525986,67.7610734 219.9048,68.7166372 218.8015,68.7166372 C218.250271,68.7166372 217.830529,68.5359457 217.529629,68.2081798 L217.529629,70.3420202 L216.7601,70.3420202 L216.7601,64.1943074 L217.459671,64.1943074 L217.500971,64.679233 C217.801871,64.3136479 218.2292,64.1127862 218.7897,64.1127862 C219.909014,64.1127862 220.525986,65.0238074 220.525986,66.377733 Z" id="Fill-76" fill="#FFFFFF" mask="url(#mask-2)"></path>
                    <path d="M221.475043,68.6341915 L222.244571,68.6341915 L222.244571,64.1942234 L221.475043,64.1942234 L221.475043,68.6341915 Z M222.322957,63.0125851 C222.322957,63.2504255 222.161971,63.4395213 221.866129,63.4395213 C221.569443,63.4395213 221.417729,63.2504255 221.417729,63.0125851 C221.417729,62.7705426 221.569443,62.5780851 221.866129,62.5780851 C222.161971,62.5780851 222.322957,62.7705426 222.322957,63.0125851 Z" id="Fill-77" fill="#FFFFFF" mask="url(#mask-2)"></path>
                    <path d="M225.263011,68.6346957 C225.143326,68.6716745 224.946097,68.7170574 224.674697,68.7170574 C224.110826,68.7170574 223.645569,68.4212277 223.645569,67.531217 L223.645569,64.7729404 L222.83474,64.7729404 L222.83474,64.1947277 L223.645569,64.1947277 L223.645569,63.1156213 L224.415097,63.1156213 L224.415097,64.1947277 L225.246154,64.1947277 L225.246154,64.7729404 L224.415097,64.7729404 L224.415097,67.5345787 C224.415097,67.9942915 224.649411,68.0682489 224.904797,68.0682489 C225.032911,68.0682489 225.193054,68.0396745 225.258797,68.022866 L225.263011,68.6346957 Z" id="Fill-78" fill="#FFFFFF" mask="url(#mask-2)"></path>
                    <path d="M228.673127,67.3912862 L228.673127,66.4760628 L228.047727,66.4760628 C227.179584,66.4760628 226.689041,66.7508819 226.689041,67.2971585 C226.689041,67.7240947 226.981513,68.0602649 227.536956,68.0602649 C228.089027,68.0602649 228.50877,67.7316585 228.673127,67.3912862 M229.599427,68.5687223 L229.599427,68.6342755 L228.796184,68.6342755 C228.747299,68.5241798 228.710213,68.3476904 228.689984,68.1712011 C228.405941,68.4703926 227.973556,68.7166372 227.426541,68.7166372 C226.516256,68.7166372 225.919513,68.1384245 225.919513,67.4038926 C225.919513,66.4474883 226.701684,65.9423926 227.923827,65.9423926 L228.673127,65.9423926 L228.673127,65.5894138 C228.673127,65.0607862 228.351999,64.7195734 227.739241,64.7195734 C227.166941,64.7195734 226.784284,65.0523819 226.784284,65.4255309 L226.014756,65.4255309 C226.014756,64.7893287 226.705899,64.1127862 227.783913,64.1127862 C228.755727,64.1127862 229.442656,64.6052755 229.442656,65.5978181 L229.442656,67.6661053 C229.442656,67.9619351 229.496599,68.3308819 229.599427,68.5687223" id="Fill-79" fill="#FFFFFF" mask="url(#mask-2)"></path>
                    <polygon id="Fill-80" fill="#FFFFFF" mask="url(#mask-2)" points="230.617514 68.6350319 231.387043 68.6350319 231.387043 62.3318404 230.617514 62.3318404"></polygon>
                </g>
            </g>
        </g>
    </g>
</svg>