<?xml version="1.0" encoding="UTF-8"?>
<svg width="153px" height="38px" viewBox="0 0 153 38" version="1.1" xmlns="http://www.w3.org/2000/svg" xmlns:xlink="http://www.w3.org/1999/xlink">
    <!-- Generator: Sketch 49.3 (51167) - http://www.bohemiancoding.com/sketch -->
    <title>Page 1</title>
    <desc>Created with Sketch.</desc>
    <defs>
        <polygon id="path-1" points="0 38.3442 155.991 38.3442 155.991 0.0002 0 0.0002"></polygon>
    </defs>
    <g id="Pa" stroke="none" stroke-width="1" fill="none" fill-rule="evenodd">
        <g id="Homepage-(D)" transform="translate(-762.000000, -1568.000000)">
            <g id="Page-1" transform="translate(759.000000, 1567.000000)">
                <path d="M29.9145,6.5366 C30.2225,6.7316 30.5825,6.8446 31.0705,6.8446 C31.7165,6.8446 32.2495,6.5146 32.2495,5.7706 C32.2495,4.7426 29.8475,4.6146 29.8475,3.2406 C29.8475,2.3996 30.5825,1.8746 31.5065,1.8746 C31.7615,1.8746 32.1745,1.9116 32.5345,2.0466 L32.4525,2.5196 C32.2195,2.3926 31.8515,2.3246 31.4985,2.3246 C30.9575,2.3246 30.3655,2.5506 30.3655,3.2256 C30.3655,4.2766 32.7675,4.2846 32.7675,5.8156 C32.7675,6.8746 31.8585,7.2946 31.0485,7.2946 C30.5375,7.2946 30.1395,7.1896 29.8615,7.0696 L29.9145,6.5366 Z" id="Fill-1" fill="#FFFFFF"></path>
                <path d="M36.8344,3.8862 C36.5794,3.7742 36.2714,3.6912 36.0164,3.6912 C35.0924,3.6912 34.5744,4.3592 34.5744,5.2902 C34.5744,6.1612 35.1004,6.8892 35.9634,6.8892 C36.2644,6.8892 36.5414,6.8222 36.8274,6.7172 L36.8724,7.1592 C36.5494,7.2722 36.2494,7.2942 35.8884,7.2942 C34.6574,7.2942 34.0564,6.3562 34.0564,5.2902 C34.0564,4.1122 34.8144,3.2852 35.9484,3.2852 C36.4064,3.2852 36.7364,3.3912 36.8724,3.4362 L36.8344,3.8862 Z" id="Fill-3" fill="#FFFFFF"></path>
                <path d="M38.2587,1.5742 L38.7317,1.5742 L38.7317,4.0212 L38.7467,4.0212 C38.9487,3.6012 39.3777,3.2852 39.9407,3.2852 C40.9687,3.2852 41.2467,3.9692 41.2467,4.9152 L41.2467,7.2042 L40.7737,7.2042 L40.7737,4.9222 C40.7737,4.2622 40.6457,3.6912 39.8647,3.6912 C39.0247,3.6912 38.7317,4.4872 38.7317,5.1552 L38.7317,7.2042 L38.2587,7.2042 L38.2587,1.5742 Z" id="Fill-5" fill="#FFFFFF"></path>
                <polygon id="Fill-7" fill="#FFFFFF" points="46.9496 7.2046 46.3796 7.2046 45.3356 3.8936 45.3206 3.8936 44.2776 7.2046 43.7066 7.2046 42.4756 3.3756 42.9936 3.3756 43.9996 6.6866 44.0136 6.6866 45.0806 3.3756 45.6506 3.3756 46.6646 6.6866 46.6796 6.6866 47.7376 3.3756 48.2106 3.3756"></polygon>
                <path d="M51.7738,5.02 C51.7738,4.352 51.5038,3.691 50.7978,3.691 C50.0998,3.691 49.6718,4.389 49.6718,5.02 L51.7738,5.02 Z M52.0068,7.084 C51.6758,7.22 51.2488,7.294 50.8958,7.294 C49.6268,7.294 49.1538,6.439 49.1538,5.29 C49.1538,4.119 49.7998,3.286 50.7678,3.286 C51.8488,3.286 52.2918,4.157 52.2918,5.185 L52.2918,5.425 L49.6718,5.425 C49.6718,6.236 50.1068,6.889 50.9328,6.889 C51.2788,6.889 51.7818,6.747 52.0068,6.604 L52.0068,7.084 Z" id="Fill-9" fill="#FFFFFF"></path>
                <mask id="mask-2" fill="white">
                    <use xlink:href="#path-1"></use>
                </mask>
                <g id="Clip-12"></g>
                <path d="M53.777,7.2052 L54.25,7.2052 L54.25,3.3762 L53.777,3.3762 L53.777,7.2052 Z M53.776,2.3552 L54.249,2.3552 L54.249,1.7242 L53.776,1.7242 L53.776,2.3552 Z" id="Fill-11" fill="#FFFFFF" mask="url(#mask-2)"></path>
                <polygon id="Fill-13" fill="#FFFFFF" mask="url(#mask-2)" points="55.6747 6.8066 57.9797 3.7816 55.7647 3.7816 55.7647 3.3756 58.5277 3.3756 58.5277 3.7816 56.2227 6.7996 58.5277 6.7996 58.5277 7.2046 55.6747 7.2046"></polygon>
                <path d="M62.2787,5.02 C62.2787,4.352 62.0087,3.691 61.3027,3.691 C60.6047,3.691 60.1767,4.389 60.1767,5.02 L62.2787,5.02 Z M62.5117,7.084 C62.1807,7.22 61.7537,7.294 61.4007,7.294 C60.1317,7.294 59.6587,6.439 59.6587,5.29 C59.6587,4.119 60.3047,3.286 61.2727,3.286 C62.3537,3.286 62.7967,4.157 62.7967,5.185 L62.7967,5.425 L60.1767,5.425 C60.1767,6.236 60.6117,6.889 61.4377,6.889 C61.7837,6.889 62.2867,6.747 62.5117,6.604 L62.5117,7.084 Z" id="Fill-14" fill="#FFFFFF" mask="url(#mask-2)"></path>
                <path d="M64.2817,4.2319 C64.2817,3.8109 64.2817,3.6539 64.2517,3.3759 L64.7247,3.3759 L64.7247,4.1119 L64.7397,4.1119 C64.9117,3.6839 65.2347,3.2859 65.7227,3.2859 C65.8357,3.2859 65.9707,3.3079 66.0527,3.3309 L66.0527,3.8259 C65.9557,3.7959 65.8277,3.7809 65.7077,3.7809 C64.9567,3.7809 64.7547,4.6219 64.7547,5.3129 L64.7547,7.2049 L64.2817,7.2049 L64.2817,4.2319 Z" id="Fill-15" fill="#FFFFFF" mask="url(#mask-2)"></path>
                <path d="M67.366,7.2052 L67.839,7.2052 L67.839,3.3762 L67.366,3.3762 L67.366,7.2052 Z M67.365,2.3552 L67.838,2.3552 L67.838,1.7242 L67.365,1.7242 L67.365,2.3552 Z" id="Fill-16" fill="#FFFFFF" mask="url(#mask-2)"></path>
                <path d="M69.3237,6.6489 C69.6087,6.7919 69.9547,6.8889 70.3227,6.8889 C70.7727,6.8889 71.1707,6.6419 71.1707,6.2059 C71.1707,5.2979 69.3307,5.4409 69.3307,4.3289 C69.3307,3.5709 69.9467,3.2859 70.5777,3.2859 C70.7807,3.2859 71.1857,3.3309 71.5237,3.4589 L71.4787,3.8719 C71.2307,3.7589 70.8927,3.6909 70.6297,3.6909 C70.1417,3.6909 69.8037,3.8409 69.8037,4.3289 C69.8037,5.0429 71.6887,4.9529 71.6887,6.2059 C71.6887,7.0169 70.9297,7.2949 70.3517,7.2949 C69.9847,7.2949 69.6167,7.2499 69.2787,7.1149 L69.3237,6.6489 Z" id="Fill-17" fill="#FFFFFF" mask="url(#mask-2)"></path>
                <path d="M75.6127,3.8862 C75.3577,3.7742 75.0497,3.6912 74.7947,3.6912 C73.8707,3.6912 73.3527,4.3592 73.3527,5.2902 C73.3527,6.1612 73.8787,6.8892 74.7417,6.8892 C75.0427,6.8892 75.3197,6.8222 75.6057,6.7172 L75.6507,7.1592 C75.3277,7.2722 75.0277,7.2942 74.6667,7.2942 C73.4357,7.2942 72.8347,6.3562 72.8347,5.2902 C72.8347,4.1122 73.5927,3.2852 74.7267,3.2852 C75.1847,3.2852 75.5147,3.3912 75.6507,3.4362 L75.6127,3.8862 Z" id="Fill-18" fill="#FFFFFF" mask="url(#mask-2)"></path>
                <path d="M77.0375,1.5742 L77.5105,1.5742 L77.5105,4.0212 L77.5255,4.0212 C77.7275,3.6012 78.1555,3.2852 78.7195,3.2852 C79.7475,3.2852 80.0255,3.9692 80.0255,4.9152 L80.0255,7.2042 L79.5525,7.2042 L79.5525,4.9222 C79.5525,4.2622 79.4245,3.6912 78.6435,3.6912 C77.8035,3.6912 77.5105,4.4872 77.5105,5.1552 L77.5105,7.2042 L77.0375,7.2042 L77.0375,1.5742 Z" id="Fill-19" fill="#FFFFFF" mask="url(#mask-2)"></path>
                <path d="M84.1293,5.02 C84.1293,4.352 83.8593,3.691 83.1533,3.691 C82.4553,3.691 82.0273,4.389 82.0273,5.02 L84.1293,5.02 Z M84.3623,7.084 C84.0313,7.22 83.6043,7.294 83.2513,7.294 C81.9823,7.294 81.5093,6.439 81.5093,5.29 C81.5093,4.119 82.1553,3.286 83.1233,3.286 C84.2043,3.286 84.6473,4.157 84.6473,5.185 L84.6473,5.425 L82.0273,5.425 C82.0273,6.236 82.4623,6.889 83.2883,6.889 C83.6343,6.889 84.1373,6.747 84.3623,6.604 L84.3623,7.084 Z" id="Fill-20" fill="#FFFFFF" mask="url(#mask-2)"></path>
                <polygon id="Fill-21" fill="#FFFFFF" mask="url(#mask-2)" points="88.6308 1.9643 91.1988 1.9643 91.1988 2.4153 89.1488 2.4153 89.1488 4.2843 91.0928 4.2843 91.0928 4.7353 89.1488 4.7353 89.1488 6.7543 91.2888 6.7543 91.2888 7.2043 88.6308 7.2043"></polygon>
                <path d="M92.915,7.2052 L93.388,7.2052 L93.388,3.3762 L92.915,3.3762 L92.915,7.2052 Z M92.915,2.3552 L93.388,2.3552 L93.388,1.7242 L92.915,1.7242 L92.915,2.3552 Z" id="Fill-22" fill="#FFFFFF" mask="url(#mask-2)"></path>
                <path d="M96.5927,6.8891 C97.4337,6.8891 97.7257,5.9881 97.7257,5.2901 C97.7257,4.5921 97.4337,3.6911 96.5927,3.6911 C95.6927,3.6911 95.4587,4.5471 95.4587,5.2901 C95.4587,6.0341 95.6927,6.8891 96.5927,6.8891 Z M98.1987,7.2041 L97.7257,7.2041 L97.7257,6.5971 L97.7117,6.5971 C97.4557,7.0841 97.0657,7.2941 96.5177,7.2941 C95.4667,7.2941 94.9407,6.4241 94.9407,5.2901 C94.9407,4.1261 95.3917,3.2851 96.5177,3.2851 C97.2687,3.2851 97.6437,3.8341 97.7117,4.0211 L97.7257,4.0211 L97.7257,1.5741 L98.1987,1.5741 L98.1987,7.2041 Z" id="Fill-23" fill="#FFFFFF" mask="url(#mask-2)"></path>
                <path d="M101.3193,6.7993 C102.1753,6.7993 102.4833,5.9883 102.4833,5.2903 C102.4833,4.3663 102.2143,3.6913 101.3503,3.6913 C100.4493,3.6913 100.2153,4.5473 100.2153,5.2903 C100.2153,6.0413 100.5163,6.7993 101.3193,6.7993 Z M102.9563,6.8893 C102.9563,7.9553 102.4753,8.8263 101.1633,8.8263 C100.6593,8.8263 100.2023,8.6833 100.0073,8.6233 L100.0443,8.1503 C100.3373,8.3003 100.7573,8.4213 101.1703,8.4213 C102.3853,8.4213 102.4913,7.5343 102.4913,6.4533 L102.4753,6.4533 C102.2203,7.0093 101.7993,7.2043 101.3123,7.2043 C100.0893,7.2043 99.6983,6.1383 99.6983,5.2903 C99.6983,4.1263 100.1493,3.2853 101.2743,3.2853 C101.7863,3.2853 102.1163,3.3533 102.4683,3.8113 L102.4833,3.8113 L102.4833,3.3763 L102.9563,3.3763 L102.9563,6.8893 Z" id="Fill-24" fill="#FFFFFF" mask="url(#mask-2)"></path>
                <path d="M107.0155,5.02 C107.0155,4.352 106.7445,3.691 106.0395,3.691 C105.3415,3.691 104.9125,4.389 104.9125,5.02 L107.0155,5.02 Z M107.2485,7.084 C106.9175,7.22 106.4905,7.294 106.1375,7.294 C104.8685,7.294 104.3955,6.439 104.3955,5.29 C104.3955,4.119 105.0415,3.286 106.0095,3.286 C107.0905,3.286 107.5345,4.157 107.5345,5.185 L107.5345,5.425 L104.9125,5.425 C104.9125,6.236 105.3485,6.889 106.1745,6.889 C106.5205,6.889 107.0235,6.747 107.2485,6.604 L107.2485,7.084 Z" id="Fill-25" fill="#FFFFFF" mask="url(#mask-2)"></path>
                <path d="M109.0185,4.2768 C109.0185,3.9838 109.0185,3.6838 108.9885,3.3758 L109.4465,3.3758 L109.4465,4.0588 L109.4615,4.0588 C109.6195,3.7138 109.9045,3.2858 110.7005,3.2858 C111.6455,3.2858 112.0065,3.9168 112.0065,4.7568 L112.0065,7.2048 L111.5335,7.2048 L111.5335,4.8778 C111.5335,4.1568 111.2785,3.6908 110.6245,3.6908 C109.7615,3.6908 109.4915,4.4488 109.4915,5.0878 L109.4915,7.2048 L109.0185,7.2048 L109.0185,4.2768 Z" id="Fill-26" fill="#FFFFFF" mask="url(#mask-2)"></path>
                <path d="M115.2695,6.8891 C116.0945,6.8891 116.5385,6.1761 116.5385,5.2901 C116.5385,4.4041 116.0945,3.6911 115.2695,3.6911 C114.4445,3.6911 114.0005,4.4041 114.0005,5.2901 C114.0005,6.1761 114.4445,6.8891 115.2695,6.8891 M115.2695,3.2851 C116.5085,3.2851 117.0555,4.2461 117.0555,5.2901 C117.0555,6.3331 116.5085,7.2941 115.2695,7.2941 C114.0305,7.2941 113.4835,6.3331 113.4835,5.2901 C113.4835,4.2461 114.0305,3.2851 115.2695,3.2851" id="Fill-27" fill="#FFFFFF" mask="url(#mask-2)"></path>
                <path d="M118.2402,6.6489 C118.5252,6.7919 118.8702,6.8889 119.2392,6.8889 C119.6882,6.8889 120.0872,6.6419 120.0872,6.2059 C120.0872,5.2979 118.2472,5.4409 118.2472,4.3289 C118.2472,3.5709 118.8632,3.2859 119.4942,3.2859 C119.6962,3.2859 120.1022,3.3309 120.4402,3.4589 L120.3952,3.8719 C120.1472,3.7589 119.8092,3.6909 119.5462,3.6909 C119.0582,3.6909 118.7202,3.8409 118.7202,4.3289 C118.7202,5.0429 120.6042,4.9529 120.6042,6.2059 C120.6042,7.0169 119.8462,7.2949 119.2682,7.2949 C118.9012,7.2949 118.5332,7.2499 118.1952,7.1149 L118.2402,6.6489 Z" id="Fill-28" fill="#FFFFFF" mask="url(#mask-2)"></path>
                <path d="M121.745,6.6489 C122.03,6.7919 122.376,6.8889 122.743,6.8889 C123.193,6.8889 123.591,6.6419 123.591,6.2059 C123.591,5.2979 121.752,5.4409 121.752,4.3289 C121.752,3.5709 122.368,3.2859 122.999,3.2859 C123.201,3.2859 123.606,3.3309 123.944,3.4589 L123.899,3.8719 C123.651,3.7589 123.313,3.6909 123.051,3.6909 C122.563,3.6909 122.225,3.8409 122.225,4.3289 C122.225,5.0429 124.109,4.9529 124.109,6.2059 C124.109,7.0169 123.35,7.2949 122.772,7.2949 C122.405,7.2949 122.038,7.2499 121.7,7.1149 L121.745,6.6489 Z" id="Fill-29" fill="#FFFFFF" mask="url(#mask-2)"></path>
                <path d="M127.8759,5.02 C127.8759,4.352 127.6059,3.691 126.8989,3.691 C126.2019,3.691 125.7739,4.389 125.7739,5.02 L127.8759,5.02 Z M128.1079,7.084 C127.7779,7.22 127.3509,7.294 126.9969,7.294 C125.7299,7.294 125.2559,6.439 125.2559,5.29 C125.2559,4.119 125.9009,3.286 126.8699,3.286 C127.9509,3.286 128.3939,4.157 128.3939,5.185 L128.3939,5.425 L125.7739,5.425 C125.7739,6.236 126.2099,6.889 127.0349,6.889 C127.3799,6.889 127.8839,6.747 128.1079,6.604 L128.1079,7.084 Z" id="Fill-30" fill="#FFFFFF" mask="url(#mask-2)"></path>
                <path d="M129.8788,4.2768 C129.8788,3.9838 129.8788,3.6838 129.8488,3.3758 L130.3068,3.3758 L130.3068,4.0588 L130.3208,4.0588 C130.4798,3.7138 130.7648,3.2858 131.5608,3.2858 C132.5068,3.2858 132.8658,3.9168 132.8658,4.7568 L132.8658,7.2048 L132.3938,7.2048 L132.3938,4.8778 C132.3938,4.1568 132.1378,3.6908 131.4848,3.6908 C130.6218,3.6908 130.3518,4.4488 130.3518,5.0878 L130.3518,7.2048 L129.8788,7.2048 L129.8788,4.2768 Z" id="Fill-31" fill="#FFFFFF" mask="url(#mask-2)"></path>
                <path d="M134.3427,6.6489 C134.6277,6.7919 134.9737,6.8889 135.3417,6.8889 C135.7917,6.8889 136.1907,6.6419 136.1907,6.2059 C136.1907,5.2979 134.3507,5.4409 134.3507,4.3289 C134.3507,3.5709 134.9657,3.2859 135.5967,3.2859 C135.7997,3.2859 136.2047,3.3309 136.5427,3.4589 L136.4977,3.8719 C136.2497,3.7589 135.9117,3.6909 135.6497,3.6909 C135.1607,3.6909 134.8227,3.8409 134.8227,4.3289 C134.8227,5.0429 136.7077,4.9529 136.7077,6.2059 C136.7077,7.0169 135.9497,7.2949 135.3717,7.2949 C135.0037,7.2949 134.6357,7.2499 134.2977,7.1149 L134.3427,6.6489 Z" id="Fill-32" fill="#FFFFFF" mask="url(#mask-2)"></path>
                <path d="M140.6318,3.8862 C140.3768,3.7742 140.0698,3.6912 139.8138,3.6912 C138.8908,3.6912 138.3718,4.3592 138.3718,5.2902 C138.3718,6.1612 138.8978,6.8892 139.7618,6.8892 C140.0618,6.8892 140.3388,6.8222 140.6248,6.7172 L140.6698,7.1592 C140.3468,7.2722 140.0468,7.2942 139.6868,7.2942 C138.4548,7.2942 137.8548,6.3562 137.8548,5.2902 C137.8548,4.1122 138.6118,3.2852 139.7468,3.2852 C140.2038,3.2852 140.5338,3.3912 140.6698,3.4362 L140.6318,3.8862 Z" id="Fill-33" fill="#FFFFFF" mask="url(#mask-2)"></path>
                <path d="M142.0575,1.5742 L142.5305,1.5742 L142.5305,4.0212 L142.5445,4.0212 C142.7465,3.6012 143.1745,3.2852 143.7395,3.2852 C144.7665,3.2852 145.0435,3.9692 145.0435,4.9152 L145.0435,7.2042 L144.5715,7.2042 L144.5715,4.9222 C144.5715,4.2622 144.4445,3.6912 143.6625,3.6912 C142.8235,3.6912 142.5305,4.4872 142.5305,5.1552 L142.5305,7.2042 L142.0575,7.2042 L142.0575,1.5742 Z" id="Fill-34" fill="#FFFFFF" mask="url(#mask-2)"></path>
                <path d="M148.9697,5.2754 L148.8327,5.2754 C148.0147,5.2754 147.0397,5.3584 147.0397,6.1984 C147.0397,6.7014 147.3997,6.8894 147.8347,6.8894 C148.9467,6.8894 148.9697,5.9214 148.9697,5.5074 L148.9697,5.2754 Z M149.0147,6.5884 L148.9987,6.5884 C148.7877,7.0464 148.2547,7.2944 147.7827,7.2944 C146.6947,7.2944 146.5227,6.5594 146.5227,6.2134 C146.5227,4.9294 147.8877,4.8694 148.8777,4.8694 L148.9697,4.8694 L148.9697,4.6744 C148.9697,4.0214 148.7357,3.6914 148.0987,3.6914 C147.6997,3.6914 147.3247,3.7814 146.9717,4.0064 L146.9717,3.5484 C147.2647,3.4054 147.7607,3.2854 148.0987,3.2854 C149.0437,3.2854 149.4427,3.7134 149.4427,4.7124 L149.4427,6.4014 C149.4427,6.7094 149.4427,6.9424 149.4797,7.2044 L149.0147,7.2044 L149.0147,6.5884 Z" id="Fill-35" fill="#FFFFFF" mask="url(#mask-2)"></path>
                <path d="M151.4736,3.7812 L150.7006,3.7812 L150.7006,3.3762 L151.4736,3.3762 L151.4736,3.0982 C151.4736,2.2952 151.5046,1.4842 152.4876,1.4842 C152.6376,1.4842 152.8406,1.5062 152.9306,1.5592 L152.9016,1.9722 C152.8036,1.9192 152.6606,1.8892 152.5246,1.8892 C151.8796,1.8892 151.9466,2.5872 151.9466,3.0452 L151.9466,3.3762 L152.8096,3.3762 L152.8096,3.7812 L151.9466,3.7812 L151.9466,7.2042 L151.4736,7.2042 L151.4736,3.7812 Z" id="Fill-36" fill="#FFFFFF" mask="url(#mask-2)"></path>
                <path d="M155.8876,3.7812 L155.0166,3.7812 L155.0166,6.2592 C155.0166,6.6042 155.1436,6.8892 155.5266,6.8892 C155.7056,6.8892 155.8266,6.8512 155.9616,6.7992 L155.9916,7.1892 C155.8796,7.2352 155.6476,7.2942 155.4126,7.2942 C154.5736,7.2942 154.5436,6.7172 154.5436,6.0182 L154.5436,3.7812 L153.7916,3.7812 L153.7916,3.3762 L154.5436,3.3762 L154.5436,2.4522 L155.0166,2.2872 L155.0166,3.3762 L155.8876,3.3762 L155.8876,3.7812 Z" id="Fill-37" fill="#FFFFFF" mask="url(#mask-2)"></path>
                <path d="M33.5932,12.8999 C33.2622,12.7279 32.7902,12.6749 32.4222,12.6749 C31.0632,12.6749 30.2972,13.6359 30.2972,14.9349 C30.2972,16.2559 31.0402,17.1939 32.4222,17.1939 C32.7672,17.1939 33.2932,17.1499 33.5932,16.9689 L33.6232,17.4199 C33.3382,17.5919 32.7522,17.6449 32.4222,17.6449 C30.7702,17.6449 29.7792,16.5559 29.7792,14.9349 C29.7792,13.3429 30.8002,12.2249 32.4222,12.2249 C32.7302,12.2249 33.3532,12.2769 33.6232,12.4199 L33.5932,12.8999 Z" id="Fill-38" fill="#FFFFFF" mask="url(#mask-2)"></path>
                <path d="M36.8412,17.2392 C37.6672,17.2392 38.1102,16.5262 38.1102,15.6402 C38.1102,14.7542 37.6672,14.0412 36.8412,14.0412 C36.0152,14.0412 35.5722,14.7542 35.5722,15.6402 C35.5722,16.5262 36.0152,17.2392 36.8412,17.2392 M36.8412,13.6352 C38.0802,13.6352 38.6282,14.5962 38.6282,15.6402 C38.6282,16.6842 38.0802,17.6452 36.8412,17.6452 C35.6022,17.6452 35.0542,16.6842 35.0542,15.6402 C35.0542,14.5962 35.6022,13.6352 36.8412,13.6352" id="Fill-39" fill="#FFFFFF" mask="url(#mask-2)"></path>
                <path d="M40.1049,14.6269 C40.1049,14.3339 40.1049,14.0339 40.0749,13.7259 L40.5329,13.7259 L40.5329,14.4089 L40.5479,14.4089 C40.7059,14.0639 40.9909,13.6359 41.7869,13.6359 C42.7319,13.6359 43.0929,14.2669 43.0929,15.1069 L43.0929,17.5549 L42.6199,17.5549 L42.6199,15.2279 C42.6199,14.5069 42.3649,14.0419 41.7109,14.0419 C40.8479,14.0419 40.5779,14.7989 40.5779,15.4379 L40.5779,17.5549 L40.1049,17.5549 L40.1049,14.6269 Z" id="Fill-40" fill="#FFFFFF" mask="url(#mask-2)"></path>
                <path d="M45.185,14.1313 L44.412,14.1313 L44.412,13.7263 L45.185,13.7263 L45.185,13.4483 C45.185,12.6453 45.215,11.8343 46.198,11.8343 C46.349,11.8343 46.551,11.8563 46.641,11.9093 L46.611,12.3223 C46.514,12.2693 46.371,12.2393 46.236,12.2393 C45.59,12.2393 45.658,12.9373 45.658,13.3953 L45.658,13.7263 L46.521,13.7263 L46.521,14.1313 L45.658,14.1313 L45.658,17.5543 L45.185,17.5543 L45.185,14.1313 Z" id="Fill-41" fill="#FFFFFF" mask="url(#mask-2)"></path>
                <path d="M49.4926,12.247 L50.0856,12.247 L49.1396,13.328 L48.7946,13.328 L49.4926,12.247 Z M50.2806,15.37 C50.2806,14.702 50.0106,14.041 49.3056,14.041 C48.6066,14.041 48.1786,14.739 48.1786,15.37 L50.2806,15.37 Z M50.5136,17.434 C50.1826,17.57 49.7556,17.645 49.4026,17.645 C48.1336,17.645 47.6606,16.789 47.6606,15.64 C47.6606,14.469 48.3066,13.636 49.2746,13.636 C50.3556,13.636 50.7986,14.507 50.7986,15.535 L50.7986,15.775 L48.1786,15.775 C48.1786,16.586 48.6146,17.239 49.4396,17.239 C49.7856,17.239 50.2886,17.097 50.5136,16.954 L50.5136,17.434 Z" id="Fill-42" fill="#FFFFFF" mask="url(#mask-2)"></path>
                <path d="M53.7094,17.2392 C54.5504,17.2392 54.8434,16.3382 54.8434,15.6402 C54.8434,14.9422 54.5504,14.0412 53.7094,14.0412 C52.8084,14.0412 52.5754,14.8972 52.5754,15.6402 C52.5754,16.3832 52.8084,17.2392 53.7094,17.2392 Z M55.3154,17.5542 L54.8434,17.5542 L54.8434,16.9472 L54.8284,16.9472 C54.5724,17.4342 54.1824,17.6452 53.6344,17.6452 C52.5834,17.6452 52.0574,16.7742 52.0574,15.6402 C52.0574,14.4762 52.5084,13.6352 53.6344,13.6352 C54.3854,13.6352 54.7604,14.1842 54.8284,14.3712 L54.8434,14.3712 L54.8434,11.9242 L55.3154,11.9242 L55.3154,17.5542 Z" id="Fill-43" fill="#FFFFFF" mask="url(#mask-2)"></path>
                <path d="M58.5868,12.247 L59.1798,12.247 L58.2338,13.328 L57.8888,13.328 L58.5868,12.247 Z M59.3748,15.37 C59.3748,14.702 59.1048,14.041 58.3988,14.041 C57.7008,14.041 57.2728,14.739 57.2728,15.37 L59.3748,15.37 Z M59.6078,17.434 C59.2768,17.57 58.8498,17.645 58.4968,17.645 C57.2278,17.645 56.7548,16.789 56.7548,15.64 C56.7548,14.469 57.4008,13.636 58.3688,13.636 C59.4498,13.636 59.8928,14.507 59.8928,15.535 L59.8928,15.775 L57.2728,15.775 C57.2728,16.586 57.7088,17.239 58.5338,17.239 C58.8788,17.239 59.3828,17.097 59.6078,16.954 L59.6078,17.434 Z" id="Fill-44" fill="#FFFFFF" mask="url(#mask-2)"></path>
                <path d="M61.3779,14.5815 C61.3779,14.1615 61.3779,14.0035 61.3479,13.7265 L61.8209,13.7265 L61.8209,14.4615 L61.8359,14.4615 C62.0079,14.0335 62.3309,13.6355 62.8189,13.6355 C62.9319,13.6355 63.0669,13.6585 63.1489,13.6815 L63.1489,14.1765 C63.0519,14.1465 62.9239,14.1315 62.8039,14.1315 C62.0529,14.1315 61.8509,14.9725 61.8509,15.6625 L61.8509,17.5545 L61.3779,17.5545 L61.3779,14.5815 Z" id="Fill-45" fill="#FFFFFF" mask="url(#mask-2)"></path>
                <path d="M66.6161,15.6254 L66.4811,15.6254 C65.6631,15.6254 64.6871,15.7084 64.6871,16.5484 C64.6871,17.0514 65.0471,17.2394 65.4831,17.2394 C66.5941,17.2394 66.6161,16.2714 66.6161,15.8574 L66.6161,15.6254 Z M66.6611,16.9384 L66.6461,16.9384 C66.4361,17.3964 65.9031,17.6454 65.4301,17.6454 C64.3421,17.6454 64.1691,16.9094 64.1691,16.5634 C64.1691,15.2794 65.5351,15.2194 66.5261,15.2194 L66.6161,15.2194 L66.6161,15.0244 C66.6161,14.3714 66.3841,14.0414 65.7451,14.0414 C65.3471,14.0414 64.9721,14.1314 64.6191,14.3564 L64.6191,13.8984 C64.9121,13.7554 65.4081,13.6354 65.7451,13.6354 C66.6911,13.6354 67.0891,14.0634 67.0891,15.0624 L67.0891,16.7514 C67.0891,17.0594 67.0891,17.2924 67.1271,17.5544 L66.6611,17.5544 L66.6611,16.9384 Z" id="Fill-46" fill="#FFFFFF" mask="url(#mask-2)"></path>
                <path d="M70.4501,14.1313 L69.5791,14.1313 L69.5791,16.6093 C69.5791,16.9543 69.7071,17.2393 70.0901,17.2393 C70.2701,17.2393 70.3901,17.2013 70.5251,17.1493 L70.5551,17.5393 C70.4431,17.5843 70.2101,17.6453 69.9771,17.6453 C69.1361,17.6453 69.1061,17.0673 69.1061,16.3683 L69.1061,14.1313 L68.3561,14.1313 L68.3561,13.7263 L69.1061,13.7263 L69.1061,12.8023 L69.5791,12.6373 L69.5791,13.7263 L70.4501,13.7263 L70.4501,14.1313 Z" id="Fill-47" fill="#FFFFFF" mask="url(#mask-2)"></path>
                <path d="M71.883,17.5552 L72.356,17.5552 L72.356,13.7262 L71.883,13.7262 L71.883,17.5552 Z M71.882,12.7052 L72.355,12.7052 L72.355,12.0742 L71.882,12.0742 L71.882,12.7052 Z" id="Fill-48" fill="#FFFFFF" mask="url(#mask-2)"></path>
                <path d="M75.6274,17.2392 C76.4534,17.2392 76.8964,16.5262 76.8964,15.6402 C76.8964,14.7542 76.4534,14.0412 75.6274,14.0412 C74.8014,14.0412 74.3584,14.7542 74.3584,15.6402 C74.3584,16.5262 74.8014,17.2392 75.6274,17.2392 M75.6274,13.6352 C76.8664,13.6352 77.4144,14.5962 77.4144,15.6402 C77.4144,16.6842 76.8664,17.6452 75.6274,17.6452 C74.3884,17.6452 73.8404,16.6842 73.8404,15.6402 C73.8404,14.5962 74.3884,13.6352 75.6274,13.6352" id="Fill-49" fill="#FFFFFF" mask="url(#mask-2)"></path>
                <path d="M78.8915,14.6269 C78.8915,14.3339 78.8915,14.0339 78.8615,13.7259 L79.3195,13.7259 L79.3195,14.4089 L79.3345,14.4089 C79.4925,14.0639 79.7775,13.6359 80.5735,13.6359 C81.5185,13.6359 81.8795,14.2669 81.8795,15.1069 L81.8795,17.5549 L81.4065,17.5549 L81.4065,15.2279 C81.4065,14.5069 81.1505,14.0419 80.4975,14.0419 C79.6345,14.0419 79.3645,14.7989 79.3645,15.4379 L79.3645,17.5549 L78.8915,17.5549 L78.8915,14.6269 Z" id="Fill-50" fill="#FFFFFF" mask="url(#mask-2)"></path>
                <path d="M85.9521,16.999 C86.2371,17.142 86.5821,17.239 86.9511,17.239 C87.4011,17.239 87.7991,16.992 87.7991,16.556 C87.7991,15.648 85.9591,15.791 85.9591,14.679 C85.9591,13.921 86.5751,13.636 87.2061,13.636 C87.4091,13.636 87.8141,13.681 88.1521,13.809 L88.1071,14.221 C87.8591,14.109 87.5211,14.041 87.2581,14.041 C86.7701,14.041 86.4321,14.191 86.4321,14.679 C86.4321,15.393 88.3171,15.302 88.3171,16.556 C88.3171,17.367 87.5581,17.645 86.9801,17.645 C86.6131,17.645 86.2451,17.6 85.9071,17.464 L85.9521,16.999 Z" id="Fill-51" fill="#FFFFFF" mask="url(#mask-2)"></path>
                <path d="M92.7367,16.6538 C92.7367,16.9468 92.7367,17.2468 92.7667,17.5548 L92.3087,17.5548 L92.3087,16.8718 L92.2937,16.8718 C92.1357,17.2168 91.8507,17.6448 91.0547,17.6448 C90.1097,17.6448 89.7487,17.0138 89.7487,16.1738 L89.7487,13.7258 L90.2217,13.7258 L90.2217,16.0528 C90.2217,16.7738 90.4767,17.2388 91.1307,17.2388 C91.9937,17.2388 92.2637,16.4808 92.2637,15.8428 L92.2637,13.7258 L92.7367,13.7258 L92.7367,16.6538 Z" id="Fill-52" fill="#FFFFFF" mask="url(#mask-2)"></path>
                <path d="M94.507,17.5552 L94.98,17.5552 L94.98,13.7262 L94.507,13.7262 L94.507,17.5552 Z M94.506,12.7052 L94.979,12.7052 L94.979,12.0742 L94.506,12.0742 L94.506,12.7052 Z" id="Fill-53" fill="#FFFFFF" mask="url(#mask-2)"></path>
                <path d="M96.4648,16.999 C96.7498,17.142 97.0948,17.239 97.4638,17.239 C97.9128,17.239 98.3118,16.992 98.3118,16.556 C98.3118,15.648 96.4718,15.791 96.4718,14.679 C96.4718,13.921 97.0878,13.636 97.7188,13.636 C97.9208,13.636 98.3268,13.681 98.6648,13.809 L98.6198,14.221 C98.3718,14.109 98.0338,14.041 97.7708,14.041 C97.2828,14.041 96.9448,14.191 96.9448,14.679 C96.9448,15.393 98.8288,15.302 98.8288,16.556 C98.8288,17.367 98.0708,17.645 97.4928,17.645 C97.1258,17.645 96.7578,17.6 96.4198,17.464 L96.4648,16.999 Z" id="Fill-54" fill="#FFFFFF" mask="url(#mask-2)"></path>
                <path d="M99.9687,16.999 C100.2537,17.142 100.5987,17.239 100.9677,17.239 C101.4167,17.239 101.8157,16.992 101.8157,16.556 C101.8157,15.648 99.9757,15.791 99.9757,14.679 C99.9757,13.921 100.5917,13.636 101.2227,13.636 C101.4247,13.636 101.8307,13.681 102.1687,13.809 L102.1237,14.221 C101.8757,14.109 101.5377,14.041 101.2747,14.041 C100.7867,14.041 100.4487,14.191 100.4487,14.679 C100.4487,15.393 102.3327,15.302 102.3327,16.556 C102.3327,17.367 101.5747,17.645 100.9967,17.645 C100.6297,17.645 100.2617,17.6 99.9237,17.464 L99.9687,16.999 Z" id="Fill-55" fill="#FFFFFF" mask="url(#mask-2)"></path>
                <path d="M106.1005,15.3701 C106.1005,14.7021 105.8305,14.0411 105.1235,14.0411 C104.4265,14.0411 103.9985,14.7391 103.9985,15.3701 L106.1005,15.3701 Z M106.3325,17.4341 C106.0025,17.5701 105.5755,17.6451 105.2215,17.6451 C103.9545,17.6451 103.4805,16.7891 103.4805,15.6401 C103.4805,14.4691 104.1255,13.6361 105.0945,13.6361 C106.1755,13.6361 106.6185,14.5071 106.6185,15.5351 L106.6185,15.7751 L103.9985,15.7751 C103.9985,16.5861 104.4345,17.2391 105.2595,17.2391 C105.6045,17.2391 106.1085,17.0971 106.3325,16.9541 L106.3325,17.4341 Z" id="Fill-56" fill="#FFFFFF" mask="url(#mask-2)"></path>
                <path d="M33.5932,23.2505 C33.2622,23.0775 32.7902,23.0245 32.4222,23.0245 C31.0632,23.0245 30.2972,23.9855 30.2972,25.2845 C30.2972,26.6055 31.0402,27.5445 32.4222,27.5445 C32.7672,27.5445 33.2932,27.4995 33.5932,27.3195 L33.6232,27.7695 C33.3382,27.9425 32.7522,27.9945 32.4222,27.9945 C30.7702,27.9945 29.7792,26.9065 29.7792,25.2845 C29.7792,23.6935 30.8002,22.5745 32.4222,22.5745 C32.7302,22.5745 33.3532,22.6265 33.6232,22.7705 L33.5932,23.2505 Z" id="Fill-57" fill="#FFFFFF" mask="url(#mask-2)"></path>
                <path d="M36.8412,27.5893 C37.6672,27.5893 38.1102,26.8763 38.1102,25.9903 C38.1102,25.1043 37.6672,24.3913 36.8412,24.3913 C36.0152,24.3913 35.5722,25.1043 35.5722,25.9903 C35.5722,26.8763 36.0152,27.5893 36.8412,27.5893 M36.8412,23.9853 C38.0802,23.9853 38.6282,24.9463 38.6282,25.9903 C38.6282,27.0333 38.0802,27.9943 36.8412,27.9943 C35.6022,27.9943 35.0542,27.0333 35.0542,25.9903 C35.0542,24.9463 35.6022,23.9853 36.8412,23.9853" id="Fill-58" fill="#FFFFFF" mask="url(#mask-2)"></path>
                <path d="M40.1049,24.977 C40.1049,24.684 40.1049,24.384 40.0749,24.076 L40.5329,24.076 L40.5329,24.759 L40.5479,24.759 C40.7059,24.414 40.9909,23.986 41.7869,23.986 C42.7319,23.986 43.0929,24.617 43.0929,25.457 L43.0929,27.905 L42.6199,27.905 L42.6199,25.578 C42.6199,24.857 42.3649,24.391 41.7109,24.391 C40.8479,24.391 40.5779,25.149 40.5779,25.788 L40.5779,27.905 L40.1049,27.905 L40.1049,24.977 Z" id="Fill-59" fill="#FFFFFF" mask="url(#mask-2)"></path>
                <path d="M45.185,24.4814 L44.412,24.4814 L44.412,24.0764 L45.185,24.0764 L45.185,23.7984 C45.185,22.9954 45.215,22.1844 46.198,22.1844 C46.349,22.1844 46.551,22.2064 46.641,22.2594 L46.611,22.6724 C46.514,22.6194 46.371,22.5894 46.236,22.5894 C45.59,22.5894 45.658,23.2874 45.658,23.7454 L45.658,24.0764 L46.521,24.0764 L46.521,24.4814 L45.658,24.4814 L45.658,27.9044 L45.185,27.9044 L45.185,24.4814 Z" id="Fill-60" fill="#FFFFFF" mask="url(#mask-2)"></path>
                <path d="M50.2807,25.7202 C50.2807,25.0522 50.0107,24.3912 49.3047,24.3912 C48.6067,24.3912 48.1787,25.0892 48.1787,25.7202 L50.2807,25.7202 Z M50.5137,27.7842 C50.1827,27.9202 49.7557,27.9942 49.4027,27.9942 C48.1337,27.9942 47.6607,27.1392 47.6607,25.9902 C47.6607,24.8192 48.3067,23.9862 49.2747,23.9862 C50.3557,23.9862 50.7987,24.8572 50.7987,25.8852 L50.7987,26.1252 L48.1787,26.1252 C48.1787,26.9362 48.6137,27.5892 49.4397,27.5892 C49.7857,27.5892 50.2887,27.4472 50.5137,27.3042 L50.5137,27.7842 Z" id="Fill-61" fill="#FFFFFF" mask="url(#mask-2)"></path>
                <path d="M53.7094,27.5893 C54.5504,27.5893 54.8434,26.6883 54.8434,25.9903 C54.8434,25.2923 54.5504,24.3913 53.7094,24.3913 C52.8084,24.3913 52.5754,25.2473 52.5754,25.9903 C52.5754,26.7343 52.8084,27.5893 53.7094,27.5893 Z M55.3154,27.9043 L54.8434,27.9043 L54.8434,27.2973 L54.8284,27.2973 C54.5724,27.7843 54.1824,27.9943 53.6344,27.9943 C52.5834,27.9943 52.0574,27.1243 52.0574,25.9903 C52.0574,24.8263 52.5084,23.9853 53.6344,23.9853 C54.3854,23.9853 54.7604,24.5343 54.8284,24.7213 L54.8434,24.7213 L54.8434,22.2743 L55.3154,22.2743 L55.3154,27.9043 Z" id="Fill-62" fill="#FFFFFF" mask="url(#mask-2)"></path>
                <path d="M59.3749,25.7202 C59.3749,25.0522 59.1049,24.3912 58.3989,24.3912 C57.7009,24.3912 57.2729,25.0892 57.2729,25.7202 L59.3749,25.7202 Z M59.6079,27.7842 C59.2769,27.9202 58.8499,27.9942 58.4969,27.9942 C57.2279,27.9942 56.7549,27.1392 56.7549,25.9902 C56.7549,24.8192 57.4009,23.9862 58.3689,23.9862 C59.4499,23.9862 59.8929,24.8572 59.8929,25.8852 L59.8929,26.1252 L57.2729,26.1252 C57.2729,26.9362 57.7079,27.5892 58.5339,27.5892 C58.8789,27.5892 59.3829,27.4472 59.6079,27.3042 L59.6079,27.7842 Z" id="Fill-63" fill="#FFFFFF" mask="url(#mask-2)"></path>
                <path d="M61.3779,24.9321 C61.3779,24.5111 61.3779,24.3541 61.3479,24.0761 L61.8209,24.0761 L61.8209,24.8121 L61.8359,24.8121 C62.0079,24.3841 62.3309,23.9861 62.8189,23.9861 C62.9319,23.9861 63.0669,24.0081 63.1489,24.0311 L63.1489,24.5261 C63.0519,24.4961 62.9239,24.4811 62.8039,24.4811 C62.0529,24.4811 61.8509,25.3221 61.8509,26.0131 L61.8509,27.9051 L61.3779,27.9051 L61.3779,24.9321 Z" id="Fill-64" fill="#FFFFFF" mask="url(#mask-2)"></path>
                <path d="M66.6161,25.9755 L66.4811,25.9755 C65.6631,25.9755 64.6871,26.0585 64.6871,26.8985 C64.6871,27.4015 65.0471,27.5895 65.4831,27.5895 C66.5941,27.5895 66.6161,26.6215 66.6161,26.2075 L66.6161,25.9755 Z M66.6611,27.2885 L66.6461,27.2885 C66.4361,27.7465 65.9031,27.9945 65.4301,27.9945 C64.3421,27.9945 64.1691,27.2595 64.1691,26.9135 C64.1691,25.6295 65.5351,25.5695 66.5261,25.5695 L66.6161,25.5695 L66.6161,25.3745 C66.6161,24.7215 66.3841,24.3915 65.7451,24.3915 C65.3471,24.3915 64.9721,24.4815 64.6191,24.7065 L64.6191,24.2485 C64.9121,24.1055 65.4081,23.9855 65.7451,23.9855 C66.6911,23.9855 67.0891,24.4135 67.0891,25.4125 L67.0891,27.1015 C67.0891,27.4095 67.0891,27.6425 67.1271,27.9045 L66.6611,27.9045 L66.6611,27.2885 Z" id="Fill-65" fill="#FFFFFF" mask="url(#mask-2)"></path>
                <polygon id="Fill-66" fill="#FFFFFF" mask="url(#mask-2)" points="68.4457 27.5068 70.7507 24.4818 68.5357 24.4818 68.5357 24.0758 71.2987 24.0758 71.2987 24.4818 68.9937 27.4998 71.2987 27.4998 71.2987 27.9048 68.4457 27.9048"></polygon>
                <path d="M72.716,27.9052 L73.189,27.9052 L73.189,24.0762 L72.716,24.0762 L72.716,27.9052 Z M72.715,23.0552 L73.188,23.0552 L73.188,22.4242 L72.715,22.4242 L72.715,23.0552 Z" id="Fill-67" fill="#FFFFFF" mask="url(#mask-2)"></path>
                <path d="M76.4604,27.5893 C77.2864,27.5893 77.7294,26.8763 77.7294,25.9903 C77.7294,25.1043 77.2864,24.3913 76.4604,24.3913 C75.6344,24.3913 75.1914,25.1043 75.1914,25.9903 C75.1914,26.8763 75.6344,27.5893 76.4604,27.5893 M76.4604,23.9853 C77.6994,23.9853 78.2474,24.9463 78.2474,25.9903 C78.2474,27.0333 77.6994,27.9943 76.4604,27.9943 C75.2214,27.9943 74.6734,27.0333 74.6734,25.9903 C74.6734,24.9463 75.2214,23.9853 76.4604,23.9853" id="Fill-68" fill="#FFFFFF" mask="url(#mask-2)"></path>
                <path d="M79.724,24.977 C79.724,24.684 79.724,24.384 79.694,24.076 L80.152,24.076 L80.152,24.759 L80.167,24.759 C80.325,24.414 80.61,23.986 81.406,23.986 C82.351,23.986 82.712,24.617 82.712,25.457 L82.712,27.905 L82.239,27.905 L82.239,25.578 C82.239,24.857 81.984,24.391 81.33,24.391 C80.467,24.391 80.197,25.149 80.197,25.788 L80.197,27.905 L79.724,27.905 L79.724,24.977 Z" id="Fill-69" fill="#FFFFFF" mask="url(#mask-2)"></path>
                <path d="M86.8158,25.7202 C86.8158,25.0522 86.5458,24.3912 85.8398,24.3912 C85.1418,24.3912 84.7138,25.0892 84.7138,25.7202 L86.8158,25.7202 Z M87.0488,27.7842 C86.7178,27.9202 86.2908,27.9942 85.9378,27.9942 C84.6688,27.9942 84.1958,27.1392 84.1958,25.9902 C84.1958,24.8192 84.8418,23.9862 85.8098,23.9862 C86.8908,23.9862 87.3338,24.8572 87.3338,25.8852 L87.3338,26.1252 L84.7138,26.1252 C84.7138,26.9362 85.1488,27.5892 85.9748,27.5892 C86.3208,27.5892 86.8238,27.4472 87.0488,27.3042 L87.0488,27.7842 Z" id="Fill-70" fill="#FFFFFF" mask="url(#mask-2)"></path>
                <path d="M91.3246,27.2368 C91.6326,27.4318 91.9926,27.5448 92.4806,27.5448 C93.1266,27.5448 93.6596,27.2148 93.6596,26.4708 C93.6596,25.4428 91.2576,25.3148 91.2576,23.9408 C91.2576,23.0998 91.9926,22.5748 92.9166,22.5748 C93.1716,22.5748 93.5846,22.6118 93.9446,22.7468 L93.8626,23.2198 C93.6296,23.0928 93.2616,23.0248 92.9086,23.0248 C92.3676,23.0248 91.7756,23.2508 91.7756,23.9258 C91.7756,24.9768 94.1776,24.9848 94.1776,26.5158 C94.1776,27.5748 93.2686,27.9948 92.4586,27.9948 C91.9476,27.9948 91.5496,27.8898 91.2716,27.7698 L91.3246,27.2368 Z" id="Fill-71" fill="#FFFFFF" mask="url(#mask-2)"></path>
                <polygon id="Fill-72" fill="#FFFFFF" mask="url(#mask-2)" points="97.081 27.9047 96.525 27.9047 95.227 24.0757 95.745 24.0757 96.804 27.3867 96.818 27.3867 97.929 24.0757 98.425 24.0757"></polygon>
                <path d="M99.669,27.9052 L100.142,27.9052 L100.142,24.0762 L99.669,24.0762 L99.669,27.9052 Z M99.669,23.0552 L100.142,23.0552 L100.142,22.4242 L99.669,22.4242 L99.669,23.0552 Z" id="Fill-73" fill="#FFFFFF" mask="url(#mask-2)"></path>
                <polygon id="Fill-74" fill="#FFFFFF" mask="url(#mask-2)" points="101.5673 27.5068 103.8723 24.4818 101.6573 24.4818 101.6573 24.0758 104.4193 24.0758 104.4193 24.4818 102.1143 27.4998 104.4193 27.4998 104.4193 27.9048 101.5673 27.9048"></polygon>
                <polygon id="Fill-75" fill="#FFFFFF" mask="url(#mask-2)" points="105.4833 27.5068 107.7883 24.4818 105.5733 24.4818 105.5733 24.0758 108.3373 24.0758 108.3373 24.4818 106.0323 27.4998 108.3373 27.4998 108.3373 27.9048 105.4833 27.9048"></polygon>
                <path d="M112.0888,25.7202 C112.0888,25.0522 111.8178,24.3912 111.1118,24.3912 C110.4148,24.3912 109.9858,25.0892 109.9858,25.7202 L112.0888,25.7202 Z M112.3208,27.7842 C111.9908,27.9202 111.5638,27.9942 111.2098,27.9942 C109.9418,27.9942 109.4678,27.1392 109.4678,25.9902 C109.4678,24.8192 110.1138,23.9862 111.0828,23.9862 C112.1628,23.9862 112.6068,24.8572 112.6068,25.8852 L112.6068,26.1252 L109.9858,26.1252 C109.9858,26.9362 110.4218,27.5892 111.2468,27.5892 C111.5928,27.5892 112.0968,27.4472 112.3208,27.3042 L112.3208,27.7842 Z" id="Fill-76" fill="#FFFFFF" mask="url(#mask-2)"></path>
                <path d="M114.0907,24.9321 C114.0907,24.5111 114.0907,24.3541 114.0607,24.0761 L114.5337,24.0761 L114.5337,24.8121 L114.5477,24.8121 C114.7217,24.3841 115.0437,23.9861 115.5317,23.9861 C115.6447,23.9861 115.7797,24.0081 115.8617,24.0311 L115.8617,24.5261 C115.7647,24.4961 115.6377,24.4811 115.5167,24.4811 C114.7667,24.4811 114.5637,25.3221 114.5637,26.0131 L114.5637,27.9051 L114.0907,27.9051 L114.0907,24.9321 Z" id="Fill-77" fill="#FFFFFF" mask="url(#mask-2)"></path>
                <path d="M119.329,25.9755 L119.194,25.9755 C118.376,25.9755 117.399,26.0585 117.399,26.8985 C117.399,27.4015 117.761,27.5895 118.196,27.5895 C119.307,27.5895 119.329,26.6215 119.329,26.2075 L119.329,25.9755 Z M119.374,27.2885 L119.359,27.2885 C119.149,27.7465 118.616,27.9945 118.143,27.9945 C117.055,27.9945 116.882,27.2595 116.882,26.9135 C116.882,25.6295 118.248,25.5695 119.239,25.5695 L119.329,25.5695 L119.329,25.3745 C119.329,24.7215 119.097,24.3915 118.458,24.3915 C118.06,24.3915 117.684,24.4815 117.333,24.7065 L117.333,24.2485 C117.625,24.1055 118.12,23.9855 118.458,23.9855 C119.404,23.9855 119.802,24.4135 119.802,25.4125 L119.802,27.1015 C119.802,27.4095 119.802,27.6425 119.84,27.9045 L119.374,27.9045 L119.374,27.2885 Z" id="Fill-78" fill="#FFFFFF" mask="url(#mask-2)"></path>
                <path d="M33.5932,33.6001 C33.2622,33.4271 32.7902,33.3741 32.4222,33.3741 C31.0632,33.3741 30.2972,34.3351 30.2972,35.6341 C30.2972,36.9551 31.0402,37.8941 32.4222,37.8941 C32.7672,37.8941 33.2932,37.8491 33.5932,37.6691 L33.6232,38.1191 C33.3382,38.2921 32.7522,38.3441 32.4222,38.3441 C30.7702,38.3441 29.7792,37.2551 29.7792,35.6341 C29.7792,34.0421 30.8002,32.9241 32.4222,32.9241 C32.7302,32.9241 33.3532,32.9761 33.6232,33.1201 L33.5932,33.6001 Z" id="Fill-79" fill="#FFFFFF" mask="url(#mask-2)"></path>
                <path d="M36.8412,37.9389 C37.6672,37.9389 38.1102,37.2259 38.1102,36.3389 C38.1102,35.4549 37.6672,34.7409 36.8412,34.7409 C36.0152,34.7409 35.5722,35.4549 35.5722,36.3389 C35.5722,37.2259 36.0152,37.9389 36.8412,37.9389 M36.8412,34.3349 C38.0802,34.3349 38.6282,35.2959 38.6282,36.3389 C38.6282,37.3829 38.0802,38.3439 36.8412,38.3439 C35.6022,38.3439 35.0542,37.3829 35.0542,36.3389 C35.0542,35.2959 35.6022,34.3349 36.8412,34.3349" id="Fill-80" fill="#FFFFFF" mask="url(#mask-2)"></path>
                <path d="M40.1049,35.3266 C40.1049,35.0336 40.1049,34.7336 40.0749,34.4256 L40.5329,34.4256 L40.5329,35.1086 L40.5479,35.1086 C40.7059,34.7636 40.9909,34.3356 41.7869,34.3356 C42.7319,34.3356 43.0929,34.9666 43.0929,35.8066 L43.0929,38.2546 L42.6199,38.2546 L42.6199,35.9276 C42.6199,35.2066 42.3649,34.7406 41.7109,34.7406 C40.8479,34.7406 40.5779,35.4996 40.5779,36.1376 L40.5779,38.2546 L40.1049,38.2546 L40.1049,35.3266 Z" id="Fill-81" fill="#FFFFFF" mask="url(#mask-2)"></path>
                <path d="M45.185,34.8315 L44.412,34.8315 L44.412,34.4255 L45.185,34.4255 L45.185,34.1475 C45.185,33.3455 45.215,32.5335 46.198,32.5335 C46.349,32.5335 46.551,32.5565 46.641,32.6085 L46.611,33.0215 C46.514,32.9695 46.371,32.9385 46.236,32.9385 C45.59,32.9385 45.658,33.6375 45.658,34.0955 L45.658,34.4255 L46.521,34.4255 L46.521,34.8315 L45.658,34.8315 L45.658,38.2545 L45.185,38.2545 L45.185,34.8315 Z" id="Fill-82" fill="#FFFFFF" mask="url(#mask-2)"></path>
                <path d="M50.2807,36.0698 C50.2807,35.4018 50.0107,34.7408 49.3047,34.7408 C48.6067,34.7408 48.1787,35.4388 48.1787,36.0698 L50.2807,36.0698 Z M50.5137,38.1338 C50.1827,38.2688 49.7557,38.3438 49.4027,38.3438 C48.1337,38.3438 47.6607,37.4888 47.6607,36.3398 C47.6607,35.1698 48.3067,34.3358 49.2747,34.3358 C50.3557,34.3358 50.7987,35.2068 50.7987,36.2348 L50.7987,36.4748 L48.1787,36.4748 C48.1787,37.2868 48.6137,37.9388 49.4397,37.9388 C49.7857,37.9388 50.2887,37.7968 50.5137,37.6538 L50.5137,38.1338 Z" id="Fill-83" fill="#FFFFFF" mask="url(#mask-2)"></path>
                <path d="M53.7094,37.9389 C54.5504,37.9389 54.8434,37.0389 54.8434,36.3389 C54.8434,35.6419 54.5504,34.7409 53.7094,34.7409 C52.8084,34.7409 52.5754,35.5969 52.5754,36.3389 C52.5754,37.0839 52.8084,37.9389 53.7094,37.9389 Z M55.3154,38.2539 L54.8434,38.2539 L54.8434,37.6459 L54.8284,37.6459 C54.5724,38.1339 54.1824,38.3439 53.6344,38.3439 C52.5834,38.3439 52.0574,37.4739 52.0574,36.3389 C52.0574,35.1759 52.5084,34.3349 53.6344,34.3349 C54.3854,34.3349 54.7604,34.8839 54.8284,35.0719 L54.8434,35.0719 L54.8434,32.6249 L55.3154,32.6249 L55.3154,38.2539 Z" id="Fill-84" fill="#FFFFFF" mask="url(#mask-2)"></path>
                <path d="M59.3749,36.0698 C59.3749,35.4018 59.1049,34.7408 58.3989,34.7408 C57.7009,34.7408 57.2729,35.4388 57.2729,36.0698 L59.3749,36.0698 Z M59.6079,38.1338 C59.2769,38.2688 58.8499,38.3438 58.4969,38.3438 C57.2279,38.3438 56.7549,37.4888 56.7549,36.3398 C56.7549,35.1698 57.4009,34.3358 58.3689,34.3358 C59.4499,34.3358 59.8929,35.2068 59.8929,36.2348 L59.8929,36.4748 L57.2729,36.4748 C57.2729,37.2868 57.7079,37.9388 58.5339,37.9388 C58.8789,37.9388 59.3829,37.7968 59.6079,37.6538 L59.6079,38.1338 Z" id="Fill-85" fill="#FFFFFF" mask="url(#mask-2)"></path>
                <path d="M61.3779,35.2817 C61.3779,34.8607 61.3779,34.7037 61.3479,34.4257 L61.8209,34.4257 L61.8209,35.1617 L61.8359,35.1617 C62.0079,34.7337 62.3309,34.3357 62.8189,34.3357 C62.9319,34.3357 63.0669,34.3577 63.1489,34.3807 L63.1489,34.8767 C63.0519,34.8457 62.9239,34.8317 62.8039,34.8317 C62.0529,34.8317 61.8509,35.6717 61.8509,36.3627 L61.8509,38.2547 L61.3779,38.2547 L61.3779,35.2817 Z" id="Fill-86" fill="#FFFFFF" mask="url(#mask-2)"></path>
                <path d="M66.6161,36.3257 L66.4811,36.3257 C65.6631,36.3257 64.6871,36.4077 64.6871,37.2487 C64.6871,37.7517 65.0471,37.9387 65.4831,37.9387 C66.5941,37.9387 66.6161,36.9707 66.6161,36.5577 L66.6161,36.3257 Z M66.6611,37.6377 L66.6461,37.6377 C66.4361,38.0967 65.9031,38.3447 65.4301,38.3447 C64.3421,38.3447 64.1691,37.6087 64.1691,37.2627 C64.1691,35.9797 65.5351,35.9197 66.5261,35.9197 L66.6161,35.9197 L66.6161,35.7237 C66.6161,35.0717 66.3841,34.7407 65.7451,34.7407 C65.3471,34.7407 64.9721,34.8317 64.6191,35.0557 L64.6191,34.5977 C64.9121,34.4557 65.4081,34.3357 65.7451,34.3357 C66.6911,34.3357 67.0891,34.7637 67.0891,35.7627 L67.0891,37.4507 C67.0891,37.7597 67.0891,37.9917 67.1271,38.2547 L66.6611,38.2547 L66.6611,37.6377 Z" id="Fill-87" fill="#FFFFFF" mask="url(#mask-2)"></path>
                <polygon id="Fill-88" fill="#FFFFFF" mask="url(#mask-2)" points="68.4457 37.8569 70.7507 34.8319 68.5357 34.8319 68.5357 34.4249 71.2987 34.4249 71.2987 34.8319 68.9937 37.8489 71.2987 37.8489 71.2987 38.2539 68.4457 38.2539"></polygon>
                <path d="M72.716,38.2542 L73.189,38.2542 L73.189,34.4252 L72.716,34.4252 L72.716,38.2542 Z M72.715,33.4052 L73.188,33.4052 L73.188,32.7742 L72.715,32.7742 L72.715,33.4052 Z" id="Fill-89" fill="#FFFFFF" mask="url(#mask-2)"></path>
                <path d="M77.9545,37.353 C77.9545,37.646 77.9545,37.947 77.9845,38.254 L77.5265,38.254 L77.5265,37.572 L77.5115,37.572 C77.3535,37.916 77.0685,38.344 76.2725,38.344 C75.3275,38.344 74.9665,37.714 74.9665,36.873 L74.9665,34.425 L75.4395,34.425 L75.4395,36.753 C75.4395,37.474 75.6945,37.939 76.3485,37.939 C77.2115,37.939 77.4815,37.181 77.4815,36.542 L77.4815,34.425 L77.9545,34.425 L77.9545,37.353 Z" id="Fill-90" fill="#FFFFFF" mask="url(#mask-2)"></path>
                <path d="M79.724,35.3266 C79.724,35.0336 79.724,34.7336 79.694,34.4256 L80.152,34.4256 L80.152,35.1086 L80.167,35.1086 C80.325,34.7636 80.61,34.3356 81.406,34.3356 C82.351,34.3356 82.712,34.9666 82.712,35.8066 L82.712,38.2546 L82.239,38.2546 L82.239,35.9276 C82.239,35.2066 81.984,34.7406 81.33,34.7406 C80.467,34.7406 80.197,35.4996 80.197,36.1376 L80.197,38.2546 L79.724,38.2546 L79.724,35.3266 Z" id="Fill-91" fill="#FFFFFF" mask="url(#mask-2)"></path>
                <path d="M86.7851,37.6987 C87.0701,37.8417 87.4151,37.9387 87.7841,37.9387 C88.2341,37.9387 88.6321,37.6907 88.6321,37.2557 C88.6321,36.3467 86.7921,36.4897 86.7921,35.3787 C86.7921,34.6207 87.4081,34.3357 88.0391,34.3357 C88.2421,34.3357 88.6471,34.3807 88.9851,34.5087 L88.9401,34.9217 C88.6921,34.8077 88.3541,34.7407 88.0911,34.7407 C87.6031,34.7407 87.2651,34.8907 87.2651,35.3787 C87.2651,36.0927 89.1501,36.0027 89.1501,37.2557 C89.1501,38.0667 88.3911,38.3447 87.8131,38.3447 C87.4461,38.3447 87.0781,38.2997 86.7401,38.1647 L86.7851,37.6987 Z" id="Fill-92" fill="#FFFFFF" mask="url(#mask-2)"></path>
                <polygon id="Fill-93" fill="#FFFFFF" mask="url(#mask-2)" points="91.9106 38.2544 91.3546 38.2544 90.0566 34.4254 90.5746 34.4254 91.6326 37.7354 91.6476 37.7354 92.7586 34.4254 93.2546 34.4254"></polygon>
                <path d="M94.499,38.2542 L94.972,38.2542 L94.972,34.4252 L94.499,34.4252 L94.499,38.2542 Z M94.499,33.4052 L94.972,33.4052 L94.972,32.7742 L94.499,32.7742 L94.499,33.4052 Z" id="Fill-94" fill="#FFFFFF" mask="url(#mask-2)"></path>
                <polygon id="Fill-95" fill="#FFFFFF" mask="url(#mask-2)" points="96.3974 37.8569 98.7024 34.8319 96.4874 34.8319 96.4874 34.4249 99.2494 34.4249 99.2494 34.8319 96.9444 37.8489 99.2494 37.8489 99.2494 38.2539 96.3974 38.2539"></polygon>
                <path d="M100.6669,35.2817 C100.6669,34.8607 100.6669,34.7037 100.6369,34.4257 L101.1099,34.4257 L101.1099,35.1617 L101.1239,35.1617 C101.2979,34.7337 101.6199,34.3357 102.1079,34.3357 C102.2209,34.3357 102.3559,34.3577 102.4379,34.3807 L102.4379,34.8767 C102.3409,34.8457 102.2139,34.8317 102.0929,34.8317 C101.3429,34.8317 101.1399,35.6717 101.1399,36.3627 L101.1399,38.2547 L100.6669,38.2547 L100.6669,35.2817 Z" id="Fill-96" fill="#FFFFFF" mask="url(#mask-2)"></path>
                <path d="M105.9052,36.3257 L105.7702,36.3257 C104.9522,36.3257 103.9752,36.4077 103.9752,37.2487 C103.9752,37.7517 104.3372,37.9387 104.7722,37.9387 C105.8832,37.9387 105.9052,36.9707 105.9052,36.5577 L105.9052,36.3257 Z M105.9502,37.6377 L105.9352,37.6377 C105.7252,38.0967 105.1922,38.3447 104.7192,38.3447 C103.6312,38.3447 103.4582,37.6087 103.4582,37.2627 C103.4582,35.9797 104.8242,35.9197 105.8152,35.9197 L105.9052,35.9197 L105.9052,35.7237 C105.9052,35.0717 105.6732,34.7407 105.0342,34.7407 C104.6362,34.7407 104.2602,34.8317 103.9092,35.0557 L103.9092,34.5977 C104.2012,34.4557 104.6962,34.3357 105.0342,34.3357 C105.9802,34.3357 106.3782,34.7637 106.3782,35.7627 L106.3782,37.4507 C106.3782,37.7597 106.3782,37.9917 106.4162,38.2547 L105.9502,38.2547 L105.9502,37.6377 Z" id="Fill-97" fill="#FFFFFF" mask="url(#mask-2)"></path>
                <path d="M13.2753701,1.14450667 C7.20574315,1.14450667 3.5814992,2.68123653 3.5814992,2.68123653 C3.5814992,2.68123653 3.25642214,9.48599664 4.63252081,13.3340107 C7.06238051,20.098982 13.2726307,22 13.2726307,22 C13.2762833,22 19.4847072,20.098982 21.9163932,13.3340107 C23.2915787,9.48599664 22.9665017,2.68123653 22.9665017,2.68123653 C22.9665017,2.68123653 19.3422577,1.14450667 13.2753701,1.14450667 Z" id="Fill-98" stroke="#FFFFFF" stroke-width="0.25" mask="url(#mask-2)"></path>
                <polygon id="Fill-99" fill="#FFFFFF" mask="url(#mask-2)" points="19.4295 8.34922582 19.4295 12.0776362 15.0793948 12.0776362 15.0793948 16.4286207 11.3501052 16.4286207 11.3501052 12.0776362 7 12.0776362 7 8.34922582 11.3501052 8.34922582 11.3501052 4 15.0785155 4 15.0793948 8.34922582"></polygon>
            </g>
        </g>
    </g>
</svg>