<svg xmlns="http://www.w3.org/2000/svg" viewBox="0 0 740.5 517.501">
  <defs>
    <clipPath id="a">
      <path d="M0 0h217v216H0z" class="a" transform="translate(274 1233)"/>
    </clipPath>
    <clipPath id="b">
      <path d="M0 0h217v216H0z" class="b" transform="translate(274 1233)"/>
    </clipPath>
    <style>
      .a{fill:#997fde}.b{fill:#92b8d8}.c,.h{fill:none}.c{stroke:#000;stroke-width:2px}.h{stroke:#707070;stroke-dasharray:5}
    </style>
  </defs>
  <path d="M50 6.001l-1 437m10.75 11.5l670.25-.5" class="c"/>
  <path fill="#68c7b8" d="M287.5 228.501h217v216h-217z"/>
  <path d="M282 .001l-.5 455" class="c"/>
  <text font-family="Roboto-Medium,Roboto" font-size="70" font-weight="500" transform="translate(47.5 435.501)">
    <tspan x="0" y="65">-</tspan>
  </text>
  <path d="M59.75 454.501l-.25 12" class="c"/>
  <text font-family="Roboto-Medium,Roboto" font-size="40" font-weight="500" transform="translate(717.5 458.501)">
    <tspan x="0" y="37">+</tspan>
  </text>
  <path d="M729.25 454.001l-.25 12" class="c"/>
  <path fill="#d8af46" d="M512.5.501h217v442h-217z"/>
  <path d="M508 .501l1 498.5" class="h"/>
  <path d="M499.455 503.601h-1.208v11.889h1.208v1.384h-2.988v-14.663h2.988zm3.911 5.583l1.509-2.608h1.978l-2.424 3.9 2.504 4.025h-1.963l-1.582-2.71-1.575 2.71h-1.977l2.5-4.021-2.417-3.9h1.968zm3.875-6.973h3v14.663h-3v-1.384h1.223v-11.889h-1.223zm8.481 3.677a2.14 2.14 0 01.623-1.587 2.479 2.479 0 013.278 0 2.194 2.194 0 01.619 1.622v.527a2.126 2.126 0 01-.619 1.575 2.211 2.211 0 01-1.63.615 2.281 2.281 0 01-1.63-.6 2.133 2.133 0 01-.641-1.63zm1.245.564a1.17 1.17 0 00.282.817.955.955 0 00.743.311.935.935 0 00.732-.311 1.223 1.223 0 00.278-.846v-.535a1.183 1.183 0 00-.282-.82.95.95 0 00-.743-.315.923.923 0 00-.736.319 1.239 1.239 0 00-.275.839zm3.882 5.435a2.1 2.1 0 01.637-1.586 2.483 2.483 0 013.256 0 2.167 2.167 0 01.634 1.641v.52a2.142 2.142 0 01-.612 1.571 2.2 2.2 0 01-1.637.619 2.263 2.263 0 01-1.652-.612 2.155 2.155 0 01-.626-1.615zm1.245.571a1.168 1.168 0 00.289.817.959.959 0 00.743.319.929.929 0 00.736-.3 1.25 1.25 0 00.267-.853v-.549a1.158 1.158 0 00-.286-.82 1.03 1.03 0 00-1.469 0 1.21 1.21 0 00-.282.85zm-3.735 1.243l-.916-.527 5.208-8.335.916.527z"/>
  <path fill="#c7687e" d="M58.5.501h217v217h-217z"/>
  <path d="M50 5.501l8.5 15h-17z"/>
  <path d="M38 222.501h466.5" class="h"/>
  <path d="M6.57 222.314h1.2a1.7 1.7 0 001.273-.43 1.574 1.574 0 00.414-1.141 1.392 1.392 0 00-.41-1.07 1.59 1.59 0 00-1.129-.383 1.666 1.666 0 00-1.086.355 1.137 1.137 0 00-.432.926H4.141a2.777 2.777 0 01.48-1.6 3.2 3.2 0 011.344-1.103 4.485 4.485 0 011.9-.4 4.253 4.253 0 012.835.865 2.945 2.945 0 011.019 2.379 2.394 2.394 0 01-.477 1.438 3.1 3.1 0 01-1.25 1.008 2.826 2.826 0 011.434 1.031 2.8 2.8 0 01.474 1.625 2.994 2.994 0 01-1.105 2.43 4.445 4.445 0 01-2.926.914 4.214 4.214 0 01-2.785-.9A2.934 2.934 0 014 225.884h2.258a1.308 1.308 0 00.48 1.047 1.771 1.771 0 001.184.406 1.779 1.779 0 001.262-.426 1.47 1.47 0 00.457-1.129q0-1.7-1.875-1.7H6.57zm14.539 1.987a5.763 5.763 0 01-.977 3.609 3.409 3.409 0 01-2.859 1.25 3.433 3.433 0 01-2.843-1.229 5.594 5.594 0 01-1.008-3.516v-2.094a5.687 5.687 0 01.988-3.62 3.434 3.434 0 012.848-1.234 3.437 3.437 0 012.842 1.225 5.576 5.576 0 011.009 3.509zm-2.257-2.3a4.158 4.158 0 00-.387-2.059 1.307 1.307 0 00-1.207-.641 1.284 1.284 0 00-1.176.613 3.891 3.891 0 00-.4 1.918v2.766a4.365 4.365 0 00.379 2.066 1.29 1.29 0 001.215.676 1.268 1.268 0 001.2-.648 4.26 4.26 0 00.383-1.984zm3.748-2.187a2.249 2.249 0 01.68-1.7 2.465 2.465 0 011.781-.652 2.5 2.5 0 011.8.645 2.292 2.292 0 01.68 1.746v.563a2.221 2.221 0 01-.68 1.7 2.491 2.491 0 01-1.781.641 2.507 2.507 0 01-1.793-.645 2.275 2.275 0 01-.687-1.744zm1.5.6a1.053 1.053 0 00.27.754.928.928 0 00.707.285.885.885 0 00.7-.289 1.119 1.119 0 00.258-.773v-.577a1.1 1.1 0 00-.258-.758 1 1 0 00-1.406 0 1.119 1.119 0 00-.266.793zm3.938 5.8a2.22 2.22 0 01.688-1.7 2.5 2.5 0 011.781-.645 2.525 2.525 0 011.793.632 2.279 2.279 0 01.684 1.754v.563a2.237 2.237 0 01-.672 1.691 2.476 2.476 0 01-1.789.645 2.506 2.506 0 01-1.8-.648 2.265 2.265 0 01-.68-1.719zm1.5.609a1.044 1.044 0 00.281.734.917.917 0 00.7.3q.953 0 .953-1.055v-.594a1.062 1.062 0 00-.266-.754 1.009 1.009 0 00-1.406 0 1.1 1.1 0 00-.266.777zm-4.016 1.328l-1.1-.594 5.555-8.891 1.1.594zM8.141 174.142l3.859.671v2.672L.625 175.517l.008-4.086a4.116 4.116 0 011.055-2.989 3.252 3.252 0 012.734-.957 3.72 3.72 0 011.992.734 4.068 4.068 0 011.286 1.692 5.981 5.981 0 01.445 2.355zm-2.117-.367l.016-1.609a1.988 1.988 0 00-.66-1.555 1.963 1.963 0 00-1.566-.43 1.2 1.2 0 00-.754.363 1.246 1.246 0 00-.309.793l-.009 1.864zm-.094-12.454a7.354 7.354 0 00-.078.8 1.985 1.985 0 00.8 1.766l5.348.95v2.57l-8.453-1.469-.008-2.4 1.109.2a2.347 2.347 0 01-1.281-1.953 3.683 3.683 0 01.109-.8zm-2.539-4.508a3.55 3.55 0 01.566-1.961 3.191 3.191 0 011.535-1.215 4.737 4.737 0 012.188-.277l.172.016a5.01 5.01 0 013.141 1.445 4.067 4.067 0 011.164 3.031 3.535 3.535 0 01-.557 1.949 3.211 3.211 0 01-1.52 1.215 4.6 4.6 0 01-2.172.285 5.211 5.211 0 01-3.312-1.426 4.041 4.041 0 01-1.205-3.062zm4.516 1.914l.461.023q1.742.109 1.773-1.063.047-1.516-2.461-1.758l-.711-.031a1.921 1.921 0 00-1.121.262.953.953 0 00-.434.816 1.343 1.343 0 00.586 1.17 3.813 3.813 0 001.906.582zm-6.461-10.6l2.1.367v-1.352l1.828.32v1.351l3.883.656a1.035 1.035 0 00.6-.051q.2-.105.219-.527a6.109 6.109 0 00-.039-.672l1.906.187a4.154 4.154 0 01.2 1.383 2.278 2.278 0 01-.7 1.789 2.4 2.4 0 01-1.867.484l-4.2-.688v1.049l-1.828-.313v-1.047l-2.1-.367zm10.711-4.789a3.929 3.929 0 01-.535 2.02 3.372 3.372 0 01-1.469 1.34 3.946 3.946 0 01-2.074.359l-.219-.023a5.182 5.182 0 01-3.3-1.449 4.009 4.009 0 01-1.168-3.035 3.273 3.273 0 01.551-1.859 3.078 3.078 0 011.477-1.133 4.516 4.516 0 012.113-.234l1.07.148v5.029a1.648 1.648 0 001.078-.375 1.377 1.377 0 00.438-1.047 2.66 2.66 0 00-.859-2.008l1.43-1.078a3.182 3.182 0 011.066 1.332 4.667 4.667 0 01.4 1.871zm-6.742-.625a1.318 1.318 0 00.344.949 2.887 2.887 0 001.2.7v-2.57l-.227-.047a1.733 1.733 0 00-.516-.016.906.906 0 00-.802.983zm4.719-7.617a1.1 1.1 0 00-.309-.867 1.54 1.54 0 00-.84-.4l-.008-2.406a3.163 3.163 0 011.664.551 3.328 3.328 0 011.137 1.359 4.019 4.019 0 01.379 1.832 3.173 3.173 0 01-1.215 2.6 4.2 4.2 0 01-3.059.742l-.187-.023a5.663 5.663 0 01-2.27-.719 4.112 4.112 0 01-1.526-1.518 3.941 3.941 0 01-.508-2.105 3.143 3.143 0 01.941-2.332 3.338 3.338 0 012.457-.824l-.008 2.406q-1.344-.039-1.367.961-.047 1.359 2.289 1.562l.8.07.3.008q1.305 0 1.329-.898zm-8.687-9.047l2.1.367v-1.352l1.828.32v1.351l3.883.656a1.035 1.035 0 00.6-.051q.2-.105.219-.527a6.109 6.109 0 00-.039-.672l1.906.187a4.154 4.154 0 01.2 1.383 2.278 2.278 0 01-.7 1.789 2.4 2.4 0 01-1.867.484l-4.2-.688v1.049l-1.828-.313v-1.047l-2.1-.367zm10.711-4.789a3.929 3.929 0 01-.535 2.02 3.372 3.372 0 01-1.469 1.34 3.946 3.946 0 01-2.074.359l-.219-.023a5.182 5.182 0 01-3.302-1.455 4.009 4.009 0 01-1.168-3.035 3.273 3.273 0 01.551-1.859 3.078 3.078 0 011.477-1.133 4.516 4.516 0 012.113-.234l1.07.148v5.035a1.648 1.648 0 001.078-.375 1.377 1.377 0 00.438-1.047 2.66 2.66 0 00-.859-2.008l1.43-1.078a3.182 3.182 0 011.066 1.332 4.667 4.667 0 01.4 1.871zm-6.742-.625a1.318 1.318 0 00.344.949 2.887 2.887 0 001.2.7v-2.57l-.227-.047a1.733 1.733 0 00-.516-.016.906.906 0 00-.803.983zm2.344-4.125a6.148 6.148 0 01-3.2-1.219 3.02 3.02 0 01-1.164-2.547 2.3 2.3 0 01.906-1.789l-4.3-.82v-2.578L12 109.634v2.289l-.914-.109a2.638 2.638 0 011.078 2.1 2.328 2.328 0 01-.9 1.91 3.979 3.979 0 01-2.379.738 7.317 7.317 0 01-.961-.031zm.172-2.563a6.135 6.135 0 00.875.055q1.3 0 1.32-.875a1.639 1.639 0 00-.727-1.352l-3.244-.574a1.041 1.041 0 00-.742 1.031 1.314 1.314 0 00.621 1.16 4.006 4.006 0 001.895.554zM12 99.415a2.292 2.292 0 01-.766.109 2.608 2.608 0 01.922 2.07 2.548 2.548 0 01-.734 1.828 2.207 2.207 0 01-1.742.68 2.48 2.48 0 01-2.113-1.148 5.415 5.415 0 01-.738-3.031l.016-.859-.477-.094-.414-.031a.671.671 0 00-.734.711.988.988 0 00.93 1.039l.008 2.578a2.448 2.448 0 01-1.48-.555 3.288 3.288 0 01-.969-1.4 4.9 4.9 0 01-.316-1.887 3.778 3.778 0 01.4-1.684 2.506 2.506 0 011.055-1.082 2.694 2.694 0 011.559-.273l3.977.633.484.039a2.135 2.135 0 00.984-.148l.148.005zm-1.7 1.469a1.658 1.658 0 00-.7-1.383l-1.359-.258-.008.664a1.75 1.75 0 00.363 1.062 1.378 1.378 0 00.949.523.692.692 0 00.527-.121.619.619 0 00.228-.487zM5.93 89.767a7.354 7.354 0 00-.078.8 1.985 1.985 0 00.8 1.766l5.348.949v2.57l-8.453-1.469-.008-2.4 1.109.2a2.347 2.347 0 01-1.281-1.953 3.683 3.683 0 01.109-.8zm6.227-3.914a3.929 3.929 0 01-.535 2.02 3.372 3.372 0 01-1.469 1.34 3.946 3.946 0 01-2.074.359l-.219-.023a5.182 5.182 0 01-3.3-1.449 4.009 4.009 0 01-1.168-3.035 3.273 3.273 0 01.551-1.859 3.079 3.079 0 011.475-1.135 4.516 4.516 0 012.113-.234l1.07.148v5.032a1.648 1.648 0 001.078-.375 1.377 1.377 0 00.438-1.047 2.66 2.66 0 00-.859-2.008l1.43-1.078a3.182 3.182 0 011.066 1.332 4.667 4.667 0 01.4 1.871zm-6.742-.625a1.318 1.318 0 00.344.949 2.887 2.887 0 001.2.7v-2.576l-.227-.047a1.733 1.733 0 00-.516-.016.906.906 0 00-.802.99zM12 76.759a2.292 2.292 0 01-.766.109 2.608 2.608 0 01.922 2.07 2.548 2.548 0 01-.734 1.828 2.207 2.207 0 01-1.742.68 2.48 2.48 0 01-2.114-1.145 5.415 5.415 0 01-.738-3.031l.016-.859-.477-.094-.414-.031a.671.671 0 00-.734.711.988.988 0 00.93 1.039l.008 2.578a2.448 2.448 0 01-1.48-.555 3.288 3.288 0 01-.969-1.4 4.9 4.9 0 01-.316-1.887 3.778 3.778 0 01.4-1.684 2.506 2.506 0 011.056-1.087 2.694 2.694 0 011.559-.273l3.977.633.484.039a2.135 2.135 0 00.984-.148l.148.008zm-1.7 1.469a1.658 1.658 0 00-.7-1.383l-1.359-.258-.008.664a1.75 1.75 0 00.363 1.062 1.378 1.378 0 00.949.523.692.692 0 00.527-.121.619.619 0 00.228-.487zm-.164-12.875a1.1 1.1 0 00-.309-.867 1.54 1.54 0 00-.84-.4l-.008-2.406a3.163 3.163 0 011.664.551 3.328 3.328 0 011.137 1.359 4.019 4.019 0 01.379 1.832 3.173 3.173 0 01-1.215 2.6 4.2 4.2 0 01-3.059.742l-.187-.023a5.663 5.663 0 01-2.27-.719A4.112 4.112 0 013.9 66.501a3.941 3.941 0 01-.508-2.105 3.143 3.143 0 01.941-2.332 3.338 3.338 0 012.457-.824l-.008 2.406q-1.344-.039-1.367.961-.047 1.359 2.289 1.562l.8.07.3.008q1.305.004 1.329-.894zm-6.745-9.152a3.55 3.55 0 01.566-1.961 3.191 3.191 0 011.535-1.215 4.737 4.737 0 012.188-.277l.172.016a5.01 5.01 0 013.141 1.445 4.067 4.067 0 011.164 3.031 3.535 3.535 0 01-.559 1.945 3.211 3.211 0 01-1.52 1.215 4.6 4.6 0 01-2.172.285 5.211 5.211 0 01-3.312-1.426 4.041 4.041 0 01-1.203-3.058zm4.516 1.914l.461.023q1.742.109 1.773-1.063.047-1.516-2.461-1.758l-.711-.031a1.921 1.921 0 00-1.121.262.953.953 0 00-.434.816A1.343 1.343 0 006 57.528a3.813 3.813 0 001.906.582zm.93-9.484l-5.289-2.117v-2.773l8.453 4v2.617l-8.454 1.343V49.06zm3.32-8.375a3.929 3.929 0 01-.535 2.02 3.372 3.372 0 01-1.469 1.34 3.947 3.947 0 01-2.074.359l-.219-.023a5.182 5.182 0 01-3.301-1.451 4.009 4.009 0 01-1.168-3.035 3.273 3.273 0 01.551-1.859 3.078 3.078 0 011.477-1.133 4.516 4.516 0 012.113-.234l1.07.148v5.031a1.648 1.648 0 001.078-.375 1.377 1.377 0 00.438-1.047 2.66 2.66 0 00-.859-2.008l1.43-1.078a3.182 3.182 0 011.066 1.332 4.667 4.667 0 01.4 1.871zm-6.742-.625a1.318 1.318 0 00.344.949 2.887 2.887 0 001.2.7v-2.57l-.227-.047a1.733 1.733 0 00-.516-.016.906.906 0 00-.802.979zm.516-9.8a7.354 7.354 0 00-.078.8 1.985 1.985 0 00.8 1.766l5.347.94v2.57l-8.453-1.469-.008-2.4 1.109.2a2.347 2.347 0 01-1.281-1.953 3.683 3.683 0 01.109-.8zm6.069-4.4a2.292 2.292 0 01-.766.109 2.608 2.608 0 01.922 2.07 2.548 2.548 0 01-.734 1.828 2.207 2.207 0 01-1.742.68 2.48 2.48 0 01-2.113-1.148 5.414 5.414 0 01-.738-3.031l.016-.859-.477-.094-.414-.031a.671.671 0 00-.734.711.988.988 0 00.93 1.039l.008 2.578a2.448 2.448 0 01-1.48-.555 3.288 3.288 0 01-.969-1.4 4.9 4.9 0 01-.316-1.887 3.778 3.778 0 01.4-1.684 2.506 2.506 0 011.055-1.082 2.694 2.694 0 011.559-.273l3.977.633.484.039a2.135 2.135 0 00.984-.148l.148.005zm-1.7 1.47a1.658 1.658 0 00-.7-1.383l-1.359-.258-.008.664a1.75 1.75 0 00.363 1.062 1.378 1.378 0 00.949.523.692.692 0 00.527-.121.619.619 0 00.228-.487zm-2.539-5.453a6.423 6.423 0 01-2.3-.7 4.057 4.057 0 01-1.559-1.379 3.32 3.32 0 01-.512-1.875 2.308 2.308 0 01.914-1.922l-.758-.273.008-2.375 8.118 1.377a3.971 3.971 0 012.711 1.508 4.8 4.8 0 01.945 3.172 4.529 4.529 0 01-.336 1.633 3.518 3.518 0 01-.969 1.352l-1.516-1.219a2.213 2.213 0 00.883-1.766 2.066 2.066 0 00-1.82-2.172l-.258-.063a2.643 2.643 0 01.844 1.93 2.606 2.606 0 01-.41 1.43 2.7 2.7 0 01-1.16.969 4.512 4.512 0 01-1.687.4 7.336 7.336 0 01-1.141-.029zm.836-2.539a2.05 2.05 0 001.117-.258.874.874 0 00.414-.75 1.718 1.718 0 00-.562-1.32l-3.586-.664a1.139 1.139 0 00-.562 1.047 1.5 1.5 0 00.637 1.258 3.432 3.432 0 001.715.641q.488.044.824.044zM12.16 8.675a3.929 3.929 0 01-.535 2.02 3.372 3.372 0 01-1.469 1.34 3.947 3.947 0 01-2.074.359l-.219-.023a5.182 5.182 0 01-3.3-1.449 4.009 4.009 0 01-1.168-3.035 3.273 3.273 0 01.551-1.859 3.078 3.078 0 011.477-1.133 4.516 4.516 0 012.113-.234l1.064.14v5.031a1.648 1.648 0 001.078-.375 1.377 1.377 0 00.438-1.047 2.66 2.66 0 00-.859-2.008l1.43-1.078a3.182 3.182 0 011.066 1.332 4.667 4.667 0 01.4 1.871zM5.418 8.05a1.318 1.318 0 00.344.949 2.887 2.887 0 001.2.7v-2.57l-.227-.047a1.733 1.733 0 00-.516-.016.906.906 0 00-.805.982zm13.02 163.599l1.328-.4a7.422 7.422 0 003.117 2.359 16.927 16.927 0 005.217 1.112l.766.039q3.2.117 4.352-1.375l1.3.562a4.267 4.267 0 01-1.41 1.594 6.255 6.255 0 01-2.277.937 11.492 11.492 0 01-2.8.242 15.369 15.369 0 01-4.2-.719 10.692 10.692 0 01-3.43-1.758 6.087 6.087 0 01-1.963-2.593zm1.023-3.836a2.289 2.289 0 01.656-1.68 2.131 2.131 0 011.7-.563l.523.039a2.542 2.542 0 011.77.82 2.619 2.619 0 01.645 1.859 2.289 2.289 0 01-.66 1.672 2.142 2.142 0 01-1.676.586l-.591-.045a2.5 2.5 0 01-1.728-.836 2.634 2.634 0 01-.639-1.852zm2.969 1.079a.983.983 0 00.66-.129.562.562 0 00.246-.5.829.829 0 00-.234-.621 1.191 1.191 0 00-.687-.348l-.609-.086q-.9-.078-.93.617a.841.841 0 00.25.633 1.183 1.183 0 00.688.352zm3.43-5.211a2.309 2.309 0 01.66-1.688 2.118 2.118 0 011.691-.57l.6.047a2.525 2.525 0 011.742.855 2.582 2.582 0 01.609 1.824 2.312 2.312 0 01-.652 1.664 2.146 2.146 0 01-1.7.594l-.609-.047a2.618 2.618 0 01-1.246-.426 2.349 2.349 0 01-.824-.945 2.9 2.9 0 01-.272-1.308zm2.984 1.078a1.052 1.052 0 00.629-.148.576.576 0 00.27-.484q.031-.844-1.031-.992l-.516-.07a1.014 1.014 0 00-.648.117.586.586 0 00-.266.508.842.842 0 00.262.648 1.176 1.176 0 00.668.344zm1.289 4.094l-.68 1.2-8.789-6.852.672-1.2zm-7.742-17.273a3.55 3.55 0 01.566-1.961 3.191 3.191 0 011.535-1.218 4.737 4.737 0 012.188-.277l.172.016a5.01 5.01 0 013.141 1.445 4.067 4.067 0 011.164 3.031 3.535 3.535 0 01-.559 1.945 3.211 3.211 0 01-1.52 1.215 4.6 4.6 0 01-2.172.285 5.211 5.211 0 01-3.312-1.426 4.041 4.041 0 01-1.203-3.056zm4.516 1.914l.461.023q1.742.109 1.773-1.063.047-1.516-2.461-1.758l-.711-.031a1.921 1.921 0 00-1.121.262.953.953 0 00-.434.816 1.343 1.343 0 00.586 1.168 3.813 3.813 0 001.906.582zM31 147.149l-6.625-1.148v1.187l-1.828-.313-.008-1.188-.742-.1a3.45 3.45 0 01-2.148-1.078 3.5 3.5 0 01-.828-2.461 7.6 7.6 0 01.172-1.273l1.945.2a2.485 2.485 0 00-.094.609 1.6 1.6 0 00.262.941 1.172 1.172 0 00.754.473l.688.117v-1.6l1.828.312v1.6L31 144.571zm.156-13.289a3.929 3.929 0 01-.535 2.02 3.372 3.372 0 01-1.469 1.34 3.946 3.946 0 01-2.074.359l-.219-.023a5.182 5.182 0 01-3.3-1.449 4.009 4.009 0 01-1.168-3.035 3.273 3.273 0 01.551-1.859 3.078 3.078 0 011.477-1.133 4.516 4.516 0 012.113-.234l1.07.148v5.03a1.648 1.648 0 001.078-.375 1.377 1.377 0 00.438-1.047 2.66 2.66 0 00-.859-2.008l1.43-1.078a3.182 3.182 0 011.066 1.332 4.667 4.667 0 01.4 1.871zm-6.742-.625a1.318 1.318 0 00.344.949 2.887 2.887 0 001.2.7v-2.57l-.227-.047a1.733 1.733 0 00-.516-.016.906.906 0 00-.801.984zm4.719-7.617a1.1 1.1 0 00-.309-.867 1.54 1.54 0 00-.84-.4l-.008-2.406a3.163 3.163 0 011.665.556 3.329 3.329 0 011.137 1.359 4.019 4.019 0 01.379 1.832 3.173 3.173 0 01-1.215 2.6 4.2 4.2 0 01-3.059.742l-.187-.023a5.663 5.663 0 01-2.27-.719 4.112 4.112 0 01-1.526-1.521 3.941 3.941 0 01-.508-2.105 3.143 3.143 0 01.941-2.332 3.338 3.338 0 012.457-.824l-.008 2.406q-1.344-.039-1.367.961-.047 1.359 2.289 1.562l.8.07.3.008q1.305 0 1.329-.899zm-6.742-9.156a3.55 3.55 0 01.566-1.961 3.191 3.191 0 011.535-1.215 4.737 4.737 0 012.188-.277l.172.016a5.01 5.01 0 013.141 1.445 4.067 4.067 0 011.163 3.031 3.535 3.535 0 01-.559 1.945 3.211 3.211 0 01-1.52 1.215 4.6 4.6 0 01-2.172.285 5.211 5.211 0 01-3.312-1.426 4.041 4.041 0 01-1.202-3.058zm4.516 1.914l.461.023q1.742.109 1.773-1.063.047-1.516-2.461-1.758l-.711-.031a1.921 1.921 0 00-1.121.262.953.953 0 00-.434.816 1.343 1.343 0 00.586 1.169 3.813 3.813 0 001.906.582zm-1.977-11.883a7.354 7.354 0 00-.078.8 1.985 1.985 0 00.8 1.766l5.348.95v2.57l-8.453-1.469-.008-2.4 1.109.2a2.347 2.347 0 01-1.281-1.953 3.683 3.683 0 01.109-.8zm6.227-3.914a3.929 3.929 0 01-.535 2.02 3.372 3.372 0 01-1.469 1.34 3.946 3.946 0 01-2.074.359l-.219-.023a5.182 5.182 0 01-3.3-1.449 4.009 4.009 0 01-1.168-3.035 3.272 3.272 0 01.551-1.859 3.079 3.079 0 011.475-1.131 4.516 4.516 0 012.113-.234l1.07.148v5.028a1.648 1.648 0 001.078-.375 1.377 1.377 0 00.438-1.047 2.66 2.66 0 00-.859-2.008l1.43-1.078a3.182 3.182 0 011.066 1.332 4.667 4.667 0 01.4 1.871zm-6.742-.625a1.318 1.318 0 00.344.949 2.887 2.887 0 001.2.7v-2.57l-.227-.047a1.733 1.733 0 00-.516-.016.906.906 0 00-.802.984zm2.344-4.141a6.423 6.423 0 01-2.3-.7 4.057 4.057 0 01-1.559-1.379 3.32 3.32 0 01-.512-1.875 2.308 2.308 0 01.914-1.922l-.758-.273.008-2.375 8.125 1.383a3.971 3.971 0 012.711 1.508 4.8 4.8 0 01.945 3.172 4.529 4.529 0 01-.336 1.633 3.518 3.518 0 01-.969 1.352l-1.516-1.219a2.213 2.213 0 00.883-1.766 2.066 2.066 0 00-1.82-2.172l-.258-.063a2.643 2.643 0 01.844 1.93 2.606 2.606 0 01-.41 1.43 2.7 2.7 0 01-1.16.969 4.512 4.512 0 01-1.687.4 7.336 7.336 0 01-1.146-.033zm.836-2.539a2.05 2.05 0 001.117-.258.874.874 0 00.414-.75 1.718 1.718 0 00-.562-1.32l-3.586-.664a1.139 1.139 0 00-.562 1.047 1.5 1.5 0 00.637 1.258 3.432 3.432 0 001.715.641q.49.046.826.046zM31 86.532v2.578l-8.453-1.469v-2.578zm-10.586.883a1.192 1.192 0 01-.953-.4 1.444 1.444 0 01-.383-1.012 1.491 1.491 0 01.344-1 1.172 1.172 0 01.9-.418 1.194 1.194 0 01.957.4 1.449 1.449 0 01.379 1.016 1.51 1.51 0 01-.34 1 1.158 1.158 0 01-.904.414zm1.977-7.445a3.55 3.55 0 01.566-1.961 3.191 3.191 0 011.535-1.215 4.737 4.737 0 012.188-.277l.172.016a5.01 5.01 0 013.141 1.445 4.067 4.067 0 011.164 3.031 3.535 3.535 0 01-.559 1.945 3.211 3.211 0 01-1.52 1.215 4.6 4.6 0 01-2.172.285 5.211 5.211 0 01-3.312-1.426 4.041 4.041 0 01-1.203-3.058zm4.516 1.914l.461.023q1.742.109 1.773-1.063.047-1.516-2.461-1.758l-.711-.031a1.921 1.921 0 00-1.121.262.953.953 0 00-.434.816A1.343 1.343 0 0025 81.301a3.813 3.813 0 001.906.583zM22.54 72.29l1.016.18a3 3 0 01-1.172-2.445 2.018 2.018 0 01.871-1.746 3.646 3.646 0 012.426-.418l5.319.89v2.578l-5.336-.9a2.756 2.756 0 00-.5-.016q-.742.055-.742.875a1.607 1.607 0 00.6 1.242L31 73.587v2.57l-8.453-1.469zm4.016-9.828a13.316 13.316 0 013.559.98 9.722 9.722 0 012.813 1.789 6.141 6.141 0 011.605 2.34l-1.328.4a7.689 7.689 0 00-3.148-2.363 16.651 16.651 0 00-5.2-1.105l-.766-.047q-3.211-.078-4.344 1.383l-1.3-.57a4.569 4.569 0 012.215-2.109 9.191 9.191 0 013.762-.813l.492-.008a13.172 13.172 0 011.414.1zM308.8 468.743h-3.316l-1.601 9.258H301.2l1.613-9.258h-3.258l.375-2.117h9.234zm5.052 3.188a7.354 7.354 0 00-.8-.078 1.985 1.985 0 00-1.766.8l-.95 5.348h-2.57l1.469-8.453 2.4-.008-.2 1.109a2.347 2.347 0 011.953-1.281 3.683 3.683 0 01.8.109zm3.914 6.227a3.929 3.929 0 01-2.02-.535 3.372 3.372 0 01-1.34-1.469 3.946 3.946 0 01-.359-2.074l.023-.219a5.182 5.182 0 011.449-3.3 4.009 4.009 0 013.035-1.168 3.273 3.273 0 011.859.551 3.079 3.079 0 011.133 1.477 4.516 4.516 0 01.234 2.113l-.148 1.07H316.6a1.648 1.648 0 00.375 1.078 1.377 1.377 0 001.047.438 2.66 2.66 0 002.008-.859l1.078 1.43a3.182 3.182 0 01-1.332 1.066 4.667 4.667 0 01-1.871.4zm.625-6.742a1.318 1.318 0 00-.949.344 2.887 2.887 0 00-.7 1.2h2.57l.047-.227a1.733 1.733 0 00.016-.516.906.906 0 00-.984-.802zm7.516-1.875l-.18 1.016a3 3 0 012.445-1.172 2.018 2.018 0 011.746.871 3.646 3.646 0 01.418 2.426l-.891 5.319h-2.578l.9-5.336a2.756 2.756 0 00.016-.5q-.055-.742-.875-.742a1.607 1.607 0 00-1.242.6l-1.057 5.978h-2.57l1.469-8.453zm5.438 4.219a6.148 6.148 0 011.219-3.2 3.02 3.02 0 012.547-1.164 2.3 2.3 0 011.789.905l.82-4.3h2.58l-2.081 12h-2.289l.109-.914a2.638 2.638 0 01-2.1 1.078 2.328 2.328 0 01-1.91-.9 3.979 3.979 0 01-.738-2.379 7.317 7.317 0 01.031-.961zm2.563.172a6.135 6.135 0 00-.055.875q0 1.3.875 1.32a1.639 1.639 0 001.352-.727l.578-3.242a1.041 1.041 0 00-1.031-.742 1.314 1.314 0 00-1.16.621 4.006 4.006 0 00-.561 1.894zm12.475 4.069H343.8l1.469-8.453h2.578zm-.883-10.586a1.192 1.192 0 01.4-.953 1.444 1.444 0 011.012-.383 1.491 1.491 0 011 .344 1.172 1.172 0 01.418.9 1.194 1.194 0 01-.4.957 1.449 1.449 0 01-1.016.379 1.51 1.51 0 01-1-.34 1.158 1.158 0 01-.414-.904zm6.328 2.125l-.18 1.016a3 3 0 012.445-1.172 2.018 2.018 0 011.746.871 3.646 3.646 0 01.418 2.426l-.89 5.32h-2.578l.9-5.336a2.756 2.756 0 00.016-.5q-.055-.742-.875-.742a1.607 1.607 0 00-1.242.6l-1.057 5.978h-2.57l1.469-8.453zm13.164 8.617a3.929 3.929 0 01-2.02-.535 3.372 3.372 0 01-1.34-1.469 3.946 3.946 0 01-.359-2.074l.023-.219a5.182 5.182 0 011.449-3.3 4.009 4.009 0 013.035-1.168 3.273 3.273 0 011.859.551 3.079 3.079 0 011.133 1.477 4.516 4.516 0 01.234 2.113l-.148 1.07h-5.03a1.648 1.648 0 00.372 1.078 1.377 1.377 0 001.047.438 2.66 2.66 0 002.008-.859l1.078 1.43a3.182 3.182 0 01-1.333 1.065 4.667 4.667 0 01-1.871.4zm.625-6.742a1.318 1.318 0 00-.949.344 2.887 2.887 0 00-.7 1.2h2.57l.047-.227a1.733 1.733 0 00.016-.516.906.906 0 00-.984-.801zm7.617 4.719a1.1 1.1 0 00.867-.309 1.54 1.54 0 00.4-.84l2.406-.008a3.163 3.163 0 01-.551 1.664 3.328 3.328 0 01-1.356 1.137 4.019 4.019 0 01-1.832.379 3.173 3.173 0 01-2.6-1.215 4.2 4.2 0 01-.742-3.059l.023-.187a5.663 5.663 0 01.719-2.27 4.112 4.112 0 011.514-1.525 3.941 3.941 0 012.105-.508 3.143 3.143 0 012.332.941 3.338 3.338 0 01.824 2.457l-2.406-.008q.039-1.344-.961-1.367-1.359-.047-1.562 2.289l-.07.8-.008.3q0 1.305.898 1.329zm9.156-6.742a3.55 3.55 0 011.961.566 3.191 3.191 0 011.215 1.535 4.737 4.737 0 01.277 2.188l-.016.172a5.01 5.01 0 01-1.445 3.141 4.067 4.067 0 01-3.031 1.164 3.535 3.535 0 01-1.945-.559 3.211 3.211 0 01-1.215-1.52 4.6 4.6 0 01-.285-2.172 5.211 5.211 0 011.426-3.312 4.041 4.041 0 013.059-1.203zm-1.914 4.516l-.023.461q-.109 1.742 1.063 1.773 1.516.047 1.758-2.461l.031-.711a1.921 1.921 0 00-.262-1.121.953.953 0 00-.816-.434 1.343 1.343 0 00-1.168.586 3.813 3.813 0 00-.582 1.906zm11.883-1.977a7.354 7.354 0 00-.8-.078 1.985 1.985 0 00-1.766.8l-.949 5.348h-2.57l1.469-8.453 2.4-.008-.2 1.109a2.347 2.347 0 011.957-1.281 3.683 3.683 0 01.8.109zm3.914 6.227a3.929 3.929 0 01-2.02-.535 3.372 3.372 0 01-1.34-1.469 3.946 3.946 0 01-.359-2.074l.023-.219a5.182 5.182 0 011.449-3.3 4.009 4.009 0 013.035-1.168 3.273 3.273 0 011.859.551 3.079 3.079 0 011.133 1.477 4.516 4.516 0 01.234 2.113l-.148 1.07h-5.03a1.648 1.648 0 00.375 1.078 1.377 1.377 0 001.047.438 2.66 2.66 0 002.008-.859l1.078 1.43a3.182 3.182 0 01-1.332 1.066 4.667 4.667 0 01-1.871.4zm.627-6.743a1.318 1.318 0 00-.949.344 2.887 2.887 0 00-.7 1.2h2.57l.047-.227a1.733 1.733 0 00.016-.516.906.906 0 00-.984-.801zm4.141 2.344a6.423 6.423 0 01.7-2.3 4.057 4.057 0 011.379-1.559 3.32 3.32 0 011.875-.512 2.308 2.308 0 011.922.914l.273-.758 2.375.008-1.383 8.125a3.971 3.971 0 01-1.508 2.711 4.8 4.8 0 01-3.172.945 4.529 4.529 0 01-1.633-.336 3.518 3.518 0 01-1.352-.969l1.219-1.516a2.213 2.213 0 001.766.883 2.066 2.066 0 002.172-1.82l.063-.258a2.643 2.643 0 01-1.93.844 2.606 2.606 0 01-1.43-.41 2.7 2.7 0 01-.969-1.16 4.512 4.512 0 01-.4-1.687 7.336 7.336 0 01.031-1.145zm2.539.836a2.05 2.05 0 00.258 1.117.874.874 0 00.75.414 1.718 1.718 0 001.32-.562l.664-3.586a1.139 1.139 0 00-1.047-.562 1.5 1.5 0 00-1.258.637 3.432 3.432 0 00-.641 1.715q-.048.491-.048.827zm8.74 3.406h-2.578l1.469-8.453h2.578zm-.883-10.586a1.192 1.192 0 01.4-.953 1.444 1.444 0 011.012-.383 1.491 1.491 0 011 .344 1.172 1.172 0 01.418.9 1.194 1.194 0 01-.4.957 1.449 1.449 0 01-1.016.379 1.51 1.51 0 01-1-.34 1.158 1.158 0 01-.413-.904zm7.445 1.977a3.55 3.55 0 011.961.566 3.191 3.191 0 011.215 1.535 4.737 4.737 0 01.277 2.188l-.016.172a5.01 5.01 0 01-1.445 3.141 4.067 4.067 0 01-3.031 1.164 3.535 3.535 0 01-1.943-.557 3.211 3.211 0 01-1.215-1.52 4.6 4.6 0 01-.285-2.172 5.211 5.211 0 011.426-3.312 4.041 4.041 0 013.057-1.205zm-1.914 4.516l-.023.461q-.109 1.742 1.063 1.773 1.516.047 1.758-2.461l.031-.711a1.921 1.921 0 00-.262-1.121.953.953 0 00-.816-.434 1.343 1.343 0 00-1.168.586 3.813 3.813 0 00-.582 1.906zm9.594-4.367l-.18 1.016a3 3 0 012.445-1.172 2.018 2.018 0 011.746.871 3.646 3.646 0 01.418 2.426l-.891 5.319h-2.578l.9-5.336a2.756 2.756 0 00.016-.5q-.055-.742-.875-.742a1.607 1.607 0 00-1.242.6l-1.055 5.978H422.7l1.469-8.453zm11.672 8.46h-2.578l1.469-8.453h2.575zm-.883-10.586a1.192 1.192 0 01.4-.953 1.444 1.444 0 011.012-.383 1.491 1.491 0 011 .344 1.172 1.172 0 01.418.9 1.194 1.194 0 01-.4.957 1.449 1.449 0 01-1.016.379 1.51 1.51 0 01-1-.34 1.158 1.158 0 01-.413-.904zm6.328 2.125l-.179 1.016a3 3 0 012.445-1.172 2.018 2.018 0 011.746.871 3.646 3.646 0 01.418 2.426l-.89 5.32h-2.578l.9-5.336a2.756 2.756 0 00.016-.5q-.055-.742-.875-.742a1.607 1.607 0 00-1.242.6l-1.057 5.978h-2.57l1.469-8.453zm9.836-2.094l-.367 2.1h1.352l-.32 1.828h-1.352l-.656 3.883a1.035 1.035 0 00.051.6q.105.2.527.219a6.109 6.109 0 00.672-.039l-.187 1.906a4.154 4.154 0 01-1.383.2 2.278 2.278 0 01-1.789-.7 2.4 2.4 0 01-.484-1.867l.688-4.2h-1.047l.313-1.828h1.047l.367-2.1zm4.785 10.711a3.929 3.929 0 01-2.02-.535 3.372 3.372 0 01-1.34-1.469 3.947 3.947 0 01-.359-2.074l.023-.219a5.182 5.182 0 011.449-3.3 4.009 4.009 0 013.035-1.168 3.273 3.273 0 011.859.551 3.078 3.078 0 011.133 1.477 4.516 4.516 0 01.234 2.113l-.148 1.07h-5.031a1.648 1.648 0 00.375 1.078 1.377 1.377 0 001.047.438 2.66 2.66 0 002.008-.859l1.078 1.43a3.182 3.182 0 01-1.332 1.066 4.667 4.667 0 01-1.871.4zm.625-6.742a1.318 1.318 0 00-.949.344 2.887 2.887 0 00-.7 1.2h2.57l.047-.227a1.733 1.733 0 00.016-.516.906.906 0 00-.979-.801zm4.141 2.344a6.423 6.423 0 01.7-2.3 4.057 4.057 0 011.379-1.559 3.32 3.32 0 011.875-.512 2.308 2.308 0 011.922.914l.273-.758 2.375.008-1.383 8.125a3.971 3.971 0 01-1.508 2.711 4.8 4.8 0 01-3.172.945 4.529 4.529 0 01-1.633-.336 3.518 3.518 0 01-1.352-.969l1.219-1.516a2.213 2.213 0 001.766.883 2.066 2.066 0 002.172-1.82l.063-.258a2.643 2.643 0 01-1.93.844 2.606 2.606 0 01-1.43-.41 2.7 2.7 0 01-.969-1.16 4.512 4.512 0 01-.4-1.687 7.336 7.336 0 01.037-1.145zm2.539.836a2.05 2.05 0 00.258 1.117.874.874 0 00.75.414 1.718 1.718 0 001.32-.562l.664-3.586a1.139 1.139 0 00-1.047-.562 1.5 1.5 0 00-1.258.637 3.432 3.432 0 00-.641 1.715q-.042.491-.042.827zm12.137-2.664a7.354 7.354 0 00-.8-.078 1.985 1.985 0 00-1.766.8l-.949 5.348h-2.57l1.469-8.453 2.4-.008-.2 1.109a2.347 2.347 0 011.953-1.281 3.683 3.683 0 01.8.109zm2.57 6.07h-2.578l1.466-8.453h2.578zm-.882-10.586a1.192 1.192 0 01.4-.953 1.444 1.444 0 011.012-.383 1.491 1.491 0 011 .344 1.172 1.172 0 01.418.9 1.194 1.194 0 01-.4.957 1.449 1.449 0 01-1.016.379 1.51 1.51 0 01-1-.34 1.158 1.158 0 01-.414-.904zm7.336.031l-.367 2.1h1.352l-.32 1.828h-1.352l-.656 3.883a1.035 1.035 0 00.051.6q.105.2.527.219a6.109 6.109 0 00.672-.039l-.187 1.906a4.154 4.154 0 01-1.383.2 2.278 2.278 0 01-1.789-.7 2.4 2.4 0 01-.484-1.867l.688-4.2h-1.047l.313-1.828h1.047l.367-2.1zm4.469 6.836l2.188-4.734h2.836l-4.959 9.719a4.235 4.235 0 01-1.277 1.66 2.9 2.9 0 01-1.723.512 4.864 4.864 0 01-1.133-.172l.2-1.883h.3a2.128 2.128 0 00.833-.153 1.273 1.273 0 00.6-.59l.367-.7-1.352-8.391h2.656zm-186.883 10.157l.4 1.328a7.422 7.422 0 00-2.359 3.117 16.927 16.927 0 00-1.112 5.217l-.039.766q-.117 3.2 1.375 4.352l-.562 1.3a4.267 4.267 0 01-1.594-1.41 6.255 6.255 0 01-.937-2.277 11.492 11.492 0 01-.242-2.8 15.369 15.369 0 01.719-4.2 10.692 10.692 0 011.758-3.43 6.087 6.087 0 012.593-1.963zm3.836 1.023a2.289 2.289 0 011.68.656 2.131 2.131 0 01.563 1.7l-.039.523a2.542 2.542 0 01-.82 1.77 2.619 2.619 0 01-1.859.645 2.289 2.289 0 01-1.672-.66 2.142 2.142 0 01-.586-1.676l.045-.591a2.5 2.5 0 01.836-1.728 2.634 2.634 0 011.852-.639zm-1.079 2.969a.983.983 0 00.129.66.562.562 0 00.5.246.829.829 0 00.621-.234 1.191 1.191 0 00.348-.687l.086-.609q.078-.9-.617-.93a.841.841 0 00-.633.25 1.183 1.183 0 00-.352.688zm5.211 3.43a2.309 2.309 0 011.688.66 2.118 2.118 0 01.57 1.691l-.047.6a2.525 2.525 0 01-.855 1.742 2.582 2.582 0 01-1.824.609 2.312 2.312 0 01-1.664-.652 2.146 2.146 0 01-.594-1.7l.047-.609a2.618 2.618 0 01.426-1.246 2.349 2.349 0 01.945-.824 2.9 2.9 0 011.308-.272zm-1.078 2.984a1.052 1.052 0 00.148.629.576.576 0 00.484.27q.844.031.992-1.031l.07-.516a1.014 1.014 0 00-.117-.648.586.586 0 00-.508-.266.842.842 0 00-.648.262 1.176 1.176 0 00-.344.668zm-4.094 1.289l-1.2-.68 6.852-8.789 1.2.672zm15.052.867h-2.575l1.469-8.453h2.578zm-.88-10.586a1.192 1.192 0 01.4-.953 1.444 1.444 0 011.012-.383 1.491 1.491 0 011 .344 1.172 1.172 0 01.418.9 1.194 1.194 0 01-.4.957 1.449 1.449 0 01-1.016.379 1.51 1.51 0 01-1-.34 1.158 1.158 0 01-.414-.904zm6.328 2.125l-.18 1.016a3 3 0 012.445-1.172 2.018 2.018 0 011.746.871 3.646 3.646 0 01.418 2.426l-.889 5.32h-2.579l.9-5.336a2.756 2.756 0 00.016-.5q-.055-.742-.875-.742a1.607 1.607 0 00-1.242.6l-1.056 5.978h-2.57l1.469-8.453zm8.93 6.594a1.1 1.1 0 00.867-.309 1.54 1.54 0 00.4-.84l2.406-.008a3.163 3.163 0 01-.551 1.664 3.329 3.329 0 01-1.359 1.137 4.019 4.019 0 01-1.832.379 3.173 3.173 0 01-2.6-1.215 4.2 4.2 0 01-.742-3.059l.023-.187a5.663 5.663 0 01.719-2.27 4.112 4.112 0 011.52-1.527 3.941 3.941 0 012.105-.508 3.143 3.143 0 012.332.941 3.338 3.338 0 01.824 2.457l-2.406-.008q.039-1.344-.961-1.367-1.359-.047-1.562 2.289l-.07.8-.008.3q-.003 1.307.895 1.331zm10.328-4.2a7.354 7.354 0 00-.8-.078 1.985 1.985 0 00-1.766.8l-.949 5.345h-2.571l1.469-8.453 2.4-.008-.2 1.109a2.347 2.347 0 011.953-1.281 3.683 3.683 0 01.8.109zm3.914 6.227a3.929 3.929 0 01-2.02-.535 3.372 3.372 0 01-1.34-1.469 3.946 3.946 0 01-.359-2.074l.023-.219a5.182 5.182 0 011.449-3.3 4.009 4.009 0 013.035-1.168 3.273 3.273 0 011.859.551 3.078 3.078 0 011.133 1.472 4.516 4.516 0 01.234 2.113l-.148 1.07h-5.03a1.648 1.648 0 00.375 1.078 1.377 1.377 0 001.047.438 2.66 2.66 0 002.008-.859l1.078 1.43a3.182 3.182 0 01-1.332 1.066 4.667 4.667 0 01-1.871.4zm.625-6.742a1.318 1.318 0 00-.949.344 2.887 2.887 0 00-.7 1.2h2.57l.047-.227a1.733 1.733 0 00.016-.516.906.906 0 00-.984-.805zm8.469 6.582a2.292 2.292 0 01-.109-.766 2.608 2.608 0 01-2.07.922 2.548 2.548 0 01-1.828-.734 2.207 2.207 0 01-.68-1.742 2.48 2.48 0 011.148-2.113 5.415 5.415 0 013.031-.738l.859.016.094-.477.031-.414a.671.671 0 00-.711-.734.988.988 0 00-1.039.93l-2.578.008a2.448 2.448 0 01.555-1.48 3.288 3.288 0 011.4-.969 4.9 4.9 0 011.887-.316 3.778 3.778 0 011.684.4 2.506 2.506 0 011.082 1.055 2.694 2.694 0 01.273 1.559l-.633 3.977-.039.484a2.135 2.135 0 00.148.984l-.005.148zm-1.469-1.7a1.658 1.658 0 001.383-.7l.258-1.359-.664-.008a1.75 1.75 0 00-1.062.363 1.378 1.378 0 00-.523.949.692.692 0 00.121.527.619.619 0 00.487.228zm9.781-.719q.1-.516-.8-.773l-.555-.141a4.272 4.272 0 01-1.992-1.008 2 2 0 01-.594-1.539 2.452 2.452 0 011.082-1.98 4.118 4.118 0 012.543-.746 3.815 3.815 0 012.418.758 2.472 2.472 0 01.941 2l-2.562-.008q.031-1-.883-1a1.259 1.259 0 00-.727.23.9.9 0 00-.4.613q-.133.633 1.117.867a6.493 6.493 0 011.68.6 2.508 2.508 0 01.906.84 2.089 2.089 0 01.289 1.2 2.259 2.259 0 01-.5 1.367 3.238 3.238 0 01-1.379.961 4.939 4.939 0 01-1.957.336 3.972 3.972 0 01-1.7-.383 3.03 3.03 0 01-1.227-1.02 2.648 2.648 0 01-.457-1.48l2.391.016a.987.987 0 001.132 1.109 1.477 1.477 0 00.813-.215.929.929 0 00.422-.607zm7.474 2.575a3.929 3.929 0 01-2.02-.535 3.372 3.372 0 01-1.34-1.469 3.946 3.946 0 01-.359-2.074l.023-.219a5.182 5.182 0 011.449-3.3 4.009 4.009 0 013.035-1.168 3.272 3.272 0 011.859.551 3.079 3.079 0 011.133 1.477 4.516 4.516 0 01.234 2.113l-.148 1.07h-5.035a1.648 1.648 0 00.375 1.078 1.377 1.377 0 001.047.438 2.66 2.66 0 002.008-.859l1.078 1.43a3.182 3.182 0 01-1.332 1.066 4.667 4.667 0 01-1.871.4zm.625-6.742a1.318 1.318 0 00-.949.344 2.887 2.887 0 00-.7 1.2h2.57l.047-.227a1.733 1.733 0 00.016-.516.906.906 0 00-.989-.801zm13.275 6.586h-2.577l1.453-8.359-2.648.75.359-2.086 5.031-1.68.289-.008zm9.3-4.406a2.853 2.853 0 01-1.9.773 2.671 2.671 0 01-1.605-.5 2.87 2.87 0 01-.988-1.375 4.384 4.384 0 01-.227-1.914 4.562 4.562 0 01.711-2.09 4.413 4.413 0 011.574-1.512 3.92 3.92 0 012.043-.516 3.061 3.061 0 012.3 1.008 4.175 4.175 0 011.005 2.532 6.662 6.662 0 01-.016 1.117l-.109.844a7.116 7.116 0 01-2.207 4.527 6.528 6.528 0 01-4.566 1.676h-.165l.211-2.117h.359a3.661 3.661 0 003.586-2.453zm-1.1-1.117a1.612 1.612 0 001.328-.742l.156-1.109.039-.648a2.024 2.024 0 00-.25-1.094.841.841 0 00-.742-.4 1.322 1.322 0 00-1.172.816 3.346 3.346 0 00-.4 1.9 1.6 1.6 0 00.3.922.908.908 0 00.741.355zm10.164 1.117a2.853 2.853 0 01-1.9.773 2.671 2.671 0 01-1.605-.5 2.87 2.87 0 01-.988-1.375 4.384 4.384 0 01-.227-1.914 4.562 4.562 0 01.711-2.09 4.413 4.413 0 011.574-1.512 3.92 3.92 0 012.043-.516 3.061 3.061 0 012.3 1.008 4.175 4.175 0 011.003 2.532 6.662 6.662 0 01-.016 1.117l-.109.844a7.116 7.116 0 01-2.207 4.527 6.528 6.528 0 01-4.566 1.676h-.164l.211-2.117h.359a3.661 3.661 0 003.586-2.453zm-1.1-1.117a1.612 1.612 0 001.328-.742l.156-1.109.039-.648a2.024 2.024 0 00-.25-1.094.841.841 0 00-.742-.4 1.322 1.322 0 00-1.172.816 3.346 3.346 0 00-.4 1.9 1.6 1.6 0 00.3.922.908.908 0 00.744.355zm7.719-1.266l1.148.008a1.76 1.76 0 001.156-.41 1.668 1.668 0 00.539-1.105 1.136 1.136 0 00-.211-.875 1 1 0 00-.82-.352 1.371 1.371 0 00-.9.281 1.318 1.318 0 00-.5.789l-2.578.016a2.852 2.852 0 01.594-1.633 3.542 3.542 0 011.457-1.1 4.857 4.857 0 011.957-.379 4.108 4.108 0 012.7.9 2.678 2.678 0 01.9 2.3 3.091 3.091 0 01-2.1 2.547 2.561 2.561 0 011.133 1.039 2.729 2.729 0 01.336 1.5 3.148 3.148 0 01-.664 1.824 3.894 3.894 0 01-1.633 1.2 5.456 5.456 0 01-2.2.395 4.083 4.083 0 01-1.855-.434 3.073 3.073 0 01-1.277-1.176 3.249 3.249 0 01-.437-1.719h2.572a1.353 1.353 0 00.328.914 1.187 1.187 0 00.9.375 1.721 1.721 0 001.148-.383 1.579 1.579 0 00.594-1.047 1.429 1.429 0 00-.207-1.09 1.239 1.239 0 00-1-.418l-1.375-.008zm11.317 2.906h-4.57l.352-2.039h4.57zm9.123 3.883h-7.711l.281-1.812 4.047-3.758.555-.555a3.226 3.226 0 001.2-2.477.893.893 0 00-.937-.93 1.234 1.234 0 00-1.02.488 2.5 2.5 0 00-.52 1.316l-2.555.016a3.9 3.9 0 01.648-1.957 4.04 4.04 0 011.566-1.387 4.465 4.465 0 012.09-.492 3.7 3.7 0 012.578.9 2.775 2.775 0 01.8 2.355 3.844 3.844 0 01-.574 1.7 8.778 8.778 0 01-1.465 1.742l-1.187 1.094-1.766 1.7 4.3.016zm5.25.156a3.389 3.389 0 01-1.691-.457 2.828 2.828 0 01-1.113-1.273 4.819 4.819 0 01-.422-1.91 7.28 7.28 0 01.047-1.164l.3-1.984a6.727 6.727 0 011.536-3.668 3.806 3.806 0 013.008-1.23 3 3 0 012.324 1 4.143 4.143 0 01.9 2.641 7.954 7.954 0 01-.055 1.164l-.307 2.025a6.666 6.666 0 01-1.551 3.664 3.808 3.808 0 01-2.976 1.192zm2.32-7.234a8.978 8.978 0 00.078-.961q0-1.43-.906-1.477-1.391-.07-1.727 2.383l-.414 2.813a8.9 8.9 0 00-.078.961q-.039 1.445.9 1.5 1.414.07 1.742-2.445zm6.742 7.234a3.389 3.389 0 01-1.691-.457 2.828 2.828 0 01-1.113-1.273 4.819 4.819 0 01-.422-1.91 7.28 7.28 0 01.047-1.164l.3-1.984a6.727 6.727 0 011.539-3.668 3.806 3.806 0 013.008-1.23 3 3 0 012.324 1 4.143 4.143 0 01.9 2.641 7.954 7.954 0 01-.055 1.164l-.312 2.023a6.666 6.666 0 01-1.551 3.664 3.808 3.808 0 01-2.973 1.194zm2.32-7.234a8.978 8.978 0 00.078-.961q0-1.43-.906-1.477-1.391-.07-1.727 2.383l-.414 2.813a8.9 8.9 0 00-.078.961q-.039 1.445.9 1.5 1.414.07 1.742-2.445zm8.68 2.672a2.853 2.853 0 01-1.9.773 2.671 2.671 0 01-1.605-.5 2.87 2.87 0 01-.988-1.375 4.384 4.384 0 01-.227-1.914 4.562 4.562 0 01.711-2.09 4.413 4.413 0 011.574-1.512 3.92 3.92 0 012.043-.516 3.061 3.061 0 012.3 1.008 4.175 4.175 0 01.999 2.532 6.662 6.662 0 01-.016 1.117l-.109.844a7.116 7.116 0 01-2.207 4.527 6.528 6.528 0 01-4.566 1.676h-.164l.211-2.117h.359a3.661 3.661 0 003.586-2.453zm-1.1-1.117a1.612 1.612 0 001.328-.742l.156-1.109.039-.648a2.024 2.024 0 00-.25-1.094.841.841 0 00-.742-.4 1.322 1.322 0 00-1.172.816 3.346 3.346 0 00-.4 1.9 1.6 1.6 0 00.3.922.908.908 0 00.74.355zm9.1 1.078a13.316 13.316 0 01-.98 3.559 9.722 9.722 0 01-1.789 2.813 6.141 6.141 0 01-2.34 1.605l-.4-1.328a7.69 7.69 0 002.363-3.148 16.651 16.651 0 001.105-5.2l.047-.766q.078-3.211-1.383-4.344l.57-1.3a4.569 4.569 0 012.109 2.215 9.191 9.191 0 01.813 3.762l.008.492a13.172 13.172 0 01-.1 1.414z"/>
  <g clip-path="url(#a)" transform="translate(-215.5 -1004.499)">
    <path d="M274 1233h217v216H274z" class="a"/>
  </g>
  <g clip-path="url(#b)" transform="rotate(-90 -226.75 718.25)">
    <path d="M274 1233h217v216H274z" class="b"/>
  </g>
  <text font-family="Roboto-Medium,Roboto" font-size="30" font-weight="500" transform="translate(272.5 465.501)">
    <tspan x="0" y="28">0</tspan>
  </text>
  <path d="M281.5 455.001l-.25 12" class="c"/>
</svg>