<?xml version="1.0" encoding="UTF-8"?>
<svg width="41px" height="41px" viewBox="0 0 41 41" version="1.1" xmlns="http://www.w3.org/2000/svg" xmlns:xlink="http://www.w3.org/1999/xlink">
    <!-- Generator: sketchtool 49.3 (51167) - http://www.bohemiancoding.com/sketch -->
    <title>1DBE3D22-0F92-4A45-8ACA-DB7365E0C51F</title>
    <desc>Created with sketchtool.</desc>
    <defs></defs>
    <g id="Pa" stroke="none" stroke-width="1" fill="none" fill-rule="evenodd">
        <g id="Styleguide" transform="translate(-697.000000, -1797.000000)" fill="#ffffff" fill-rule="nonzero">
            <g id="error" transform="translate(697.000000, 1797.000000)">
                <path d="M20.5,0 C9.19661538,0 0,9.19582692 0,20.5 C0,31.8041731 9.19661538,41 20.5,41 C31.8033846,41 41,31.8041731 41,20.5 C41,9.19582692 31.8033846,0 20.5,0 Z M20.5,39.4230769 C10.0662885,39.4230769 1.57692308,30.9337115 1.57692308,20.5 C1.57692308,10.0662885 10.0662885,1.57692308 20.5,1.57692308 C30.9337115,1.57692308 39.4230769,10.0662885 39.4230769,20.5 C39.4230769,30.9337115 30.9337115,39.4230769 20.5,39.4230769 Z" id="Shape"></path>
                <path d="M28.7654059,13.2345971 C28.4526137,12.921801 27.9470263,12.921801 27.6342341,13.2345971 L21,19.8689141 L14.3657659,13.2345971 C14.0529737,12.921801 13.5473863,12.921801 13.2345941,13.2345971 C12.921802,13.5473932 12.921802,14.0529868 13.2345941,14.3657829 L19.8688283,21.0001 L13.2345941,27.6344171 C12.921802,27.9472132 12.921802,28.4528068 13.2345941,28.7656029 C13.3905902,28.921601 13.5953851,29 13.80018,29 C14.0049749,29 14.2097698,28.921601 14.3657659,28.7656029 L21,22.1312859 L27.6342341,28.7656029 C27.7902302,28.921601 27.9950251,29 28.19982,29 C28.4046149,29 28.6094098,28.921601 28.7654059,28.7656029 C29.078198,28.4528068 29.078198,27.9472132 28.7654059,27.6344171 L22.1311717,21.0001 L28.7654059,14.3657829 C29.078198,14.0529868 29.078198,13.5473932 28.7654059,13.2345971 Z" id="Shape"></path>
            </g>
        </g>
    </g>
</svg>