<svg width="41" height="41" xmlns="http://www.w3.org/2000/svg">
  <g fill="#000" fill-rule="nonzero">
    <path d="M20.5 0C9.197 0 0 9.196 0 20.5S9.197 41 20.5 41 41 31.804 41 20.5 31.803 0 20.5 0zm0 39.423c-10.434 0-18.923-8.49-18.923-18.923 0-10.434 8.49-18.923 18.923-18.923 10.434 0 18.923 8.49 18.923 18.923 0 10.434-8.49 18.923-18.923 18.923z"/>
    <path d="M28.765 13.235a.8.8 0 00-1.13 0L21 19.869l-6.634-6.634a.8.8 0 10-1.131 1.13L19.869 21l-6.634 6.634a.8.8 0 101.13 1.132L21 22.13l6.634 6.635a.798.798 0 001.131 0 .8.8 0 000-1.132L22.131 21l6.634-6.634a.8.8 0 000-1.131z"/>
  </g>
</svg>
