<svg xmlns="http://www.w3.org/2000/svg" width="81.752" height="70.745" viewBox="0 0 81.752 70.745"><defs><style>.a{fill:#fff;}.b{fill:#212d4c;}</style></defs><g transform="translate(-236.461 -569.352)"><path class="a" d="M18729.516,9203.7c.086-.131,7.326-5.307,7.326-5.307s-7.02-12.668-3.709-24.374,13.484-20.62,23.5-21.758,28.953.291,35.318,21.758c3.178,14.8-1.445,21.034-3.316,24.374.012-.114,7.367,5.307,7.367,5.307a40.336,40.336,0,0,0,5.434-29.681c-1.121-4.225-6.947-29.79-38.676-31.533-3.408.083-28.516.863-37.943,28.061C18719.049,9189.982,18729.512,9203.729,18729.516,9203.7Z" transform="translate(-18486.621 -8563.6)"/><path class="b" d="M7.877,0S15.9,15.838,16,15.879c-4.778-1.342-12.044-.583-14.289.028C1.768,15.824,7.877,0,7.877,0Z" transform="translate(236.771 593.673) rotate(-47)"/><rect class="a" width="12.64" height="4.889" transform="matrix(0.574, -0.819, 0.819, 0.574, 295.903, 590.884)"/><path class="a" d="M7.512,9.922A3.051,3.051,0,0,1,6.17,10.8a5.619,5.619,0,0,1-1.922.313,3.807,3.807,0,0,1-1.942-.483,3.224,3.224,0,0,1-1.289-1.4A4.939,4.939,0,0,1,.551,7.068v-.58A5.245,5.245,0,0,1,.981,4.276a3.186,3.186,0,0,1,1.242-1.43,3.578,3.578,0,0,1,1.9-.5A3.563,3.563,0,0,1,6.5,3.075,3.092,3.092,0,0,1,7.512,5.182H5.8a1.7,1.7,0,0,0-.519-1.072,1.656,1.656,0,0,0-1.1-.34,1.559,1.559,0,0,0-1.365.674,3.543,3.543,0,0,0-.475,2v.545a3.373,3.373,0,0,0,.51,2.027,1.746,1.746,0,0,0,1.494.686,1.95,1.95,0,0,0,1.412-.422V7.813h-1.6V6.518H7.512Zm6.24-.68H10.67L10.084,11H8.215l3.176-8.531H13.02L16.213,11H14.344ZM11.145,7.818h2.133L12.205,4.625Z" transform="translate(302 567)"/><path class="b" d="M2.52,7.994V11H.762V2.469H4.09a3.85,3.85,0,0,1,1.69.352,2.591,2.591,0,0,1,1.122,1,2.786,2.786,0,0,1,.393,1.474,2.45,2.45,0,0,1-.858,1.978,3.575,3.575,0,0,1-2.376.724Zm0-1.424H4.09a1.544,1.544,0,0,0,1.063-.328A1.193,1.193,0,0,0,5.52,5.3,1.407,1.407,0,0,0,5.15,4.291a1.379,1.379,0,0,0-1.02-.4H2.52Zm9.756,2.672H9.193L8.607,11H6.738L9.914,2.469h1.629L14.736,11H12.867ZM9.668,7.818H11.8L10.729,4.625Z" transform="translate(268 606)"/></g></svg>