<?xml version="1.0" encoding="UTF-8"?>
<svg width="30px" height="29px" viewBox="0 0 30 29" version="1.1" xmlns="http://www.w3.org/2000/svg" xmlns:xlink="http://www.w3.org/1999/xlink">
    <!-- Generator: sketchtool 49.3 (51167) - http://www.bohemiancoding.com/sketch -->
    <title>74F9560C-9703-4647-9DC9-63E91CF79A91</title>
    <desc>Created with sketchtool.</desc>
    <defs></defs>
    <g id="Pa" stroke="none" stroke-width="1" fill="none" fill-rule="evenodd">
        <g id="Styleguide" transform="translate(-300.000000, -1906.000000)" fill-rule="nonzero">
            <g id="Download" transform="translate(301.000000, 1907.000000)">
                <rect id="Rectangle-35" stroke="#FFFFFF" fill="#424242" x="0" y="0" width="28" height="27" rx="13.5"></rect>
                <g id="download-button-(1)" transform="translate(7.000000, 6.000000)" fill="#FFFFFF">
                    <path d="M11.1951791,8.55555556 L11.1951791,11.9845591 L1.80482086,11.9845591 L1.80482086,8.55555556 L0,8.55555556 L0,12.9925299 C0,13.5488417 0.403462188,14 0.903755305,14 L12.0962447,14 C12.5960895,14 13,13.5493424 13,12.9925299 L13,8.55555556 L11.1951791,8.55555556 Z" id="Shape"></path>
                    <path d="M6.7098385,8.43474808 L3.99707448,5.24642613 C3.99707448,5.24642613 3.58432395,4.86739805 4.03190178,4.86739805 C4.4794796,4.86739805 5.56053772,4.86739805 5.56053772,4.86739805 C5.56053772,4.86739805 5.56053772,4.61242385 5.56053772,4.2192051 C5.56053772,3.09814258 5.56053772,1.05789118 5.56053772,0.226135111 C5.56053772,0.226135111 5.49982526,0 5.84998079,0 C6.20296015,0 7.74900972,0 8.00174295,0 C8.2540055,0 8.24835784,0.190429567 8.24835784,0.190429567 C8.24835784,0.997008647 8.24835784,3.10775561 8.24835784,4.19219706 C8.24835784,4.54375934 8.24835784,4.77172551 8.24835784,4.77172551 C8.24835784,4.77172551 9.11527515,4.77172551 9.65933402,4.77172551 C10.2024516,4.77172551 9.79346619,5.16860636 9.79346619,5.16860636 C9.79346619,5.16860636 7.48545181,8.14864594 7.16353464,8.46129838 C6.93198017,8.68789126 6.7098385,8.43474808 6.7098385,8.43474808 Z" id="Shape"></path>
                </g>
            </g>
        </g>
    </g>
</svg>