<svg xmlns="http://www.w3.org/2000/svg" width="29" height="29" viewBox="0 0 29 29"><defs><style>.a{fill:#d3d3d3;stroke:#fff;}.b{fill:#424242;}</style></defs><g transform="translate(0.5 0.5)"><rect class="a" width="28" height="28" rx="13.5"/><g transform="translate(7 6.462)"><path class="b" d="M10.422,8.556v3.429H1.68V8.556H0v4.437A.935.935,0,0,0,.841,14H11.261a.935.935,0,0,0,.841-1.007V8.556Z" transform="translate(0.898)"/><path class="b" d="M6.71,8.435,4,5.246s-.413-.379.035-.379H5.561V.226S5.5,0,5.85,0H8c.252,0,.247.19.247.19V4.772H9.659c.543,0,.134.4.134.4s-2.308,2.98-2.63,3.293A.306.306,0,0,1,6.71,8.435Z" transform="translate(0 1)"/></g></g></svg>