<svg xmlns="http://www.w3.org/2000/svg" width="30.616" height="40.843">
  <path d="M30.128 10.662L19.944.477A1.68 1.68 0 0018.724 0H1.7A1.676 1.676 0 000 1.7v37.446a1.676 1.676 0 001.7 1.7h27.208a1.676 1.676 0 001.7-1.7V11.882a1.347 1.347 0 00-.48-1.22zm-9.707-4.88l4.4 4.4h-4.4zm-6.789-2.44a3.419 3.419 0 013.395 3.395v5.145a1.676 1.676 0 001.7 1.7h8.487V37.4H3.395V3.342z"/>
  <path d="M12.943 25.461L7.32 31.084a1.688 1.688 0 002.387 2.387l5.623-5.569 5.623 5.623a1.688 1.688 0 002.387-2.387l-5.623-5.676 5.623-5.623a1.688 1.688 0 00-2.387-2.387l-5.623 5.623-5.623-5.623a1.688 1.688 0 00-2.387 2.387z"/>
</svg>
