<?xml version="1.0" encoding="UTF-8"?>
<svg width="50px" height="45px" viewBox="0 0 50 45" version="1.1" xmlns="http://www.w3.org/2000/svg" xmlns:xlink="http://www.w3.org/1999/xlink">
    <!-- Generator: Sketch 49.3 (51167) - http://www.bohemiancoding.com/sketch -->
    <title>feedback</title>
    <desc>Created with Sketch.</desc>
    <defs></defs>
    <g id="Pa" stroke="none" stroke-width="1" fill="none" fill-rule="evenodd">
        <g id="Homepage-(D)" transform="translate(-17.000000, -634.000000)" fill="#FFFFFF" fill-rule="nonzero">
            <g id="feedback" transform="translate(17.000000, 634.000000)">
                <path d="M12.0416951,12 L34.9583049,12 C35.5340839,12 36,11.5527327 36,11 C36,10.4472673 35.5340839,10 34.9583049,10 L12.0416951,10 C11.4659161,10 11,10.4472673 11,11 C11.0000977,11.5528265 11.4660138,12 12.0416951,12 Z" id="Shape"></path>
                <path d="M24.9285427,23 L12.0714573,23 C11.4792278,23 11,23.4472673 11,24 C11,24.5527327 11.4792278,25 12.0714573,25 L24.9285427,25 C25.5207722,25 26,24.5527327 26,24 C26,23.4472673 25.5207722,23 24.9285427,23 Z" id="Shape"></path>
                <path d="M46.0124023,4.09093524 C45.9520508,4.09093524 45.8935547,4.10579672 45.8333984,4.10857726 L45.8333984,4.09093524 C45.8333984,1.83477012 43.9636719,0 41.6666992,0 L4.16669922,0 C1.86972656,0 0,1.83477012 0,4.09093524 L0,43.9772422 C0,44.390775 0.254296875,44.7642297 0.642871094,44.9220491 C0.77109375,44.9749752 0.907324219,45 1.04160156,45 C1.31220703,45 1.57871094,44.8961614 1.778125,44.7003733 L11.8896484,34.7727098 L41.6666992,34.7727098 C43.9636719,34.7727098 45.8333984,32.9380356 45.8333984,30.6817746 L45.8333984,13.7183967 L48.8322266,10.7745763 C48.8322266,10.7745763 48.8322266,10.7745763 48.8322266,10.7736175 C49.5748047,10.0445418 50,9.03578262 50,8.00602556 C50,5.84679567 48.2117188,4.09093524 46.0124023,4.09093524 Z M43.75,30.6817746 C43.75,31.8093298 42.8161133,32.7271943 41.6666992,32.7271943 L11.4583008,32.7271943 C11.1816406,32.7271943 10.9170898,32.8350599 10.7217773,33.026821 L2.08330078,41.5083182 L2.08330078,4.09093524 C2.08330078,2.96338002 3.0171875,2.04551556 4.16660156,2.04551556 L41.6666016,2.04551556 C42.8162109,2.04551556 43.75,2.96338002 43.75,4.09093524 L43.75,4.7895209 C43.5522461,4.92298662 43.3630859,5.06977973 43.1925781,5.2374748 L31.8585937,16.3636451 L11.4583008,16.3636451 C10.8825195,16.3636451 10.4166016,16.8210912 10.4166016,17.3864029 C10.4166016,17.9517146 10.8825195,18.4091606 11.4583008,18.4091606 L30.1873047,18.4091606 L29.1870117,23.3220798 C29.1178711,23.6576617 29.2256836,24.0042699 29.471875,24.2458889 C29.6692383,24.4396634 29.9357422,24.5455156 30.2083984,24.5455156 C30.2755859,24.5455156 30.3447266,24.5385163 30.4118164,24.5255724 L35.6181641,23.5028146 C35.821582,23.4628324 36.0067383,23.3659931 36.1511719,23.2231311 L43.75,15.7636246 L43.75,30.6817746 Z M34.9019531,21.5581654 L31.5369141,22.2193576 L32.2103516,18.9114788 L41.6662109,9.62755735 L44.3602539,12.272614 L34.9019531,21.5581654 Z M47.3591797,9.32841004 L45.8333008,10.8265436 L43.1390625,8.1812952 L44.6654297,6.68268227 C45.0194336,6.3360741 45.5097656,6.13635492 46.0123047,6.13635492 C47.0621094,6.13635492 47.9166016,6.97530969 47.9166016,8.00602556 C47.9166992,8.49741336 47.7131836,8.97988426 47.3591797,9.32841004 Z" id="Shape"></path>
            </g>
        </g>
    </g>
</svg>