<svg xmlns="http://www.w3.org/2000/svg" width="77.206" height="68.93"><g data-name="Icon 2"><g data-name="001-dependencies" fill="#fff"><path data-name="Path 565" d="M37.386 22.214a11.107 11.107 0 1111.107-11.107 11.107 11.107 0 01-11.107 11.107zm0-17.545a7.135 7.135 0 00-6.437 6.438c-.026 3.032 3.15 6.443 6.438 6.438s6.458-3.458 6.438-6.438-3.179-6.516-6.438-6.438z"/><path data-name="Path 566" d="M70.811 67.929h-10.7a1.047 1.047 0 01-.907-.523l-5.348-9.262a1.047 1.047 0 010-1.047l5.348-9.262a1.047 1.047 0 01.907-.524h10.7a1.047 1.047 0 01.907.523l5.347 9.262a1.047 1.047 0 010 1.047l-5.348 9.262a1.047 1.047 0 01-.906.524zm-8.7-4.075h6.713l3.355-6.234-3.355-6.234h-6.713l-3.355 6.234z"/><path data-name="Path 567" d="M19.571 68.929H1.047A1.047 1.047 0 010 67.882V49.358a1.047 1.047 0 011.047-1.047h18.524a1.047 1.047 0 011.047 1.047v18.524a1.047 1.047 0 01-1.047 1.047zm-15.5-4.075h12.472V52.386H4.075z"/></g><g data-name="001-long-arrow-pointing-to-the-right"><path data-name="Path 784" d="M9.256 44.045l10.115-.823a.627.627 0 00.54-.432.567.567 0 00-.162-.658l-3.2-2.984L33.175 21.32a.6.6 0 00-.03-.884l-2.743-2.557a.6.6 0 00-.884.03L12.895 35.737l-3.2-2.983a.589.589 0 00-.667-.115.609.609 0 00-.38.58l-.058 10.2a.638.638 0 00.206.466.617.617 0 00.46.16z" fill="#fff"/></g><g data-name="001-long-arrow-pointing-to-the-right"><path data-name="Path 784" d="M47.946 57.994l-7.5-6.837a.627.627 0 00-.684-.1.567.567 0 00-.371.567v4.375H18.013a.6.6 0 00-.625.625v3.75a.6.6 0 00.625.625h21.375v4.375a.589.589 0 00.371.566.609.609 0 00.684-.117l7.5-6.915a.638.638 0 00.2-.469.617.617 0 00-.197-.445z" fill="#fff"/></g><g data-name="001-long-arrow-pointing-to-the-right"><path data-name="Path 784" d="M45.238 24.461l-1.998 9.95a.627.627 0 00.267.638.567.567 0 00.677.026l3.75-2.253L60.49 53.718a.6.6 0 00.857.213L64.562 52a.6.6 0 00.213-.858L52.221 30.25l3.75-2.253a.589.589 0 00.295-.61.609.609 0 00-.453-.526l-9.79-2.867a.638.638 0 00-.505.07.617.617 0 00-.28.398z" fill="#fff"/></g></g></svg>
