<svg xmlns="http://www.w3.org/2000/svg" width="58.725" height="52.65" viewBox="0 0 58.725 52.65"><defs><style>.a{fill:#fff;}</style></defs><g transform="translate(-23.998 -48)"><path class="a" d="M27.036,88.5a3.028,3.028,0,0,0,2.148-.89l17.09-17.09,6.965,6.965a3.037,3.037,0,0,0,4.3,0L76.647,58.372v6.841a3.037,3.037,0,0,0,6.075,0l0-14.175A3.037,3.037,0,0,0,79.686,48H65.511a3.037,3.037,0,1,0,0,6.075h6.842L55.386,71.042l-6.965-6.965a3.037,3.037,0,0,0-4.3,0L24.888,83.315A3.037,3.037,0,0,0,27.036,88.5Z" transform="translate(0 0)"/><path class="a" d="M79.687,416H27.037a3.037,3.037,0,1,0,0,6.075h52.65a3.037,3.037,0,1,0,0-6.075Z" transform="translate(-0.001 -321.425)"/></g></svg>