<svg xmlns="http://www.w3.org/2000/svg" width="165.675" height="59.631"><defs><style>.a{fill:#fff}</style></defs><g transform="translate(0 .037)"><rect class="a" width="18.805" height="59.14" rx="1.06" transform="translate(0 .453)"/><path class="a" d="M87.198 44.84a20.593 20.593 0 004.21-1.38 6.121 6.121 0 003.715-7.076 28.975 28.975 0 00-.973-4.069c-.389-1.309-.9-2.583-1.4-4.016a5.573 5.573 0 015.5.955 34.568 34.568 0 0112.389 13.215 10.968 10.968 0 006.616 5.413 107.475 107.475 0 0112.065 4.883L104.108 2.912a5.13 5.13 0 00-9.288 0L73.046 46.149l-1.168 2.3zM151.965 59.31a731.535 731.535 0 00-2.158-8.315 20.132 20.132 0 01-.5-5.732 35.7 35.7 0 011.769-8.032c.849-3.1 1.769-6.139 2.724-9.235.3-1.044.531-2.123.743-3.2a1.521 1.521 0 00-.159-.92 16.13 16.13 0 00-1.061-1.769 6.758 6.758 0 00-5.891-3.114 10.224 10.224 0 01-1.557-.159 7.251 7.251 0 01-.849-.177v-.124c.248-.124.513-.265.778-.372a19.159 19.159 0 017.536-1.1.92.92 0 00.9-.425 6.068 6.068 0 014.352-2.424 10.614 10.614 0 013.538.124 6.775 6.775 0 013.538 1.928V2.275c0-1.168-.761-1.769-2.3-1.769h-40.275q-2.282 0-2.282 1.769v14.153c0 1.185.761 1.769 2.282 1.769h9.182c1.061 0 1.592.6 1.592 1.769v35.152q3.874 2.07 7.572 4.405h10.615a2.193 2.193 0 01-.088-.212z"/><path class="a" d="M24.979 59.523h15.356a26.128 26.128 0 012.461-1.769 58.113 58.113 0 01-.973-8.615c0-.425.195-1.309-.318-1.221-2.406.46-3.538-1.451-5.307-2.424-.442-.265-1.079-.5-.885-1.2a1.557 1.557 0 011.132-1.079c.9-.248 1.769-.407 3.078-.655a.265.265 0 000-.124 11.818 11.818 0 01-7.642-5.714c-.619-1.132-1.185-2.424-.088-3.538s2.371-.708 3.538 0c.6.372.637.354 1.044-.336 1.4-2.371 3.538-2.353 5.13-.106a6.351 6.351 0 011.079 2.654c.142.725.283 1.468.46 2.477a17.885 17.885 0 011.291-3.043 8.209 8.209 0 011.274-1.769 2.954 2.954 0 014.741 0 4.4 4.4 0 011.079 1.875 7.448 7.448 0 01.177 2.742l.195.124.743-.23a4.636 4.636 0 01.708-.195 2.99 2.99 0 013.361 1.238c.743 1.238.106 2.353-.708 3.326a6.917 6.917 0 01-4.865 2.176 26.536 26.536 0 01-5.8-.3 22.644 22.644 0 004.556 2.084c.513.23 1.4.124 1.451.831s-.655 1.256-1.274 1.645a4.087 4.087 0 01-3.167.531 7.218 7.218 0 01-3.538-2.052.425.425 0 00-.318 0 1.132 1.132 0 00-.177.23.513.513 0 000 .23 11.2 11.2 0 00.106 2.884 46 46 0 00.708 7.182 37.293 37.293 0 0111.658-4.936l16.629-3.91 1.168-2.3a22.734 22.734 0 00.3-3.237c0-6.546-2.211-11.393-6.616-14.577a19.212 19.212 0 003.37-11.356 19.938 19.938 0 00-3.131-10.968A10.774 10.774 0 0057.607.525H24.979A1.645 1.645 0 0023.104 2.4v55.354a1.663 1.663 0 001.875 1.769zm10.617-38.442a1.38 1.38 0 00.425-1.061 1.451 1.451 0 01.831-1.5l.371-.195c.336-.177.637-.336.743-.672a2.034 2.034 0 011.166-1.187l.159-.088s.159-.088.177-.142a1.858 1.858 0 011.415-1.132l.372-.124a2.618 2.618 0 001.557-1.114 5.042 5.042 0 00.283-.531 3.538 3.538 0 01.9-1.309 2.689 2.689 0 00.885-1.132 1.557 1.557 0 01.425-.619 1.769 1.769 0 00.354-.46l.389-.8a8.474 8.474 0 011.38-2.335.725.725 0 01.619-.425h.142a1.344 1.344 0 01.283 0 .478.478 0 01.336.142.778.778 0 01.425.23 10.172 10.172 0 012.441 2.954.566.566 0 01.389.548 1.168 1.168 0 000 .425.248.248 0 010 .106.991.991 0 01.159.372v.212a2.8 2.8 0 00.159.637 2.035 2.035 0 01.195.8 23.582 23.582 0 01.425 4.759v.566a3.043 3.043 0 010 1.132 1.238 1.238 0 01-.106.708 6.6 6.6 0 01-.672 2.53c0 .088-.106.142 0 .23s.142.088.248 0a.283.283 0 01.159 0c.106 0 .159 0 .195.159h.531c.5-.195 2.264-.761 3.538-1.079v.124c-.9.407-2.954 1.115-3.361 1.221a.3.3 0 000 .124.425.425 0 01-.142.425l-.142.177c-.195.212-.372.442-.655.442a1.436 1.436 0 00-.955.655h.124v-.106a.425.425 0 01.3-.159c.212 0 .248.371.265.637a.266.266 0 010 .106 6.617 6.617 0 01.142 1.327 1.769 1.769 0 01.159 1.1v.007a3.538 3.538 0 01-.513-1.858.46.46 0 010-.195.584.584 0 000-.336.548.548 0 00-.407.159 1.2 1.2 0 01-.3.159h-1.061c-.425 0-.6.088-.6.3s-.106 2.105-.566 2.211a2.76 2.76 0 010-.778c0-.548.212-1.309 0-1.5a.106.106 0 00-.088 0c-.318.088-.655.23-.973.354a7.253 7.253 0 01-1.946.566h-1.61c-.389 0-.8.088-1.185.088a3.821 3.821 0 01-1.044-.142.212.212 0 01-.248 0l-.9-.318a5.661 5.661 0 01-4.034-1.928c0-.106-.195-.177-.283-.265a1.221 1.221 0 01-.566-.9v-.177a.99.99 0 000-.212 4.6 4.6 0 00-.46-1.15.425.425 0 01-.212-.69z"/></g></svg>
