<svg xmlns="http://www.w3.org/2000/svg" width="24.614" height="24.614"><path d="M12.307 0a12.307 12.307 0 1012.307 12.307A12.321 12.321 0 0012.307 0zm.8 19.609c-.585.1-1.748.341-2.339.39a1.44 1.44 0 01-1.26-.656 1.538 1.538 0 01-.186-1.408l2.326-6.4H9.23a2.891 2.891 0 012.276-2.689 8.906 8.906 0 012.339-.388 1.855 1.855 0 011.26.656 1.538 1.538 0 01.186 1.408l-2.326 6.4h2.418a2.723 2.723 0 01-2.275 2.687zm.738-11.917a1.538 1.538 0 111.538-1.538 1.538 1.538 0 01-1.538 1.538z" opacity=".699"/></svg>
