<?xml version="1.0" encoding="UTF-8"?>
<svg width="20px" height="20px" viewBox="0 0 20 20" version="1.1" xmlns="http://www.w3.org/2000/svg" xmlns:xlink="http://www.w3.org/1999/xlink">
    <!-- Generator: Sketch 52.5 (67469) - http://www.bohemiancoding.com/sketch -->
    <title>info-button (1)</title>
    <desc>Created with Sketch.</desc>
    <g id="Pa" stroke="none" stroke-width="1" fill="none" fill-rule="evenodd">
        <g id="Data-Landing-Page-(D)" transform="translate(-140.000000, -577.000000)" fill="#000000" fill-rule="nonzero">
            <g id="info-button-(1)" transform="translate(140.000000, 577.000000)">
                <path d="M17.0715443,2.92878184 C13.1662844,-0.976043215 6.83447646,-0.976478003 2.92878184,2.92878184 C-0.976478003,6.83404168 -0.976043215,13.1658496 2.92878184,17.0715443 C6.83404168,20.9759345 13.1658496,20.9763693 17.0715443,17.0715443 C20.9763693,13.1658496 20.9759345,6.83447646 17.0715443,2.92878184 Z M11.3040903,14.3480364 C11.3040903,15.068479 10.7201709,15.6523984 9.99972826,15.6523984 C9.27928564,15.6523984 8.69536625,15.068479 8.69536625,14.3480364 L8.69536625,9.13058838 C8.69536625,8.41014576 9.27928564,7.82622637 9.99972826,7.82622637 C10.7201709,7.82622637 11.3040903,8.41014576 11.3040903,9.13058838 L11.3040903,14.3480364 Z M9.97668453,6.90099892 C9.22537202,6.90099892 8.72449701,6.36881923 8.74014935,5.71185556 C8.72449701,5.02315243 9.22537202,4.50705986 9.99190209,4.50705986 C10.7588669,4.50705986 11.2440896,5.02358721 11.2601767,5.71185556 C11.259742,6.36881923 10.7593017,6.90099892 9.97668453,6.90099892 Z" id="Shape"></path>
            </g>
        </g>
    </g>
</svg>