<?xml version="1.0" encoding="UTF-8"?>
<svg width="32px" height="29px" viewBox="0 0 32 29" version="1.1" xmlns="http://www.w3.org/2000/svg" xmlns:xlink="http://www.w3.org/1999/xlink">
    <!-- Generator: Sketch 52.5 (67469) - http://www.bohemiancoding.com/sketch -->
    <title>Shape</title>
    <desc>Created with Sketch.</desc>
    <g id="Pa" stroke="none" stroke-width="1" fill="none" fill-rule="evenodd">
        <g id="Assets-(M)" transform="translate(-276.000000, -2255.000000)" fill="#FFFFFF" fill-rule="nonzero">
            <g id="layers-(1)" transform="translate(276.000000, 2255.000000)">
                <path d="M31.999875,14.5000199 C31.999875,13.8112602 31.6241265,13.1919429 31.0190038,12.88343 L28.6363882,11.6701919 L31.0190038,10.4570175 C31.0190663,10.4569539 31.0192538,10.4568902 31.0192538,10.4568902 C31.6242515,10.1485046 32,9.52912371 32,8.84036399 C32,8.15173158 31.624189,7.53235067 31.0191288,7.22383774 L17.5680564,0.37468535 C16.5860603,-0.124905724 15.4136899,-0.124905724 14.4315062,0.374749 L0.98068379,7.224156 C0.375811155,7.53241432 1.24672444e-07,8.15173158 1.24672444e-07,8.84042764 C1.24672444e-07,9.52918736 0.375748655,10.1485046 0.980871289,10.4570175 L3.36342447,11.6701919 L0.980558791,12.8835573 C0.375748655,13.1919429 1.24672444e-07,13.8112602 1.24672444e-07,14.5000199 C1.24672444e-07,15.1887796 0.375748655,15.8080969 0.980871289,16.1165461 L3.36342447,17.3297842 L0.981058789,18.5428949 C0.376248653,18.8506441 0.000250123695,19.4697704 1.24672444e-07,20.1585937 C-0.00024987435,20.847799 0.375498656,21.4674982 0.980871289,21.7760747 L14.4317562,28.6253544 C14.9227543,28.8751818 15.4611897,29 15.9998751,29 C16.5385605,29 17.0772459,28.8750545 17.5683064,28.6252908 L31.0191913,21.7760111 C31.624314,21.4676255 32.000125,20.8478627 31.999875,20.1586574 C31.999625,19.469834 31.6236265,18.8507077 31.0190038,18.5431495 L28.6363882,17.3299115 L31.0192538,16.1165461 C31.6241265,15.8080969 31.999875,15.1887796 31.999875,14.5000199 Z M1.63905622,9.11711542 C1.49286929,9.04258094 1.47111937,8.91177961 1.47111937,8.84049129 C1.47111937,8.76920298 1.49299429,8.63840164 1.63880622,8.56405811 L15.0892536,1.71503302 C15.37444,1.56991037 15.6872513,1.49747635 16.0000626,1.49747635 C16.3127488,1.49747635 16.6254976,1.56997402 16.9104965,1.71496937 L30.3608814,8.56393081 C30.5069433,8.63840164 30.5288183,8.76920298 30.5288183,8.84049129 C30.5288183,8.91177961 30.5070683,9.04258094 30.3608814,9.11711542 L16.910684,15.9659496 C16.3403737,16.2560676 15.6595014,16.2560676 15.0895036,15.9660132 L1.63905622,9.11711542 Z M30.3613189,19.883179 C30.5069433,19.9572679 30.5287558,20.0878146 30.5287558,20.1591666 C30.5288183,20.2306459 30.5070058,20.3617018 30.3610689,20.4360453 L16.9106215,27.2850704 C16.3403112,27.5751884 15.6594389,27.5752521 15.0894411,27.2851341 L1.63905622,20.436109 C1.49286929,20.3615745 1.47105687,20.2305822 1.47111937,20.1591029 C1.47111937,20.0878783 1.49286929,19.9572679 1.63880622,19.8830517 L5.00829304,18.1672946 L14.4317562,22.9656985 C14.9227543,23.2155259 15.4611897,23.3403441 15.9998126,23.3403441 C16.538498,23.3403441 17.0771834,23.2153986 17.5682439,22.9656349 L26.9914571,18.1672946 L30.3613189,19.883179 Z M30.3610064,14.7765167 L16.9106215,21.6255418 C16.3403112,21.9156598 15.6594389,21.9157235 15.0894411,21.6256055 L1.63905622,14.776644 C1.49286929,14.7021732 1.47111937,14.5713719 1.47111937,14.5000835 C1.47111937,14.4286679 1.49286929,14.2979939 1.63880622,14.2235867 L5.00829304,12.5078297 L14.4317562,17.3062336 C14.9226918,17.5560609 15.4612522,17.6808792 15.9998126,17.6808792 C16.538373,17.6808792 17.0771209,17.5559973 17.5681814,17.3061063 L26.9915196,12.507766 L30.3607564,14.2233958 C30.5069433,14.2979302 30.5286933,14.4286679 30.5286933,14.5000199 C30.5287558,14.5713082 30.5069433,14.7021095 30.3610064,14.7765167 Z" id="Shape"></path>
            </g>
        </g>
    </g>
</svg>