<svg xmlns="http://www.w3.org/2000/svg" width="81.278" height="107.334"><g data-name="Group 684"><g data-name="001-long-arrow-pointing-to-the-right"><path data-name="Path 784" d="M57.132 37.422l10.115-.823a.627.627 0 00.54-.432.567.567 0 00-.162-.658l-3.2-2.984 12.624-13.83a.6.6 0 00-.03-.883l-2.743-2.558a.6.6 0 00-.884.031L60.77 29.115l-3.2-2.983a.589.589 0 00-.667-.115.609.609 0 00-.38.58l-.059 10.201a.638.638 0 00.207.466.617.617 0 00.462.158z" fill="#fff"/></g><g data-name="001-long-arrow-pointing-to-the-right"><path data-name="Path 784" d="M24.146 38.422l-10.115-.823a.627.627 0 01-.54-.432.567.567 0 01.162-.661l3.2-2.983L4.23 19.694a.6.6 0 01.031-.883l2.742-2.557a.6.6 0 01.884.03L20.51 30.113l3.2-2.985a.589.589 0 01.668-.114.609.609 0 01.38.58l.058 10.2a.638.638 0 01-.206.467.617.617 0 01-.463.16z" fill="#fff"/></g><g data-name="001-long-arrow-pointing-to-the-right"><path data-name="Path 784" d="M39.632 33.557l-6.837-7.5a.627.627 0 01-.1-.684.567.567 0 01.57-.373h4.374V.625A.6.6 0 0138.265 0h3.75a.6.6 0 01.624.625V25h4.376a.589.589 0 01.566.371.609.609 0 01-.117.684l-6.915 7.5a.638.638 0 01-.469.2.617.617 0 01-.448-.198z" fill="#fff"/></g><g data-name="001-long-arrow-pointing-to-the-right"><path data-name="Path 784" d="M57.132 69.914l10.116.822a.627.627 0 01.54.432.567.567 0 01-.162.661l-3.2 2.983L77.05 88.641a.6.6 0 01-.031.883l-2.742 2.557a.6.6 0 01-.884-.03L60.77 78.222l-3.201 2.985a.589.589 0 01-.667.115.609.609 0 01-.381-.58l-.058-10.201a.638.638 0 01.207-.466.617.617 0 01.462-.161z" fill="#fff"/></g><g data-name="001-long-arrow-pointing-to-the-right"><path data-name="Path 784" d="M24.146 68.914l-10.115.822a.627.627 0 00-.54.432.567.567 0 00.162.661l3.199 2.983L4.23 87.641a.6.6 0 00.03.883l2.743 2.558a.6.6 0 00.883-.031l12.622-13.829 3.2 2.984a.589.589 0 00.667.115.609.609 0 00.381-.58l.058-10.202a.638.638 0 00-.207-.466.617.617 0 00-.461-.16z" fill="#fff"/></g><g data-name="001-long-arrow-pointing-to-the-right"><path data-name="Path 784" d="M39.633 73.777l-6.837 7.5a.627.627 0 00-.1.684.567.567 0 00.569.373h4.374v24.375a.6.6 0 00.627.625h3.75a.6.6 0 00.623-.625V82.334h4.375a.589.589 0 00.566-.371.609.609 0 00-.117-.684l-6.915-7.5a.638.638 0 00-.469-.2.617.617 0 00-.446.198z" fill="#fff"/></g><g data-name="Ellipse 156" transform="translate(24.262 37.377)" fill="none" stroke="#fff" stroke-width="7"><circle cx="16" cy="16" r="16" stroke="none"/><circle cx="16" cy="16" r="12.5"/></g></g></svg>
