<?xml version="1.0" encoding="UTF-8"?>
<svg width="23px" height="23px" viewBox="0 0 23 23" version="1.1" xmlns="http://www.w3.org/2000/svg" xmlns:xlink="http://www.w3.org/1999/xlink">
    <!-- Generator: sketchtool 49.3 (51167) - http://www.bohemiancoding.com/sketch -->
    <title>22469AE4-CBD1-49DC-85B0-3EC67B582710</title>
    <desc>Created with sketchtool.</desc>
    <defs></defs>
    <g id="Pa" stroke="none" stroke-width="1" fill="none" fill-rule="evenodd" opacity="0.8">
        <g id="Styleguide" transform="translate(-239.000000, -1808.000000)" fill="#939C47" fill-rule="nonzero">
            <g id="question-mark-(1)" transform="translate(239.000000, 1808.000000)">
                <path d="M11.346374,0.00104512447 C4.99557655,0.0860448137 -0.0834613574,5.30377574 0.00103927327,11.6547525 C0.0860399077,18.0029793 5.30332885,23.0834607 11.6538762,22.998961 C18.0034236,22.9134614 23.0834616,17.6957304 22.9989609,11.3452536 C22.9139603,4.99652686 17.6964213,-0.0837045657 11.346374,0.00104512447 Z M11.3123737,18.4999775 L11.2488732,18.4989775 C10.2708659,18.4699776 9.58136078,17.7494802 9.60911099,16.7859838 C9.63636119,15.8389872 10.3426165,15.1514897 11.2883735,15.1514897 L11.3451239,15.1524897 C12.3503814,15.1822396 13.0321365,15.895487 13.0038863,16.8867334 C12.9758861,17.8364799 12.2806309,18.4999775 11.3123737,18.4999775 Z M15.4261544,10.3352573 C15.1961527,10.6620061 14.6903989,11.0677547 14.0531442,11.5642528 L13.3513889,12.0487511 C12.966136,12.34825 12.7336343,12.6299989 12.6463837,12.9072479 C12.5776331,13.1254971 12.5438829,13.1832469 12.5378828,13.6272453 L12.5368828,13.7399949 L9.85736284,13.7399949 L9.8651129,13.5132457 C9.89786314,12.5812491 9.92086331,12.0330011 10.3071162,11.5800028 C10.9131207,10.8685054 12.2498807,10.0077585 12.3066311,9.97125867 C12.4981326,9.8270092 12.6596338,9.6627598 12.7798847,9.48726044 C13.0611368,9.09951186 13.1856377,8.79426297 13.1856377,8.49426407 C13.1856377,8.07801559 13.0621368,7.693017 12.8178849,7.35026825 C12.5831332,7.01951946 12.1371299,6.85202008 11.492125,6.85202008 C10.8523703,6.85202008 10.414367,7.05501933 10.152365,7.47151781 C9.88286303,7.89976624 9.74661201,8.3495146 9.74661201,8.80901292 L9.74661201,8.9232625 L6.98384139,8.9232625 L6.98884143,8.80401294 C7.06009196,7.11176913 7.66409647,5.89327358 8.78335482,5.18227618 C9.48661007,4.72952784 10.3616166,4.50002868 11.3826242,4.50002868 C12.7191342,4.50002868 13.8473926,4.82477749 14.7356493,5.46527515 C15.635656,6.11427277 16.0921594,7.08626922 16.0921594,8.35426458 C16.0921594,9.06351199 15.8681577,9.72975955 15.4261544,10.3352573 Z" id="Shape"></path>
            </g>
        </g>
    </g>
</svg>