<svg viewBox="0 0 23 23" xmlns="http://www.w3.org/2000/svg">
  <path d="M11.346.001C4.996.086-.084 5.304.001 11.655c.085 6.348 5.302 11.428 11.653 11.344 6.35-.086 11.43-5.303 11.345-11.654C22.914 4.997 17.696-.084 11.346.001zM11.312 18.5l-.063-.001c-.978-.029-1.668-.75-1.64-1.713.027-.947.734-1.635 1.68-1.635l.056.001c1.005.03 1.687.743 1.659 1.735-.028.95-.723 1.613-1.692 1.613zm4.114-8.165c-.23.327-.736.733-1.373 1.23l-.702.484c-.385.3-.617.581-.705.858-.068.218-.102.276-.108.72l-.001.113h-2.68l.008-.227c.033-.932.056-1.48.442-1.933.606-.711 1.943-1.572 2-1.609a2.11 2.11 0 00.473-.484c.281-.387.406-.693.406-.993 0-.416-.124-.801-.368-1.144-.235-.33-.68-.498-1.326-.498-.64 0-1.078.203-1.34.62-.27.428-.405.878-.405 1.337v.114H6.984l.005-.119c.071-1.692.675-2.91 1.794-3.622.704-.452 1.579-.682 2.6-.682 1.336 0 2.464.325 3.353.965.9.65 1.356 1.621 1.356 2.89 0 .709-.224 1.375-.666 1.98z" fill="#1B1D0A" fill-rule="nonzero" opacity=".8"/>
</svg>
