<svg xmlns="http://www.w3.org/2000/svg" width="18.623" height="19">
  <g data-name="001-floppy-disk">
    <g data-name="Group 361">
      <g data-name="Group 360">
        <path data-name="Path 550" d="M17.941 2.799L16.2 1.058a2.327 2.327 0 00-1.645-.681h-.587v4.656H3.1V.377H1.552A1.551 1.551 0 000 1.929v15.519A1.551 1.551 0 001.552 19h15.519a1.551 1.551 0 001.552-1.552v-13a2.328 2.328 0 00-.682-1.649zm-2.422 13.1H3.1V8.085h12.419z"/>
      </g>
    </g>
    <g data-name="Group 363">
      <g data-name="Group 362">
        <path data-name="Rectangle 2247" d="M9.999 0h3v4h-3z"/>
      </g>
    </g>
    <g data-name="Group 365">
      <g data-name="Group 364">
        <path data-name="Rectangle 2248" d="M5.001 10h9v1h-9z"/>
      </g>
    </g>
    <g data-name="Group 367">
      <g data-name="Group 366">
        <path data-name="Rectangle 2249" d="M5.001 13h9v1h-9z"/>
      </g>
    </g>
  </g>
</svg>
