<svg xmlns="http://www.w3.org/2000/svg" width="115" height="47.148" viewBox="0 0 115 47.148"><defs><style>.a{fill:#fff;}.b,.c{fill:none;stroke-width:5px;}.b{stroke:#fff;}.c{stroke:#212d4c;stroke-dasharray:1;}.d{fill:#212d4c;}</style></defs><g transform="translate(-516 -582.352)"><rect class="a" width="115" height="27" rx="2" transform="translate(631 629) rotate(180)"/><line class="b" y2="34" transform="translate(577.5 594.5)"/><path class="a" d="M7.512,9.922A3.051,3.051,0,0,1,6.17,10.8a5.619,5.619,0,0,1-1.922.313,3.807,3.807,0,0,1-1.942-.483,3.224,3.224,0,0,1-1.289-1.4A4.939,4.939,0,0,1,.551,7.068v-.58A5.245,5.245,0,0,1,.981,4.276a3.186,3.186,0,0,1,1.242-1.43,3.578,3.578,0,0,1,1.9-.5A3.563,3.563,0,0,1,6.5,3.075,3.092,3.092,0,0,1,7.512,5.182H5.8a1.7,1.7,0,0,0-.519-1.072,1.656,1.656,0,0,0-1.1-.34,1.559,1.559,0,0,0-1.365.674,3.543,3.543,0,0,0-.475,2v.545a3.373,3.373,0,0,0,.51,2.027,1.746,1.746,0,0,0,1.494.686,1.95,1.95,0,0,0,1.412-.422V7.813h-1.6V6.518H7.512Zm6.24-.68H10.67L10.084,11H8.215l3.176-8.531H13.02L16.213,11H14.344ZM11.145,7.818h2.133L12.205,4.625Z" transform="translate(570 580)"/><line class="c" y2="34" transform="translate(550.5 595.5)"/><path class="d" d="M2.52,7.994V11H.762V2.469H4.09a3.85,3.85,0,0,1,1.69.352,2.591,2.591,0,0,1,1.122,1,2.786,2.786,0,0,1,.393,1.474,2.45,2.45,0,0,1-.858,1.978,3.575,3.575,0,0,1-2.376.724Zm0-1.424H4.09a1.544,1.544,0,0,0,1.063-.328A1.193,1.193,0,0,0,5.52,5.3,1.407,1.407,0,0,0,5.15,4.291a1.379,1.379,0,0,0-1.02-.4H2.52Zm9.756,2.672H9.193L8.607,11H6.738L9.914,2.469h1.629L14.736,11H12.867ZM9.668,7.818H11.8L10.729,4.625Z" transform="translate(542 580)"/></g></svg>