<svg xmlns="http://www.w3.org/2000/svg" width="87.309" height="87.26"><path d="M86.559 18.358a2.558 2.558 0 00-.788-4.154l-8.622-3.746-3.025-8.737A2.558 2.558 0 0069.9.749l-4.879 4.877A44.75 44.75 0 0043.625.012a43.624 43.624 0 00-30.848 74.471 43.626 43.626 0 0069.236-51.575zM68.645 29.042l-5.285-1.419 12.311-12.23 4.616 2.008zm-.963 14.594a24.058 24.058 0 11-24.058-24.058 22.426 22.426 0 0110.658 2.471L55.6 28.12l-3.243 3.222a15.1 15.1 0 103.607 3.627l3.2-3.176 6.29 1.688a22.374 22.374 0 012.228 10.155zm-14.087 0a9.983 9.983 0 11-4.948-8.608l-6.915 6.869a2.558 2.558 0 003.605 3.629l6.919-6.868a9.906 9.906 0 011.344 4.978zM70.627 7.258l1.53 4.419-12.25 12.17-1.047-4.821zm11.507 36.378a38.509 38.509 0 01-65.739 27.23 38.509 38.509 0 0127.23-65.739 39.461 39.461 0 0117.613 4.282l-6.983 6.983-.02.021a28.248 28.248 0 00-10.611-1.95A29.173 29.173 0 1072.8 43.636a27.961 27.961 0 00-1.66-9.86c.027-.025.055-.047.081-.073l7-7a38.491 38.491 0 013.913 16.933z" fill="#fff"/></svg>
